<ttFont>
    <TTGlyph name=".notdef" xMin="60" yMin="243" xMax="174" yMax="367">
      <contour>
        <pt x="174" y="243" on="1"/>
        <pt x="60" y="243" on="1"/>
        <pt x="60" y="367" on="1"/>
        <pt x="174" y="367" on="1"/>
      </contour>
    </TTGlyph>
    <TTGlyph name="A" xMin="5" yMin="0" xMax="619" yMax="700">
      <contour>
        <pt x="619" y="0" on="1"/>
        <pt x="496" y="0" on="1"/>
        <pt x="434" y="175" on="1"/>
        <pt x="190" y="175" on="1"/>
        <pt x="128" y="0" on="1"/>
        <pt x="5" y="0" on="1"/>
        <pt x="254" y="700" on="1"/>
        <pt x="369" y="700" on="1"/>
      </contour>
      <contour>
        <pt x="394" y="287" on="1"/>
        <pt x="311" y="520" on="1"/>
        <pt x="229" y="287" on="1"/>
      </contour>
    </TTGlyph>
    <TTGlyph name="A.sc" xMin="5" yMin="0" xMax="545" yMax="574">
      <contour>
        <pt x="545" y="0" on="1"/>
        <pt x="428" y="0" on="1"/>
        <pt x="375" y="134" on="1"/>
        <pt x="175" y="134" on="1"/>
        <pt x="124" y="0" on="1"/>
        <pt x="5" y="0" on="1"/>
        <pt x="222" y="574" on="1"/>
        <pt x="329" y="574" on="1"/>
      </contour>
      <contour>
        <pt x="336" y="244" on="1"/>
        <pt x="275" y="393" on="1"/>
        <pt x="214" y="244" on="1"/>
      </contour>
    </TTGlyph>
    <TTGlyph name="AE" xMin="-9" yMin="0" xMax="832" yMax="700">
      <contour>
        <pt x="832" y="0" on="1"/>
        <pt x="396" y="0" on="1"/>
        <pt x="396" y="172" on="1"/>
        <pt x="196" y="172" on="1"/>
        <pt x="111" y="0" on="1"/>
        <pt x="-9" y="0" on="1"/>
        <pt x="332" y="700" on="1"/>
        <pt x="823" y="700" on="1"/>
        <pt x="823" y="588" on="1"/>
        <pt x="522" y="588" on="1"/>
        <pt x="522" y="421" on="1"/>
        <pt x="754" y="421" on="1"/>
        <pt x="754" y="309" on="1"/>
        <pt x="522" y="309" on="1"/>
        <pt x="522" y="112" on="1"/>
        <pt x="832" y="112" on="1"/>
      </contour>
      <contour>
        <pt x="396" y="286" on="1"/>
        <pt x="396" y="585" on="1"/>
        <pt x="250" y="286" on="1"/>
      </contour>
    </TTGlyph>
    <TTGlyph name="AE.sc" xMin="-9" yMin="0" xMax="727" yMax="574">
      <contour>
        <pt x="727" y="0" on="1"/>
        <pt x="348" y="0" on="1"/>
        <pt x="348" y="136" on="1"/>
        <pt x="180" y="136" on="1"/>
        <pt x="110" y="0" on="1"/>
        <pt x="-9" y="0" on="1"/>
        <pt x="288" y="574" on="1"/>
        <pt x="719" y="574" on="1"/>
        <pt x="719" y="464" on="1"/>
        <pt x="463" y="464" on="1"/>
        <pt x="463" y="354" on="1"/>
        <pt x="660" y="354" on="1"/>
        <pt x="660" y="245" on="1"/>
        <pt x="463" y="245" on="1"/>
        <pt x="463" y="110" on="1"/>
        <pt x="727" y="110" on="1"/>
      </contour>
      <contour>
        <pt x="348" y="245" on="1"/>
        <pt x="348" y="462" on="1"/>
        <pt x="233" y="245" on="1"/>
      </contour>
    </TTGlyph>
    <TTGlyph name="Aacute" xMin="5" yMin="0" xMax="619" yMax="947">
      <component glyphName="A" x="0" y="0" flags="0x204"/>
      <component glyphName="acute" x="160" y="203" flags="0x4"/>
    </TTGlyph>
    <TTGlyph name="Acircumflex" xMin="5" yMin="0" xMax="619" yMax="951">
      <component glyphName="A" x="0" y="0" flags="0x204"/>
      <component glyphName="circumflex" x="89" y="203" flags="0x4"/>
    </TTGlyph>
    <TTGlyph name="Adieresis" xMin="5" yMin="0" xMax="619" yMax="903">
      <component glyphName="A" x="0" y="0" flags="0x204"/>
      <component glyphName="dieresis" x="101" y="203" flags="0x4"/>
    </TTGlyph>
    <TTGlyph name="Agrave" xMin="5" yMin="0" xMax="619" yMax="947">
      <component glyphName="A" x="0" y="0" flags="0x204"/>
      <component glyphName="grave" x="160" y="203" flags="0x4"/>
    </TTGlyph>
    <TTGlyph name="Aring" xMin="5" yMin="0" xMax="619" yMax="958">
      <component glyphName="A" x="0" y="0" flags="0x204"/>
      <component glyphName="ring" x="167" y="203" flags="0x4"/>
    </TTGlyph>
    <TTGlyph name="Atilde" xMin="5" yMin="0" xMax="619" yMax="918">
      <component glyphName="A" x="0" y="0" flags="0x204"/>
      <component glyphName="tilde" x="47" y="203" flags="0x4"/>
    </TTGlyph>
    <TTGlyph name="B" xMin="78" yMin="0" xMax="586" yMax="700">
      <contour>
        <pt x="338" y="0" on="1"/>
        <pt x="78" y="0" on="1"/>
        <pt x="78" y="700" on="1"/>
        <pt x="257" y="700" on="1"/>
        <pt x="320" y="700" on="0"/>
        <pt x="419" y="686" on="0"/>
        <pt x="488" y="647" on="0"/>
        <pt x="524" y="577" on="0"/>
        <pt x="524" y="522" on="1"/>
        <pt x="524" y="473" on="0"/>
        <pt x="498" y="403" on="0"/>
        <pt x="465" y="374" on="1"/>
        <pt x="529" y="349" on="0"/>
        <pt x="586" y="270" on="0"/>
        <pt x="586" y="207" on="1"/>
        <pt x="586" y="146" on="0"/>
        <pt x="543" y="66" on="0"/>
        <pt x="473" y="19" on="0"/>
        <pt x="384" y="0" on="0"/>
      </contour>
      <contour>
        <pt x="301" y="598" on="1"/>
        <pt x="195" y="598" on="1"/>
        <pt x="195" y="416" on="1"/>
        <pt x="318" y="416" on="1"/>
        <pt x="411" y="416" on="0"/>
        <pt x="411" y="507" on="1"/>
        <pt x="411" y="561" on="0"/>
        <pt x="356" y="598" on="0"/>
      </contour>
      <contour>
        <pt x="333" y="320" on="1"/>
        <pt x="195" y="320" on="1"/>
        <pt x="195" y="102" on="1"/>
        <pt x="313" y="102" on="1"/>
        <pt x="388" y="102" on="0"/>
        <pt x="464" y="148" on="0"/>
        <pt x="464" y="209" on="1"/>
        <pt x="464" y="320" on="0"/>
      </contour>
    </TTGlyph>
    <TTGlyph name="B.sc" xMin="71" yMin="0" xMax="527" yMax="574">
      <contour>
        <pt x="309" y="0" on="1"/>
        <pt x="71" y="0" on="1"/>
        <pt x="71" y="574" on="1"/>
        <pt x="238" y="574" on="1"/>
        <pt x="293" y="574" on="0"/>
        <pt x="380" y="563" on="0"/>
        <pt x="440" y="530" on="0"/>
        <pt x="471" y="472" on="0"/>
        <pt x="471" y="425" on="1"/>
        <pt x="471" y="341" on="0"/>
        <pt x="420" y="307" on="1"/>
        <pt x="475" y="288" on="0"/>
        <pt x="527" y="225" on="0"/>
        <pt x="527" y="168" on="1"/>
        <pt x="527" y="120" on="0"/>
        <pt x="488" y="56" on="0"/>
        <pt x="426" y="17" on="0"/>
        <pt x="348" y="0" on="0"/>
      </contour>
      <contour>
        <pt x="285" y="480" on="1"/>
        <pt x="185" y="480" on="1"/>
        <pt x="185" y="346" on="1"/>
        <pt x="294" y="346" on="1"/>
        <pt x="322" y="346" on="0"/>
        <pt x="367" y="376" on="0"/>
        <pt x="367" y="407" on="1"/>
        <pt x="367" y="480" on="0"/>
      </contour>
      <contour>
        <pt x="299" y="260" on="1"/>
        <pt x="185" y="260" on="1"/>
        <pt x="185" y="95" on="1"/>
        <pt x="297" y="95" on="1"/>
        <pt x="409" y="95" on="0"/>
        <pt x="409" y="178" on="1"/>
        <pt x="409" y="260" on="0"/>
      </contour>
    </TTGlyph>
    <TTGlyph name="C" xMin="37" yMin="-14" xMax="581" yMax="714">
      <contour>
        <pt x="384" y="-14" on="1"/>
        <pt x="308" y="-14" on="0"/>
        <pt x="181" y="38" on="0"/>
        <pt x="89" y="134" on="0"/>
        <pt x="37" y="268" on="0"/>
        <pt x="37" y="350" on="1"/>
        <pt x="37" y="432" on="0"/>
        <pt x="89" y="566" on="0"/>
        <pt x="181" y="662" on="0"/>
        <pt x="308" y="714" on="0"/>
        <pt x="384" y="714" on="1"/>
        <pt x="494" y="714" on="0"/>
        <pt x="581" y="673" on="1"/>
        <pt x="568" y="562" on="1"/>
        <pt x="456" y="603" on="0"/>
        <pt x="384" y="603" on="1"/>
        <pt x="331" y="603" on="0"/>
        <pt x="250" y="566" on="0"/>
        <pt x="194" y="499" on="0"/>
        <pt x="166" y="406" on="0"/>
        <pt x="166" y="350" on="1"/>
        <pt x="166" y="294" on="0"/>
        <pt x="194" y="201" on="0"/>
        <pt x="250" y="134" on="0"/>
        <pt x="331" y="97" on="0"/>
        <pt x="384" y="97" on="1"/>
        <pt x="460" y="97" on="0"/>
        <pt x="568" y="138" on="1"/>
        <pt x="581" y="27" on="1"/>
        <pt x="496" y="-14" on="0"/>
      </contour>
    </TTGlyph>
    <TTGlyph name="C.sc" xMin="35" yMin="-12" xMax="508" yMax="586">
      <contour>
        <pt x="335" y="-12" on="1"/>
        <pt x="269" y="-12" on="0"/>
        <pt x="159" y="31" on="0"/>
        <pt x="79" y="110" on="0"/>
        <pt x="35" y="220" on="0"/>
        <pt x="35" y="288" on="1"/>
        <pt x="35" y="354" on="0"/>
        <pt x="80" y="464" on="0"/>
        <pt x="159" y="542" on="0"/>
        <pt x="269" y="586" on="0"/>
        <pt x="335" y="586" on="1"/>
        <pt x="439" y="586" on="0"/>
        <pt x="508" y="552" on="1"/>
        <pt x="496" y="445" on="1"/>
        <pt x="412" y="477" on="0"/>
        <pt x="335" y="477" on="1"/>
        <pt x="250" y="477" on="0"/>
        <pt x="159" y="375" on="0"/>
        <pt x="159" y="288" on="1"/>
        <pt x="159" y="200" on="0"/>
        <pt x="249" y="98" on="0"/>
        <pt x="334" y="98" on="1"/>
        <pt x="412" y="98" on="0"/>
        <pt x="496" y="130" on="1"/>
        <pt x="508" y="22" on="1"/>
        <pt x="439" y="-12" on="0"/>
      </contour>
    </TTGlyph>
    <TTGlyph name="Ccaron" xMin="37" yMin="-14" xMax="581" yMax="950">
      <component glyphName="C" x="0" y="0" flags="0x204"/>
      <component glyphName="caron" x="160" y="203" flags="0x4"/>
    </TTGlyph>
    <TTGlyph name="Ccedilla" xMin="37" yMin="-193" xMax="581" yMax="714">
      <component glyphName="C" x="0" y="0" flags="0x204"/>
      <component glyphName="cedilla" x="91" y="0" flags="0x4"/>
    </TTGlyph>
    <TTGlyph name="D" xMin="78" yMin="0" xMax="685" yMax="700">
      <contour>
        <pt x="339" y="0" on="1"/>
        <pt x="78" y="0" on="1"/>
        <pt x="78" y="700" on="1"/>
        <pt x="339" y="700" on="1"/>
        <pt x="416" y="700" on="0"/>
        <pt x="543" y="651" on="0"/>
        <pt x="635" y="560" on="0"/>
        <pt x="685" y="431" on="0"/>
        <pt x="685" y="350" on="1"/>
        <pt x="685" y="269" on="0"/>
        <pt x="635" y="140" on="0"/>
        <pt x="543" y="49" on="0"/>
        <pt x="416" y="0" on="0"/>
      </contour>
      <contour>
        <pt x="339" y="589" on="1"/>
        <pt x="196" y="589" on="1"/>
        <pt x="196" y="111" on="1"/>
        <pt x="339" y="111" on="1"/>
        <pt x="445" y="111" on="0"/>
        <pt x="556" y="238" on="0"/>
        <pt x="556" y="350" on="1"/>
        <pt x="556" y="462" on="0"/>
        <pt x="445" y="589" on="0"/>
      </contour>
    </TTGlyph>
    <TTGlyph name="D.sc" xMin="71" yMin="0" xMax="599" yMax="574">
      <contour>
        <pt x="300" y="0" on="1"/>
        <pt x="71" y="0" on="1"/>
        <pt x="71" y="574" on="1"/>
        <pt x="300" y="574" on="1"/>
        <pt x="366" y="574" on="0"/>
        <pt x="475" y="534" on="0"/>
        <pt x="555" y="460" on="0"/>
        <pt x="599" y="354" on="0"/>
        <pt x="599" y="288" on="1"/>
        <pt x="599" y="222" on="0"/>
        <pt x="555" y="115" on="0"/>
        <pt x="476" y="40" on="0"/>
        <pt x="366" y="0" on="0"/>
      </contour>
      <contour>
        <pt x="300" y="465" on="1"/>
        <pt x="185" y="465" on="1"/>
        <pt x="185" y="109" on="1"/>
        <pt x="300" y="109" on="1"/>
        <pt x="387" y="109" on="0"/>
        <pt x="475" y="203" on="0"/>
        <pt x="475" y="288" on="1"/>
        <pt x="475" y="373" on="0"/>
        <pt x="387" y="465" on="0"/>
      </contour>
    </TTGlyph>
    <TTGlyph name="E" xMin="78" yMin="0" xMax="529" yMax="700">
      <contour>
        <pt x="529" y="0" on="1"/>
        <pt x="78" y="0" on="1"/>
        <pt x="78" y="700" on="1"/>
        <pt x="519" y="700" on="1"/>
        <pt x="519" y="588" on="1"/>
        <pt x="198" y="588" on="1"/>
        <pt x="198" y="421" on="1"/>
        <pt x="449" y="421" on="1"/>
        <pt x="449" y="309" on="1"/>
        <pt x="198" y="309" on="1"/>
        <pt x="198" y="112" on="1"/>
        <pt x="529" y="112" on="1"/>
      </contour>
    </TTGlyph>
    <TTGlyph name="E.sc" xMin="71" yMin="0" xMax="471" yMax="574">
      <contour>
        <pt x="471" y="0" on="1"/>
        <pt x="71" y="0" on="1"/>
        <pt x="71" y="574" on="1"/>
        <pt x="463" y="574" on="1"/>
        <pt x="463" y="464" on="1"/>
        <pt x="188" y="464" on="1"/>
        <pt x="188" y="354" on="1"/>
        <pt x="401" y="354" on="1"/>
        <pt x="401" y="245" on="1"/>
        <pt x="188" y="245" on="1"/>
        <pt x="188" y="110" on="1"/>
        <pt x="471" y="110" on="1"/>
      </contour>
    </TTGlyph>
    <TTGlyph name="Eacute" xMin="78" yMin="0" xMax="529" yMax="947">
      <component glyphName="E" x="0" y="0" flags="0x204"/>
      <component glyphName="acute" x="123" y="203" flags="0x4"/>
    </TTGlyph>
    <TTGlyph name="Ecircumflex" xMin="78" yMin="0" xMax="529" yMax="951">
      <component glyphName="E" x="0" y="0" flags="0x204"/>
      <component glyphName="circumflex" x="51" y="203" flags="0x4"/>
    </TTGlyph>
    <TTGlyph name="Edieresis" xMin="78" yMin="0" xMax="529" yMax="903">
      <component glyphName="E" x="0" y="0" flags="0x204"/>
      <component glyphName="dieresis" x="63" y="203" flags="0x4"/>
    </TTGlyph>
    <TTGlyph name="Egrave" xMin="78" yMin="0" xMax="529" yMax="947">
      <component glyphName="E" x="0" y="0" flags="0x204"/>
      <component glyphName="grave" x="123" y="203" flags="0x4"/>
    </TTGlyph>
    <TTGlyph name="Eth" xMin="-5" yMin="0" xMax="694" yMax="700">
      <contour>
        <pt x="349" y="0" on="1"/>
        <pt x="89" y="0" on="1"/>
        <pt x="89" y="303" on="1"/>
        <pt x="-5" y="303" on="1"/>
        <pt x="-5" y="388" on="1"/>
        <pt x="89" y="388" on="1"/>
        <pt x="89" y="700" on="1"/>
        <pt x="349" y="700" on="1"/>
        <pt x="425" y="700" on="0"/>
        <pt x="552" y="651" on="0"/>
        <pt x="643" y="560" on="0"/>
        <pt x="694" y="431" on="0"/>
        <pt x="694" y="350" on="1"/>
        <pt x="694" y="269" on="0"/>
        <pt x="643" y="139" on="0"/>
        <pt x="552" y="49" on="0"/>
        <pt x="425" y="0" on="0"/>
      </contour>
      <contour>
        <pt x="349" y="589" on="1"/>
        <pt x="205" y="589" on="1"/>
        <pt x="205" y="388" on="1"/>
        <pt x="330" y="388" on="1"/>
        <pt x="330" y="303" on="1"/>
        <pt x="205" y="303" on="1"/>
        <pt x="205" y="112" on="1"/>
        <pt x="349" y="112" on="1"/>
        <pt x="455" y="112" on="0"/>
        <pt x="566" y="238" on="0"/>
        <pt x="566" y="350" on="1"/>
        <pt x="566" y="462" on="0"/>
        <pt x="455" y="589" on="0"/>
      </contour>
    </TTGlyph>
    <TTGlyph name="Euro" xMin="32" yMin="17" xMax="649" yMax="683">
      <contour>
        <pt x="469" y="17" on="1"/>
        <pt x="367" y="17" on="0"/>
        <pt x="212" y="119" on="0"/>
        <pt x="175" y="211" on="1"/>
        <pt x="32" y="211" on="1"/>
        <pt x="60" y="292" on="1"/>
        <pt x="154" y="292" on="1"/>
        <pt x="152" y="306" on="0"/>
        <pt x="151" y="344" on="0"/>
        <pt x="151" y="361" on="1"/>
        <pt x="59" y="361" on="1"/>
        <pt x="88" y="443" on="1"/>
        <pt x="161" y="443" on="1"/>
        <pt x="175" y="499" on="0"/>
        <pt x="232" y="588" on="0"/>
        <pt x="312" y="650" on="0"/>
        <pt x="412" y="683" on="0"/>
        <pt x="469" y="683" on="1"/>
        <pt x="517" y="683" on="0"/>
        <pt x="611" y="665" on="0"/>
        <pt x="649" y="647" on="1"/>
        <pt x="635" y="539" on="1"/>
        <pt x="595" y="556" on="0"/>
        <pt x="517" y="578" on="0"/>
        <pt x="469" y="578" on="1"/>
        <pt x="397" y="578" on="0"/>
        <pt x="309" y="506" on="0"/>
        <pt x="290" y="443" on="1"/>
        <pt x="543" y="443" on="1"/>
        <pt x="513" y="361" on="1"/>
        <pt x="277" y="361" on="1"/>
        <pt x="277" y="354" on="0"/>
        <pt x="277" y="334" on="0"/>
        <pt x="278" y="315" on="0"/>
        <pt x="280" y="297" on="0"/>
        <pt x="282" y="292" on="1"/>
        <pt x="523" y="292" on="1"/>
        <pt x="495" y="211" on="1"/>
        <pt x="308" y="211" on="1"/>
        <pt x="359" y="122" on="0"/>
        <pt x="469" y="122" on="1"/>
        <pt x="517" y="122" on="0"/>
        <pt x="595" y="144" on="0"/>
        <pt x="635" y="161" on="1"/>
        <pt x="649" y="53" on="1"/>
        <pt x="611" y="35" on="0"/>
        <pt x="517" y="17" on="0"/>
      </contour>
    </TTGlyph>
    <TTGlyph name="F" xMin="78" yMin="0" xMax="508" yMax="700">
      <contour>
        <pt x="508" y="588" on="1"/>
        <pt x="196" y="588" on="1"/>
        <pt x="196" y="421" on="1"/>
        <pt x="437" y="421" on="1"/>
        <pt x="437" y="309" on="1"/>
        <pt x="196" y="309" on="1"/>
        <pt x="196" y="0" on="1"/>
        <pt x="78" y="0" on="1"/>
        <pt x="78" y="700" on="1"/>
        <pt x="508" y="700" on="1"/>
      </contour>
    </TTGlyph>
    <TTGlyph name="F.sc" xMin="71" yMin="0" xMax="447" yMax="574">
      <contour>
        <pt x="447" y="464" on="1"/>
        <pt x="185" y="464" on="1"/>
        <pt x="185" y="354" on="1"/>
        <pt x="387" y="354" on="1"/>
        <pt x="387" y="245" on="1"/>
        <pt x="185" y="245" on="1"/>
        <pt x="185" y="0" on="1"/>
        <pt x="71" y="0" on="1"/>
        <pt x="71" y="574" on="1"/>
        <pt x="447" y="574" on="1"/>
      </contour>
    </TTGlyph>
    <TTGlyph name="G" xMin="37" yMin="-14" xMax="619" yMax="714">
      <contour>
        <pt x="379" y="-14" on="1"/>
        <pt x="305" y="-14" on="0"/>
        <pt x="179" y="38" on="0"/>
        <pt x="88" y="134" on="0"/>
        <pt x="37" y="269" on="0"/>
        <pt x="37" y="351" on="1"/>
        <pt x="37" y="433" on="0"/>
        <pt x="89" y="567" on="0"/>
        <pt x="182" y="662" on="0"/>
        <pt x="310" y="714" on="0"/>
        <pt x="387" y="714" on="1"/>
        <pt x="412" y="714" on="0"/>
        <pt x="470" y="708" on="0"/>
        <pt x="527" y="697" on="0"/>
        <pt x="578" y="682" on="0"/>
        <pt x="596" y="673" on="1"/>
        <pt x="584" y="563" on="1"/>
        <pt x="483" y="603" on="0"/>
        <pt x="390" y="603" on="1"/>
        <pt x="334" y="603" on="0"/>
        <pt x="251" y="566" on="0"/>
        <pt x="194" y="500" on="0"/>
        <pt x="166" y="408" on="0"/>
        <pt x="166" y="352" on="1"/>
        <pt x="166" y="295" on="0"/>
        <pt x="196" y="201" on="0"/>
        <pt x="255" y="134" on="0"/>
        <pt x="342" y="97" on="0"/>
        <pt x="399" y="97" on="1"/>
        <pt x="450" y="97" on="0"/>
        <pt x="501" y="111" on="1"/>
        <pt x="501" y="251" on="1"/>
        <pt x="414" y="251" on="1"/>
        <pt x="414" y="351" on="1"/>
        <pt x="619" y="351" on="1"/>
        <pt x="619" y="39" on="1"/>
        <pt x="600" y="28" on="0"/>
        <pt x="542" y="9" on="0"/>
        <pt x="476" y="-6" on="0"/>
        <pt x="407" y="-14" on="0"/>
      </contour>
    </TTGlyph>
    <TTGlyph name="G.sc" xMin="35" yMin="-12" xMax="541" yMax="586">
      <contour>
        <pt x="333" y="-12" on="1"/>
        <pt x="268" y="-12" on="0"/>
        <pt x="159" y="32" on="0"/>
        <pt x="79" y="111" on="0"/>
        <pt x="35" y="221" on="0"/>
        <pt x="35" y="288" on="1"/>
        <pt x="35" y="355" on="0"/>
        <pt x="80" y="465" on="0"/>
        <pt x="160" y="543" on="0"/>
        <pt x="272" y="586" on="0"/>
        <pt x="338" y="586" on="1"/>
        <pt x="452" y="586" on="0"/>
        <pt x="521" y="552" on="1"/>
        <pt x="509" y="443" on="1"/>
        <pt x="426" y="477" on="0"/>
        <pt x="341" y="477" on="1"/>
        <pt x="250" y="477" on="0"/>
        <pt x="159" y="375" on="0"/>
        <pt x="159" y="290" on="1"/>
        <pt x="159" y="202" on="0"/>
        <pt x="254" y="98" on="0"/>
        <pt x="345" y="98" on="1"/>
        <pt x="361" y="98" on="0"/>
        <pt x="401" y="101" on="0"/>
        <pt x="427" y="105" on="1"/>
        <pt x="427" y="196" on="1"/>
        <pt x="363" y="196" on="1"/>
        <pt x="363" y="288" on="1"/>
        <pt x="541" y="288" on="1"/>
        <pt x="541" y="32" on="1"/>
        <pt x="525" y="23" on="0"/>
        <pt x="475" y="7" on="0"/>
        <pt x="417" y="-5" on="0"/>
        <pt x="358" y="-12" on="0"/>
      </contour>
    </TTGlyph>
    <TTGlyph name="H" xMin="78" yMin="0" xMax="664" yMax="700">
      <contour>
        <pt x="664" y="0" on="1"/>
        <pt x="546" y="0" on="1"/>
        <pt x="546" y="309" on="1"/>
        <pt x="196" y="309" on="1"/>
        <pt x="196" y="0" on="1"/>
        <pt x="78" y="0" on="1"/>
        <pt x="78" y="700" on="1"/>
        <pt x="196" y="700" on="1"/>
        <pt x="196" y="422" on="1"/>
        <pt x="546" y="422" on="1"/>
        <pt x="546" y="700" on="1"/>
        <pt x="664" y="700" on="1"/>
      </contour>
    </TTGlyph>
    <TTGlyph name="H.sc" xMin="71" yMin="0" xMax="581" yMax="574">
      <contour>
        <pt x="581" y="0" on="1"/>
        <pt x="467" y="0" on="1"/>
        <pt x="467" y="245" on="1"/>
        <pt x="185" y="245" on="1"/>
        <pt x="185" y="0" on="1"/>
        <pt x="71" y="0" on="1"/>
        <pt x="71" y="574" on="1"/>
        <pt x="185" y="574" on="1"/>
        <pt x="185" y="354" on="1"/>
        <pt x="467" y="354" on="1"/>
        <pt x="467" y="574" on="1"/>
        <pt x="581" y="574" on="1"/>
      </contour>
    </TTGlyph>
    <TTGlyph name="I" xMin="78" yMin="0" xMax="196" yMax="700">
      <contour>
        <pt x="196" y="0" on="1"/>
        <pt x="78" y="0" on="1"/>
        <pt x="78" y="700" on="1"/>
        <pt x="196" y="700" on="1"/>
      </contour>
    </TTGlyph>
    <TTGlyph name="I.sc" xMin="71" yMin="0" xMax="185" yMax="574">
      <contour>
        <pt x="185" y="0" on="1"/>
        <pt x="71" y="0" on="1"/>
        <pt x="71" y="574" on="1"/>
        <pt x="185" y="574" on="1"/>
      </contour>
    </TTGlyph>
    <TTGlyph name="Iacute" xMin="45" yMin="0" xMax="232" yMax="947">
      <component glyphName="I" x="0" y="0" flags="0x204"/>
      <component glyphName="acute" x="-13" y="203" flags="0x4"/>
    </TTGlyph>
    <TTGlyph name="Icircumflex" xMin="-9" yMin="0" xMax="285" yMax="951">
      <component glyphName="I" x="0" y="0" flags="0x204"/>
      <component glyphName="circumflex" x="-85" y="203" flags="0x4"/>
    </TTGlyph>
    <TTGlyph name="Idieresis" xMin="14" yMin="0" xMax="262" yMax="903">
      <component glyphName="I" x="0" y="0" flags="0x204"/>
      <component glyphName="dieresis" x="-73" y="203" flags="0x4"/>
    </TTGlyph>
    <TTGlyph name="Igrave" xMin="45" yMin="0" xMax="232" yMax="947">
      <component glyphName="I" x="0" y="0" flags="0x204"/>
      <component glyphName="grave" x="-13" y="203" flags="0x4"/>
    </TTGlyph>
    <TTGlyph name="J" xMin="-8" yMin="-172" xMax="195" yMax="700">
      <contour>
        <pt x="32" y="-172" on="1"/>
        <pt x="2" y="-172" on="1"/>
        <pt x="-8" y="-88" on="1"/>
        <pt x="12" y="-88" on="1"/>
        <pt x="49" y="-88" on="0"/>
        <pt x="78" y="-46" on="0"/>
        <pt x="78" y="2" on="1"/>
        <pt x="78" y="700" on="1"/>
        <pt x="195" y="700" on="1"/>
        <pt x="195" y="-26" on="1"/>
        <pt x="195" y="-98" on="0"/>
        <pt x="111" y="-172" on="0"/>
      </contour>
    </TTGlyph>
    <TTGlyph name="J.sc" xMin="3" yMin="-141" xMax="185" yMax="574">
      <contour>
        <pt x="45" y="-141" on="1"/>
        <pt x="12" y="-141" on="1"/>
        <pt x="3" y="-53" on="1"/>
        <pt x="28" y="-53" on="1"/>
        <pt x="52" y="-53" on="0"/>
        <pt x="71" y="-26" on="0"/>
        <pt x="71" y="4" on="1"/>
        <pt x="71" y="574" on="1"/>
        <pt x="185" y="574" on="1"/>
        <pt x="185" y="-18" on="1"/>
        <pt x="185" y="-79" on="0"/>
        <pt x="111" y="-141" on="0"/>
      </contour>
    </TTGlyph>
    <TTGlyph name="K" xMin="78" yMin="0" xMax="604" yMax="700">
      <contour>
        <pt x="604" y="0" on="1"/>
        <pt x="474" y="0" on="1"/>
        <pt x="225" y="370" on="1"/>
        <pt x="474" y="700" on="1"/>
        <pt x="604" y="700" on="1"/>
        <pt x="356" y="370" on="1"/>
      </contour>
      <contour>
        <pt x="196" y="0" on="1"/>
        <pt x="78" y="0" on="1"/>
        <pt x="78" y="700" on="1"/>
        <pt x="196" y="700" on="1"/>
      </contour>
    </TTGlyph>
    <TTGlyph name="K.sc" xMin="71" yMin="0" xMax="546" yMax="574">
      <contour>
        <pt x="546" y="0" on="1"/>
        <pt x="418" y="0" on="1"/>
        <pt x="206" y="304" on="1"/>
        <pt x="418" y="574" on="1"/>
        <pt x="546" y="574" on="1"/>
        <pt x="334" y="304" on="1"/>
      </contour>
      <contour>
        <pt x="185" y="0" on="1"/>
        <pt x="71" y="0" on="1"/>
        <pt x="71" y="574" on="1"/>
        <pt x="185" y="574" on="1"/>
      </contour>
    </TTGlyph>
    <TTGlyph name="L" xMin="78" yMin="0" xMax="494" yMax="700">
      <contour>
        <pt x="494" y="0" on="1"/>
        <pt x="78" y="0" on="1"/>
        <pt x="78" y="700" on="1"/>
        <pt x="196" y="700" on="1"/>
        <pt x="196" y="112" on="1"/>
        <pt x="494" y="112" on="1"/>
      </contour>
    </TTGlyph>
    <TTGlyph name="L.sc" xMin="71" yMin="0" xMax="433" yMax="574">
      <contour>
        <pt x="433" y="0" on="1"/>
        <pt x="71" y="0" on="1"/>
        <pt x="71" y="574" on="1"/>
        <pt x="185" y="574" on="1"/>
        <pt x="185" y="110" on="1"/>
        <pt x="433" y="110" on="1"/>
      </contour>
    </TTGlyph>
    <TTGlyph name="M" xMin="45" yMin="0" xMax="781" yMax="700">
      <contour>
        <pt x="781" y="0" on="1"/>
        <pt x="658" y="0" on="1"/>
        <pt x="596" y="488" on="1"/>
        <pt x="414" y="153" on="1"/>
        <pt x="230" y="487" on="1"/>
        <pt x="168" y="0" on="1"/>
        <pt x="45" y="0" on="1"/>
        <pt x="141" y="700" on="1"/>
        <pt x="239" y="700" on="1"/>
        <pt x="414" y="372" on="1"/>
        <pt x="587" y="700" on="1"/>
        <pt x="685" y="700" on="1"/>
      </contour>
    </TTGlyph>
    <TTGlyph name="M.sc" xMin="43" yMin="0" xMax="694" yMax="574">
      <contour>
        <pt x="694" y="0" on="1"/>
        <pt x="575" y="0" on="1"/>
        <pt x="523" y="371" on="1"/>
        <pt x="368" y="116" on="1"/>
        <pt x="213" y="371" on="1"/>
        <pt x="161" y="0" on="1"/>
        <pt x="43" y="0" on="1"/>
        <pt x="127" y="574" on="1"/>
        <pt x="220" y="574" on="1"/>
        <pt x="369" y="319" on="1"/>
        <pt x="516" y="574" on="1"/>
        <pt x="609" y="574" on="1"/>
      </contour>
    </TTGlyph>
    <TTGlyph name="N" xMin="78" yMin="0" xMax="628" yMax="700">
      <contour>
        <pt x="628" y="0" on="1"/>
        <pt x="531" y="0" on="1"/>
        <pt x="196" y="503" on="1"/>
        <pt x="196" y="0" on="1"/>
        <pt x="78" y="0" on="1"/>
        <pt x="78" y="700" on="1"/>
        <pt x="197" y="700" on="1"/>
        <pt x="510" y="226" on="1"/>
        <pt x="510" y="700" on="1"/>
        <pt x="628" y="700" on="1"/>
      </contour>
    </TTGlyph>
    <TTGlyph name="N.sc" xMin="71" yMin="0" xMax="554" yMax="574">
      <contour>
        <pt x="554" y="0" on="1"/>
        <pt x="460" y="0" on="1"/>
        <pt x="185" y="378" on="1"/>
        <pt x="185" y="0" on="1"/>
        <pt x="71" y="0" on="1"/>
        <pt x="71" y="574" on="1"/>
        <pt x="182" y="574" on="1"/>
        <pt x="440" y="219" on="1"/>
        <pt x="440" y="574" on="1"/>
        <pt x="554" y="574" on="1"/>
      </contour>
    </TTGlyph>
    <TTGlyph name="Ntilde" xMin="78" yMin="0" xMax="628" yMax="918">
      <component glyphName="N" x="0" y="0" flags="0x204"/>
      <component glyphName="tilde" x="88" y="203" flags="0x4"/>
    </TTGlyph>
    <TTGlyph name="O" xMin="37" yMin="-14" xMax="727" yMax="714">
      <contour>
        <pt x="630" y="86" on="1"/>
        <pt x="534" y="-14" on="0"/>
        <pt x="382" y="-14" on="1"/>
        <pt x="307" y="-14" on="0"/>
        <pt x="180" y="38" on="0"/>
        <pt x="88" y="134" on="0"/>
        <pt x="37" y="268" on="0"/>
        <pt x="37" y="350" on="1"/>
        <pt x="37" y="432" on="0"/>
        <pt x="88" y="566" on="0"/>
        <pt x="180" y="662" on="0"/>
        <pt x="307" y="714" on="0"/>
        <pt x="382" y="714" on="1"/>
        <pt x="458" y="714" on="0"/>
        <pt x="584" y="661" on="0"/>
        <pt x="676" y="565" on="0"/>
        <pt x="727" y="431" on="0"/>
        <pt x="727" y="350" on="1"/>
        <pt x="727" y="186" on="0"/>
      </contour>
      <contour>
        <pt x="542" y="533" on="1"/>
        <pt x="487" y="603" on="0"/>
        <pt x="382" y="603" on="1"/>
        <pt x="329" y="603" on="0"/>
        <pt x="249" y="566" on="0"/>
        <pt x="194" y="498" on="0"/>
        <pt x="166" y="405" on="0"/>
        <pt x="166" y="350" on="1"/>
        <pt x="166" y="294" on="0"/>
        <pt x="194" y="202" on="0"/>
        <pt x="249" y="134" on="0"/>
        <pt x="329" y="97" on="0"/>
        <pt x="382" y="97" on="1"/>
        <pt x="434" y="97" on="0"/>
        <pt x="515" y="134" on="0"/>
        <pt x="570" y="202" on="0"/>
        <pt x="598" y="294" on="0"/>
        <pt x="598" y="350" on="1"/>
        <pt x="598" y="462" on="0"/>
      </contour>
    </TTGlyph>
    <TTGlyph name="O.sc" xMin="35" yMin="-12" xMax="635" yMax="586">
      <contour>
        <pt x="35" y="288" on="1"/>
        <pt x="35" y="354" on="0"/>
        <pt x="80" y="464" on="0"/>
        <pt x="159" y="542" on="0"/>
        <pt x="269" y="586" on="0"/>
        <pt x="335" y="586" on="1"/>
        <pt x="400" y="586" on="0"/>
        <pt x="510" y="542" on="0"/>
        <pt x="590" y="464" on="0"/>
        <pt x="635" y="354" on="0"/>
        <pt x="635" y="288" on="1"/>
        <pt x="635" y="220" on="0"/>
        <pt x="591" y="110" on="0"/>
        <pt x="511" y="31" on="0"/>
        <pt x="401" y="-12" on="0"/>
        <pt x="335" y="-12" on="1"/>
        <pt x="269" y="-12" on="0"/>
        <pt x="159" y="31" on="0"/>
        <pt x="79" y="110" on="0"/>
        <pt x="35" y="220" on="0"/>
      </contour>
      <contour>
        <pt x="510" y="288" on="1"/>
        <pt x="510" y="375" on="0"/>
        <pt x="420" y="477" on="0"/>
        <pt x="335" y="477" on="1"/>
        <pt x="250" y="477" on="0"/>
        <pt x="159" y="375" on="0"/>
        <pt x="159" y="288" on="1"/>
        <pt x="159" y="201" on="0"/>
        <pt x="250" y="98" on="0"/>
        <pt x="335" y="98" on="1"/>
        <pt x="420" y="98" on="0"/>
        <pt x="510" y="200" on="0"/>
      </contour>
    </TTGlyph>
    <TTGlyph name="OE" xMin="37" yMin="-14" xMax="1031" yMax="714">
      <contour>
        <pt x="1031" y="0" on="1"/>
        <pt x="603" y="0" on="1"/>
        <pt x="603" y="64" on="1"/>
        <pt x="501" y="-14" on="0"/>
        <pt x="380" y="-14" on="1"/>
        <pt x="304" y="-14" on="0"/>
        <pt x="178" y="39" on="0"/>
        <pt x="87" y="135" on="0"/>
        <pt x="37" y="269" on="0"/>
        <pt x="37" y="350" on="1"/>
        <pt x="37" y="431" on="0"/>
        <pt x="87" y="565" on="0"/>
        <pt x="178" y="661" on="0"/>
        <pt x="304" y="714" on="0"/>
        <pt x="380" y="714" on="1"/>
        <pt x="501" y="714" on="0"/>
        <pt x="603" y="636" on="1"/>
        <pt x="603" y="700" on="1"/>
        <pt x="1022" y="700" on="1"/>
        <pt x="1022" y="588" on="1"/>
        <pt x="722" y="588" on="1"/>
        <pt x="722" y="421" on="1"/>
        <pt x="953" y="421" on="1"/>
        <pt x="953" y="309" on="1"/>
        <pt x="722" y="309" on="1"/>
        <pt x="722" y="112" on="1"/>
        <pt x="1031" y="112" on="1"/>
      </contour>
      <contour>
        <pt x="539" y="533" on="1"/>
        <pt x="484" y="603" on="0"/>
        <pt x="380" y="603" on="1"/>
        <pt x="327" y="603" on="0"/>
        <pt x="247" y="566" on="0"/>
        <pt x="193" y="498" on="0"/>
        <pt x="165" y="405" on="0"/>
        <pt x="165" y="350" on="1"/>
        <pt x="165" y="294" on="0"/>
        <pt x="193" y="201" on="0"/>
        <pt x="247" y="134" on="0"/>
        <pt x="327" y="97" on="0"/>
        <pt x="380" y="97" on="1"/>
        <pt x="432" y="97" on="0"/>
        <pt x="512" y="134" on="0"/>
        <pt x="567" y="202" on="0"/>
        <pt x="595" y="294" on="0"/>
        <pt x="595" y="350" on="1"/>
        <pt x="595" y="462" on="0"/>
      </contour>
    </TTGlyph>
    <TTGlyph name="OE.sc" xMin="35" yMin="-12" xMax="900" yMax="586">
      <contour>
        <pt x="900" y="0" on="1"/>
        <pt x="519" y="0" on="1"/>
        <pt x="519" y="39" on="1"/>
        <pt x="436" y="-12" on="0"/>
        <pt x="336" y="-12" on="1"/>
        <pt x="270" y="-12" on="0"/>
        <pt x="160" y="31" on="0"/>
        <pt x="80" y="110" on="0"/>
        <pt x="35" y="221" on="0"/>
        <pt x="35" y="288" on="1"/>
        <pt x="35" y="355" on="0"/>
        <pt x="80" y="465" on="0"/>
        <pt x="160" y="543" on="0"/>
        <pt x="271" y="586" on="0"/>
        <pt x="336" y="586" on="1"/>
        <pt x="436" y="586" on="0"/>
        <pt x="519" y="536" on="1"/>
        <pt x="519" y="574" on="1"/>
        <pt x="892" y="574" on="1"/>
        <pt x="892" y="464" on="1"/>
        <pt x="636" y="464" on="1"/>
        <pt x="636" y="354" on="1"/>
        <pt x="833" y="354" on="1"/>
        <pt x="833" y="245" on="1"/>
        <pt x="636" y="245" on="1"/>
        <pt x="636" y="110" on="1"/>
        <pt x="900" y="110" on="1"/>
      </contour>
      <contour>
        <pt x="159" y="288" on="1"/>
        <pt x="159" y="200" on="0"/>
        <pt x="249" y="98" on="0"/>
        <pt x="336" y="98" on="1"/>
        <pt x="421" y="98" on="0"/>
        <pt x="512" y="201" on="0"/>
        <pt x="512" y="288" on="1"/>
        <pt x="512" y="373" on="0"/>
        <pt x="421" y="477" on="0"/>
        <pt x="336" y="477" on="1"/>
        <pt x="251" y="477" on="0"/>
        <pt x="159" y="373" on="0"/>
      </contour>
    </TTGlyph>
    <TTGlyph name="Oacute" xMin="37" yMin="-14" xMax="727" yMax="947">
      <component glyphName="O" x="0" y="0" flags="0x204"/>
      <component glyphName="acute" x="230" y="203" flags="0x4"/>
    </TTGlyph>
    <TTGlyph name="Ocircumflex" xMin="37" yMin="-14" xMax="727" yMax="951">
      <component glyphName="O" x="0" y="0" flags="0x204"/>
      <component glyphName="circumflex" x="159" y="203" flags="0x4"/>
    </TTGlyph>
    <TTGlyph name="Odieresis" xMin="37" yMin="-14" xMax="727" yMax="903">
      <component glyphName="O" x="0" y="0" flags="0x204"/>
      <component glyphName="dieresis" x="171" y="203" flags="0x4"/>
    </TTGlyph>
    <TTGlyph name="Ograve" xMin="37" yMin="-14" xMax="727" yMax="947">
      <component glyphName="O" x="0" y="0" flags="0x204"/>
      <component glyphName="grave" x="230" y="203" flags="0x4"/>
    </TTGlyph>
    <TTGlyph name="Oslash" xMin="37" yMin="-31" xMax="727" yMax="716">
      <contour>
        <pt x="382" y="-13" on="1"/>
        <pt x="294" y="-13" on="0"/>
        <pt x="216" y="25" on="1"/>
        <pt x="178" y="-31" on="1"/>
        <pt x="57" y="-31" on="1"/>
        <pt x="135" y="83" on="1"/>
        <pt x="37" y="190" on="0"/>
        <pt x="37" y="350" on="1"/>
        <pt x="37" y="432" on="0"/>
        <pt x="88" y="566" on="0"/>
        <pt x="180" y="662" on="0"/>
        <pt x="307" y="714" on="0"/>
        <pt x="382" y="714" on="1"/>
        <pt x="466" y="714" on="0"/>
        <pt x="543" y="678" on="1"/>
        <pt x="570" y="716" on="1"/>
        <pt x="691" y="716" on="1"/>
        <pt x="624" y="619" on="1"/>
        <pt x="727" y="516" on="0"/>
        <pt x="727" y="350" on="1"/>
        <pt x="727" y="269" on="0"/>
        <pt x="676" y="135" on="0"/>
        <pt x="584" y="40" on="0"/>
        <pt x="458" y="-13" on="0"/>
      </contour>
      <contour>
        <pt x="553" y="516" on="1"/>
        <pt x="282" y="119" on="1"/>
        <pt x="330" y="99" on="0"/>
        <pt x="382" y="99" on="1"/>
        <pt x="434" y="99" on="0"/>
        <pt x="515" y="136" on="0"/>
        <pt x="569" y="203" on="0"/>
        <pt x="597" y="296" on="0"/>
        <pt x="597" y="351" on="1"/>
        <pt x="597" y="454" on="0"/>
      </contour>
      <contour>
        <pt x="382" y="602" on="1"/>
        <pt x="330" y="602" on="0"/>
        <pt x="250" y="565" on="0"/>
        <pt x="195" y="499" on="0"/>
        <pt x="167" y="406" on="0"/>
        <pt x="167" y="350" on="1"/>
        <pt x="167" y="259" on="0"/>
        <pt x="208" y="188" on="1"/>
        <pt x="477" y="582" on="1"/>
        <pt x="426" y="602" on="0"/>
      </contour>
    </TTGlyph>
    <TTGlyph name="Otilde" xMin="37" yMin="-14" xMax="727" yMax="918">
      <component glyphName="O" x="0" y="0" flags="0x204"/>
      <component glyphName="tilde" x="118" y="203" flags="0x4"/>
    </TTGlyph>
    <TTGlyph name="P" xMin="78" yMin="0" xMax="567" yMax="700">
      <contour>
        <pt x="331" y="235" on="1"/>
        <pt x="197" y="235" on="1"/>
        <pt x="197" y="0" on="1"/>
        <pt x="78" y="0" on="1"/>
        <pt x="78" y="700" on="1"/>
        <pt x="284" y="700" on="1"/>
        <pt x="351" y="700" on="0"/>
        <pt x="456" y="684" on="0"/>
        <pt x="529" y="636" on="0"/>
        <pt x="567" y="549" on="0"/>
        <pt x="567" y="479" on="1"/>
        <pt x="567" y="408" on="0"/>
        <pt x="523" y="315" on="0"/>
        <pt x="454" y="258" on="0"/>
        <pt x="370" y="235" on="0"/>
      </contour>
      <contour>
        <pt x="303" y="600" on="1"/>
        <pt x="197" y="600" on="1"/>
        <pt x="197" y="344" on="1"/>
        <pt x="313" y="344" on="1"/>
        <pt x="385" y="344" on="0"/>
        <pt x="446" y="405" on="0"/>
        <pt x="446" y="477" on="1"/>
        <pt x="446" y="510" on="0"/>
        <pt x="432" y="557" on="0"/>
        <pt x="399" y="587" on="0"/>
        <pt x="344" y="600" on="0"/>
      </contour>
    </TTGlyph>
    <TTGlyph name="P.sc" xMin="71" yMin="0" xMax="507" yMax="574">
      <contour>
        <pt x="292" y="185" on="1"/>
        <pt x="185" y="185" on="1"/>
        <pt x="185" y="0" on="1"/>
        <pt x="71" y="0" on="1"/>
        <pt x="71" y="574" on="1"/>
        <pt x="241" y="574" on="1"/>
        <pt x="307" y="574" on="0"/>
        <pt x="406" y="561" on="0"/>
        <pt x="473" y="522" on="0"/>
        <pt x="507" y="450" on="0"/>
        <pt x="507" y="392" on="1"/>
        <pt x="507" y="330" on="0"/>
        <pt x="466" y="250" on="0"/>
        <pt x="403" y="204" on="0"/>
        <pt x="327" y="185" on="0"/>
      </contour>
      <contour>
        <pt x="276" y="482" on="1"/>
        <pt x="185" y="482" on="1"/>
        <pt x="185" y="291" on="1"/>
        <pt x="277" y="291" on="1"/>
        <pt x="340" y="291" on="0"/>
        <pt x="392" y="334" on="0"/>
        <pt x="392" y="391" on="1"/>
        <pt x="392" y="440" on="0"/>
        <pt x="343" y="482" on="0"/>
      </contour>
    </TTGlyph>
    <TTGlyph name="Q" xMin="37" yMin="-14" xMax="727" yMax="714">
      <contour>
        <pt x="723" y="74" on="1"/>
        <pt x="656" y="-6" on="1"/>
        <pt x="588" y="50" on="1"/>
        <pt x="500" y="-14" on="0"/>
        <pt x="382" y="-14" on="1"/>
        <pt x="307" y="-14" on="0"/>
        <pt x="180" y="38" on="0"/>
        <pt x="88" y="134" on="0"/>
        <pt x="37" y="268" on="0"/>
        <pt x="37" y="350" on="1"/>
        <pt x="37" y="432" on="0"/>
        <pt x="88" y="566" on="0"/>
        <pt x="180" y="662" on="0"/>
        <pt x="307" y="714" on="0"/>
        <pt x="382" y="714" on="1"/>
        <pt x="458" y="714" on="0"/>
        <pt x="584" y="661" on="0"/>
        <pt x="676" y="565" on="0"/>
        <pt x="727" y="431" on="0"/>
        <pt x="727" y="350" on="1"/>
        <pt x="727" y="221" on="0"/>
        <pt x="661" y="124" on="1"/>
      </contour>
      <contour>
        <pt x="382" y="603" on="1"/>
        <pt x="329" y="603" on="0"/>
        <pt x="249" y="566" on="0"/>
        <pt x="194" y="498" on="0"/>
        <pt x="166" y="405" on="0"/>
        <pt x="166" y="350" on="1"/>
        <pt x="166" y="294" on="0"/>
        <pt x="194" y="202" on="0"/>
        <pt x="249" y="134" on="0"/>
        <pt x="329" y="97" on="0"/>
        <pt x="382" y="97" on="1"/>
        <pt x="451" y="97" on="0"/>
        <pt x="498" y="126" on="1"/>
        <pt x="408" y="201" on="1"/>
        <pt x="474" y="281" on="1"/>
        <pt x="568" y="201" on="1"/>
        <pt x="601" y="261" on="0"/>
        <pt x="601" y="350" on="1"/>
        <pt x="601" y="405" on="0"/>
        <pt x="572" y="498" on="0"/>
        <pt x="517" y="566" on="0"/>
        <pt x="435" y="603" on="0"/>
      </contour>
    </TTGlyph>
    <TTGlyph name="Q.sc" xMin="35" yMin="-12" xMax="637" yMax="586">
      <contour>
        <pt x="637" y="68" on="1"/>
        <pt x="570" y="-11" on="1"/>
        <pt x="510" y="37" on="1"/>
        <pt x="439" y="-12" on="0"/>
        <pt x="335" y="-12" on="1"/>
        <pt x="269" y="-12" on="0"/>
        <pt x="159" y="31" on="0"/>
        <pt x="79" y="110" on="0"/>
        <pt x="35" y="220" on="0"/>
        <pt x="35" y="288" on="1"/>
        <pt x="35" y="354" on="0"/>
        <pt x="80" y="464" on="0"/>
        <pt x="159" y="542" on="0"/>
        <pt x="269" y="586" on="0"/>
        <pt x="335" y="586" on="1"/>
        <pt x="400" y="586" on="0"/>
        <pt x="510" y="542" on="0"/>
        <pt x="590" y="464" on="0"/>
        <pt x="635" y="354" on="0"/>
        <pt x="635" y="288" on="1"/>
        <pt x="635" y="184" on="0"/>
        <pt x="582" y="111" on="1"/>
      </contour>
      <contour>
        <pt x="159" y="288" on="1"/>
        <pt x="159" y="200" on="0"/>
        <pt x="250" y="98" on="0"/>
        <pt x="335" y="98" on="1"/>
        <pt x="380" y="98" on="0"/>
        <pt x="418" y="113" on="1"/>
        <pt x="346" y="168" on="1"/>
        <pt x="413" y="247" on="1"/>
        <pt x="488" y="191" on="1"/>
        <pt x="510" y="228" on="0"/>
        <pt x="510" y="288" on="1"/>
        <pt x="510" y="375" on="0"/>
        <pt x="420" y="477" on="0"/>
        <pt x="335" y="477" on="1"/>
        <pt x="250" y="477" on="0"/>
        <pt x="159" y="375" on="0"/>
      </contour>
    </TTGlyph>
    <TTGlyph name="R" xMin="78" yMin="0" xMax="604" yMax="700">
      <contour>
        <pt x="604" y="0" on="1"/>
        <pt x="481" y="0" on="1"/>
        <pt x="333" y="264" on="1"/>
        <pt x="197" y="264" on="1"/>
        <pt x="197" y="0" on="1"/>
        <pt x="78" y="0" on="1"/>
        <pt x="78" y="700" on="1"/>
        <pt x="325" y="700" on="1"/>
        <pt x="566" y="700" on="0"/>
        <pt x="566" y="497" on="1"/>
        <pt x="566" y="364" on="0"/>
        <pt x="445" y="295" on="1"/>
      </contour>
      <contour>
        <pt x="305" y="602" on="1"/>
        <pt x="197" y="602" on="1"/>
        <pt x="197" y="375" on="1"/>
        <pt x="309" y="375" on="1"/>
        <pt x="443" y="375" on="0"/>
        <pt x="443" y="491" on="1"/>
        <pt x="443" y="546" on="0"/>
        <pt x="380" y="602" on="0"/>
      </contour>
    </TTGlyph>
    <TTGlyph name="R.sc" xMin="71" yMin="0" xMax="540" yMax="574">
      <contour>
        <pt x="540" y="0" on="1"/>
        <pt x="422" y="0" on="1"/>
        <pt x="297" y="211" on="1"/>
        <pt x="185" y="211" on="1"/>
        <pt x="185" y="0" on="1"/>
        <pt x="71" y="0" on="1"/>
        <pt x="71" y="574" on="1"/>
        <pt x="297" y="574" on="1"/>
        <pt x="506" y="574" on="0"/>
        <pt x="506" y="410" on="1"/>
        <pt x="506" y="346" on="0"/>
        <pt x="454" y="271" on="0"/>
        <pt x="403" y="240" on="1"/>
      </contour>
      <contour>
        <pt x="269" y="480" on="1"/>
        <pt x="185" y="480" on="1"/>
        <pt x="185" y="315" on="1"/>
        <pt x="262" y="315" on="1"/>
        <pt x="298" y="315" on="0"/>
        <pt x="347" y="327" on="0"/>
        <pt x="375" y="349" on="0"/>
        <pt x="387" y="380" on="0"/>
        <pt x="387" y="400" on="1"/>
        <pt x="387" y="441" on="0"/>
        <pt x="338" y="480" on="0"/>
      </contour>
    </TTGlyph>
    <TTGlyph name="S" xMin="39" yMin="-14" xMax="552" yMax="714">
      <contour>
        <pt x="280" y="-14" on="1"/>
        <pt x="205" y="-14" on="0"/>
        <pt x="83" y="14" on="0"/>
        <pt x="49" y="35" on="1"/>
        <pt x="64" y="170" on="1"/>
        <pt x="98" y="139" on="0"/>
        <pt x="211" y="97" on="0"/>
        <pt x="283" y="97" on="1"/>
        <pt x="421" y="97" on="0"/>
        <pt x="421" y="183" on="1"/>
        <pt x="421" y="215" on="0"/>
        <pt x="382" y="260" on="0"/>
        <pt x="328" y="290" on="0"/>
        <pt x="271" y="307" on="0"/>
        <pt x="253" y="313" on="1"/>
        <pt x="214" y="325" on="0"/>
        <pt x="137" y="353" on="0"/>
        <pt x="76" y="395" on="0"/>
        <pt x="39" y="458" on="0"/>
        <pt x="39" y="506" on="1"/>
        <pt x="39" y="541" on="0"/>
        <pt x="65" y="615" on="0"/>
        <pt x="124" y="675" on="0"/>
        <pt x="221" y="714" on="0"/>
        <pt x="292" y="714" on="1"/>
        <pt x="324" y="714" on="0"/>
        <pt x="390" y="705" on="0"/>
        <pt x="450" y="690" on="0"/>
        <pt x="499" y="671" on="0"/>
        <pt x="514" y="662" on="1"/>
        <pt x="502" y="540" on="1"/>
        <pt x="383" y="603" on="0"/>
        <pt x="298" y="603" on="1"/>
        <pt x="272" y="603" on="0"/>
        <pt x="223" y="594" on="0"/>
        <pt x="185" y="574" on="0"/>
        <pt x="161" y="542" on="0"/>
        <pt x="161" y="520" on="1"/>
        <pt x="161" y="489" on="0"/>
        <pt x="200" y="453" on="0"/>
        <pt x="269" y="426" on="0"/>
        <pt x="363" y="398" on="0"/>
        <pt x="418" y="374" on="1"/>
        <pt x="439" y="366" on="0"/>
        <pt x="486" y="337" on="0"/>
        <pt x="526" y="294" on="0"/>
        <pt x="552" y="236" on="0"/>
        <pt x="552" y="198" on="1"/>
        <pt x="552" y="168" on="0"/>
        <pt x="537" y="94" on="0"/>
        <pt x="482" y="29" on="0"/>
        <pt x="374" y="-14" on="0"/>
      </contour>
    </TTGlyph>
    <TTGlyph name="S.sc" xMin="39" yMin="-12" xMax="485" yMax="586">
      <contour>
        <pt x="250" y="-12" on="1"/>
        <pt x="114" y="-12" on="0"/>
        <pt x="47" y="31" on="1"/>
        <pt x="60" y="159" on="1"/>
        <pt x="124" y="98" on="0"/>
        <pt x="253" y="98" on="1"/>
        <pt x="358" y="98" on="0"/>
        <pt x="358" y="153" on="1"/>
        <pt x="354" y="184" on="0"/>
        <pt x="309" y="220" on="0"/>
        <pt x="260" y="237" on="1"/>
        <pt x="164" y="269" on="1"/>
        <pt x="118" y="290" on="1"/>
        <pt x="80" y="310" on="0"/>
        <pt x="43" y="364" on="0"/>
        <pt x="39" y="412" on="1"/>
        <pt x="39" y="445" on="0"/>
        <pt x="65" y="508" on="0"/>
        <pt x="119" y="557" on="0"/>
        <pt x="202" y="586" on="0"/>
        <pt x="259" y="586" on="1"/>
        <pt x="287" y="586" on="0"/>
        <pt x="346" y="577" on="0"/>
        <pt x="398" y="564" on="0"/>
        <pt x="440" y="547" on="0"/>
        <pt x="453" y="540" on="1"/>
        <pt x="442" y="426" on="1"/>
        <pt x="345" y="478" on="0"/>
        <pt x="263" y="478" on="1"/>
        <pt x="154" y="478" on="0"/>
        <pt x="154" y="424" on="1"/>
        <pt x="154" y="404" on="0"/>
        <pt x="178" y="380" on="0"/>
        <pt x="223" y="360" on="0"/>
        <pt x="286" y="342" on="0"/>
        <pt x="324" y="330" on="1"/>
        <pt x="353" y="321" on="0"/>
        <pt x="410" y="294" on="0"/>
        <pt x="456" y="254" on="0"/>
        <pt x="485" y="198" on="0"/>
        <pt x="485" y="158" on="1"/>
        <pt x="485" y="133" on="0"/>
        <pt x="469" y="73" on="0"/>
        <pt x="419" y="22" on="0"/>
        <pt x="326" y="-12" on="0"/>
      </contour>
    </TTGlyph>
    <TTGlyph name="Scaron" xMin="39" yMin="-14" xMax="552" yMax="950">
      <component glyphName="S" x="0" y="0" flags="0x204"/>
      <component glyphName="caron" x="68" y="203" flags="0x4"/>
    </TTGlyph>
    <TTGlyph name="T" xMin="18" yMin="0" xMax="536" yMax="700">
      <contour>
        <pt x="536" y="588" on="1"/>
        <pt x="336" y="588" on="1"/>
        <pt x="336" y="0" on="1"/>
        <pt x="218" y="0" on="1"/>
        <pt x="218" y="588" on="1"/>
        <pt x="18" y="588" on="1"/>
        <pt x="18" y="700" on="1"/>
        <pt x="536" y="700" on="1"/>
      </contour>
    </TTGlyph>
    <TTGlyph name="T.sc" xMin="17" yMin="0" xMax="475" yMax="574">
      <contour>
        <pt x="475" y="464" on="1"/>
        <pt x="304" y="464" on="1"/>
        <pt x="304" y="0" on="1"/>
        <pt x="189" y="0" on="1"/>
        <pt x="189" y="464" on="1"/>
        <pt x="17" y="464" on="1"/>
        <pt x="17" y="574" on="1"/>
        <pt x="475" y="574" on="1"/>
      </contour>
    </TTGlyph>
    <TTGlyph name="Thorn" xMin="78" yMin="0" xMax="567" yMax="700">
      <contour>
        <pt x="197" y="117" on="1"/>
        <pt x="197" y="0" on="1"/>
        <pt x="78" y="0" on="1"/>
        <pt x="78" y="700" on="1"/>
        <pt x="197" y="700" on="1"/>
        <pt x="197" y="583" on="1"/>
        <pt x="284" y="583" on="1"/>
        <pt x="349" y="583" on="0"/>
        <pt x="454" y="568" on="0"/>
        <pt x="527" y="521" on="0"/>
        <pt x="567" y="434" on="0"/>
        <pt x="567" y="362" on="1"/>
        <pt x="567" y="289" on="0"/>
        <pt x="521" y="194" on="0"/>
        <pt x="450" y="139" on="0"/>
        <pt x="367" y="117" on="0"/>
        <pt x="331" y="117" on="1"/>
      </contour>
      <contour>
        <pt x="197" y="483" on="1"/>
        <pt x="197" y="227" on="1"/>
        <pt x="313" y="227" on="1"/>
        <pt x="385" y="227" on="0"/>
        <pt x="446" y="288" on="0"/>
        <pt x="446" y="360" on="1"/>
        <pt x="446" y="392" on="0"/>
        <pt x="433" y="439" on="0"/>
        <pt x="400" y="469" on="0"/>
        <pt x="345" y="483" on="0"/>
        <pt x="303" y="483" on="1"/>
      </contour>
    </TTGlyph>
    <TTGlyph name="U" xMin="70" yMin="-14" xMax="650" yMax="700">
      <contour>
        <pt x="70" y="299" on="1"/>
        <pt x="70" y="700" on="1"/>
        <pt x="188" y="700" on="1"/>
        <pt x="188" y="343" on="1"/>
        <pt x="188" y="291" on="0"/>
        <pt x="202" y="201" on="0"/>
        <pt x="240" y="135" on="0"/>
        <pt x="307" y="97" on="0"/>
        <pt x="360" y="97" on="1"/>
        <pt x="413" y="97" on="0"/>
        <pt x="480" y="135" on="0"/>
        <pt x="518" y="202" on="0"/>
        <pt x="532" y="292" on="0"/>
        <pt x="532" y="343" on="1"/>
        <pt x="532" y="700" on="1"/>
        <pt x="650" y="700" on="1"/>
        <pt x="650" y="299" on="1"/>
        <pt x="650" y="152" on="0"/>
        <pt x="504" y="-14" on="0"/>
        <pt x="360" y="-14" on="1"/>
        <pt x="216" y="-14" on="0"/>
        <pt x="70" y="152" on="0"/>
      </contour>
    </TTGlyph>
    <TTGlyph name="U.sc" xMin="65" yMin="-12" xMax="570" yMax="574">
      <contour>
        <pt x="65" y="247" on="1"/>
        <pt x="65" y="574" on="1"/>
        <pt x="179" y="574" on="1"/>
        <pt x="179" y="282" on="1"/>
        <pt x="179" y="237" on="0"/>
        <pt x="192" y="168" on="0"/>
        <pt x="224" y="122" on="0"/>
        <pt x="277" y="98" on="0"/>
        <pt x="318" y="98" on="1"/>
        <pt x="358" y="98" on="0"/>
        <pt x="411" y="122" on="0"/>
        <pt x="443" y="168" on="0"/>
        <pt x="456" y="237" on="0"/>
        <pt x="456" y="282" on="1"/>
        <pt x="456" y="574" on="1"/>
        <pt x="570" y="574" on="1"/>
        <pt x="570" y="247" on="1"/>
        <pt x="570" y="127" on="0"/>
        <pt x="443" y="-12" on="0"/>
        <pt x="318" y="-12" on="1"/>
        <pt x="193" y="-12" on="0"/>
        <pt x="65" y="127" on="0"/>
      </contour>
    </TTGlyph>
    <TTGlyph name="Uacute" xMin="70" yMin="-14" xMax="650" yMax="947">
      <component glyphName="U" x="0" y="0" flags="0x204"/>
      <component glyphName="acute" x="208" y="203" flags="0x4"/>
    </TTGlyph>
    <TTGlyph name="Ucircumflex" xMin="70" yMin="-14" xMax="650" yMax="951">
      <component glyphName="U" x="0" y="0" flags="0x204"/>
      <component glyphName="circumflex" x="137" y="203" flags="0x4"/>
    </TTGlyph>
    <TTGlyph name="Udieresis" xMin="70" yMin="-14" xMax="650" yMax="903">
      <component glyphName="U" x="0" y="0" flags="0x204"/>
      <component glyphName="dieresis" x="149" y="203" flags="0x4"/>
    </TTGlyph>
    <TTGlyph name="Ugrave" xMin="70" yMin="-14" xMax="650" yMax="947">
      <component glyphName="U" x="0" y="0" flags="0x204"/>
      <component glyphName="grave" x="208" y="203" flags="0x4"/>
    </TTGlyph>
    <TTGlyph name="V" xMin="2" yMin="0" xMax="651" yMax="700">
      <contour>
        <pt x="651" y="700" on="1"/>
        <pt x="398" y="0" on="1"/>
        <pt x="259" y="0" on="1"/>
        <pt x="2" y="700" on="1"/>
        <pt x="125" y="700" on="1"/>
        <pt x="328" y="150" on="1"/>
        <pt x="528" y="700" on="1"/>
      </contour>
    </TTGlyph>
    <TTGlyph name="V.sc" xMin="2" yMin="0" xMax="573" yMax="574">
      <contour>
        <pt x="573" y="574" on="1"/>
        <pt x="360" y="0" on="1"/>
        <pt x="221" y="0" on="1"/>
        <pt x="2" y="574" on="1"/>
        <pt x="121" y="574" on="1"/>
        <pt x="290" y="152" on="1"/>
        <pt x="456" y="574" on="1"/>
      </contour>
    </TTGlyph>
    <TTGlyph name="W" xMin="12" yMin="0" xMax="959" yMax="700">
      <contour>
        <pt x="959" y="700" on="1"/>
        <pt x="754" y="0" on="1"/>
        <pt x="643" y="0" on="1"/>
        <pt x="485" y="500" on="1"/>
        <pt x="325" y="0" on="1"/>
        <pt x="209" y="0" on="1"/>
        <pt x="12" y="700" on="1"/>
        <pt x="135" y="700" on="1"/>
        <pt x="279" y="173" on="1"/>
        <pt x="441" y="696" on="1"/>
        <pt x="529" y="696" on="1"/>
        <pt x="696" y="183" on="1"/>
        <pt x="836" y="700" on="1"/>
      </contour>
    </TTGlyph>
    <TTGlyph name="W.sc" xMin="13" yMin="0" xMax="837" yMax="577">
      <contour>
        <pt x="837" y="574" on="1"/>
        <pt x="659" y="0" on="1"/>
        <pt x="560" y="0" on="1"/>
        <pt x="425" y="360" on="1"/>
        <pt x="291" y="0" on="1"/>
        <pt x="185" y="0" on="1"/>
        <pt x="13" y="574" on="1"/>
        <pt x="131" y="574" on="1"/>
        <pt x="252" y="187" on="1"/>
        <pt x="386" y="577" on="1"/>
        <pt x="463" y="577" on="1"/>
        <pt x="604" y="200" on="1"/>
        <pt x="719" y="574" on="1"/>
      </contour>
    </TTGlyph>
    <TTGlyph name="X" xMin="3" yMin="0" xMax="619" yMax="700">
      <contour>
        <pt x="619" y="0" on="1"/>
        <pt x="486" y="0" on="1"/>
        <pt x="306" y="266" on="1"/>
        <pt x="135" y="0" on="1"/>
        <pt x="3" y="0" on="1"/>
        <pt x="246" y="349" on="1"/>
        <pt x="10" y="700" on="1"/>
        <pt x="146" y="700" on="1"/>
        <pt x="314" y="446" on="1"/>
        <pt x="476" y="700" on="1"/>
        <pt x="609" y="700" on="1"/>
        <pt x="373" y="362" on="1"/>
      </contour>
    </TTGlyph>
    <TTGlyph name="X.sc" xMin="5" yMin="0" xMax="557" yMax="574">
      <contour>
        <pt x="557" y="0" on="1"/>
        <pt x="424" y="0" on="1"/>
        <pt x="279" y="204" on="1"/>
        <pt x="136" y="0" on="1"/>
        <pt x="5" y="0" on="1"/>
        <pt x="221" y="287" on="1"/>
        <pt x="15" y="574" on="1"/>
        <pt x="147" y="574" on="1"/>
        <pt x="286" y="378" on="1"/>
        <pt x="412" y="574" on="1"/>
        <pt x="543" y="574" on="1"/>
        <pt x="345" y="298" on="1"/>
      </contour>
    </TTGlyph>
    <TTGlyph name="Y" xMin="-6" yMin="0" xMax="594" yMax="700">
      <contour>
        <pt x="594" y="700" on="1"/>
        <pt x="354" y="314" on="1"/>
        <pt x="354" y="0" on="1"/>
        <pt x="235" y="0" on="1"/>
        <pt x="235" y="314" on="1"/>
        <pt x="-6" y="700" on="1"/>
        <pt x="119" y="700" on="1"/>
        <pt x="294" y="419" on="1"/>
        <pt x="469" y="700" on="1"/>
      </contour>
    </TTGlyph>
    <TTGlyph name="Y.sc" xMin="-6" yMin="0" xMax="530" yMax="574">
      <contour>
        <pt x="530" y="574" on="1"/>
        <pt x="318" y="251" on="1"/>
        <pt x="318" y="0" on="1"/>
        <pt x="205" y="0" on="1"/>
        <pt x="205" y="251" on="1"/>
        <pt x="-6" y="574" on="1"/>
        <pt x="115" y="574" on="1"/>
        <pt x="262" y="352" on="1"/>
        <pt x="409" y="574" on="1"/>
      </contour>
    </TTGlyph>
    <TTGlyph name="Yacute" xMin="-6" yMin="0" xMax="594" yMax="947">
      <component glyphName="Y" x="0" y="0" flags="0x204"/>
      <component glyphName="acute" x="146" y="203" flags="0x4"/>
    </TTGlyph>
    <TTGlyph name="Ydieresis" xMin="-6" yMin="0" xMax="594" yMax="903">
      <component glyphName="Y" x="0" y="0" flags="0x204"/>
      <component glyphName="dieresis" x="87" y="203" flags="0x4"/>
    </TTGlyph>
    <TTGlyph name="Z" xMin="9" yMin="0" xMax="542" yMax="700">
      <contour>
        <pt x="542" y="700" on="1"/>
        <pt x="203" y="112" on="1"/>
        <pt x="497" y="112" on="1"/>
        <pt x="497" y="0" on="1"/>
        <pt x="9" y="0" on="1"/>
        <pt x="348" y="588" on="1"/>
        <pt x="54" y="588" on="1"/>
        <pt x="54" y="700" on="1"/>
      </contour>
    </TTGlyph>
    <TTGlyph name="Z.sc" xMin="13" yMin="0" xMax="477" yMax="574">
      <contour>
        <pt x="477" y="574" on="1"/>
        <pt x="201" y="110" on="1"/>
        <pt x="438" y="110" on="1"/>
        <pt x="438" y="0" on="1"/>
        <pt x="13" y="0" on="1"/>
        <pt x="289" y="464" on="1"/>
        <pt x="52" y="464" on="1"/>
        <pt x="52" y="574" on="1"/>
      </contour>
    </TTGlyph>
    <TTGlyph name="Zcaron" xMin="9" yMin="0" xMax="542" yMax="950">
      <component glyphName="Z" x="0" y="0" flags="0x204"/>
      <component glyphName="caron" x="54" y="203" flags="0x4"/>
    </TTGlyph>
    <TTGlyph name="a" xMin="22" yMin="-10" xMax="482" yMax="506">
      <contour>
        <pt x="482" y="83" on="1"/>
        <pt x="471" y="-10" on="1"/>
        <pt x="437" y="-10" on="1"/>
        <pt x="353" y="-10" on="0"/>
        <pt x="321" y="52" on="1"/>
        <pt x="267" y="-10" on="0"/>
        <pt x="169" y="-10" on="1"/>
        <pt x="137" y="-10" on="0"/>
        <pt x="83" y="11" on="0"/>
        <pt x="44" y="50" on="0"/>
        <pt x="22" y="105" on="0"/>
        <pt x="22" y="138" on="1"/>
        <pt x="22" y="189" on="0"/>
        <pt x="81" y="256" on="0"/>
        <pt x="167" y="297" on="0"/>
        <pt x="266" y="314" on="0"/>
        <pt x="307" y="315" on="1"/>
        <pt x="306" y="366" on="0"/>
        <pt x="262" y="407" on="0"/>
        <pt x="211" y="407" on="1"/>
        <pt x="150" y="407" on="0"/>
        <pt x="77" y="367" on="1"/>
        <pt x="65" y="459" on="1"/>
        <pt x="151" y="506" on="0"/>
        <pt x="242" y="506" on="1"/>
        <pt x="332" y="506" on="0"/>
        <pt x="421" y="407" on="0"/>
        <pt x="421" y="294" on="1"/>
        <pt x="421" y="170" on="1"/>
        <pt x="421" y="142" on="0"/>
        <pt x="424" y="108" on="0"/>
        <pt x="434" y="89" on="0"/>
        <pt x="453" y="83" on="0"/>
        <pt x="469" y="83" on="1"/>
      </contour>
      <contour>
        <pt x="307" y="123" on="1"/>
        <pt x="307" y="238" on="1"/>
        <pt x="232" y="235" on="0"/>
        <pt x="140" y="188" on="0"/>
        <pt x="140" y="143" on="1"/>
        <pt x="140" y="78" on="0"/>
        <pt x="210" y="78" on="1"/>
        <pt x="234" y="78" on="0"/>
        <pt x="288" y="102" on="0"/>
      </contour>
    </TTGlyph>
    <TTGlyph name="aacute" xMin="22" yMin="-10" xMax="482" yMax="744">
      <component glyphName="a" x="0" y="0" flags="0x204"/>
      <component glyphName="acute" x="94" y="0" flags="0x4"/>
    </TTGlyph>
    <TTGlyph name="acircumflex" xMin="22" yMin="-10" xMax="482" yMax="748">
      <component glyphName="a" x="0" y="0" flags="0x204"/>
      <component glyphName="circumflex" x="24" y="0" flags="0x4"/>
    </TTGlyph>
    <TTGlyph name="acute" xMin="58" yMin="588" xMax="245" yMax="744">
      <contour>
        <pt x="245" y="650" on="1"/>
        <pt x="58" y="588" on="1"/>
        <pt x="58" y="652" on="1"/>
        <pt x="245" y="744" on="1"/>
      </contour>
    </TTGlyph>
    <TTGlyph name="adieresis" xMin="22" yMin="-10" xMax="482" yMax="700">
      <component glyphName="a" x="0" y="0" flags="0x204"/>
      <component glyphName="dieresis" x="36" y="0" flags="0x4"/>
    </TTGlyph>
    <TTGlyph name="ae" xMin="22" yMin="-15" xMax="768" yMax="506">
      <contour>
        <pt x="761" y="230" on="1"/>
        <pt x="438" y="230" on="1"/>
        <pt x="445" y="157" on="0"/>
        <pt x="528" y="83" on="0"/>
        <pt x="588" y="83" on="1"/>
        <pt x="656" y="83" on="0"/>
        <pt x="736" y="122" on="1"/>
        <pt x="745" y="29" on="1"/>
        <pt x="668" y="-10" on="0"/>
        <pt x="580" y="-10" on="1"/>
        <pt x="432" y="-10" on="0"/>
        <pt x="380" y="90" on="1"/>
        <pt x="312" y="-15" on="0"/>
        <pt x="182" y="-15" on="1"/>
        <pt x="104" y="-15" on="0"/>
        <pt x="22" y="58" on="0"/>
        <pt x="22" y="124" on="1"/>
        <pt x="22" y="164" on="0"/>
        <pt x="51" y="222" on="0"/>
        <pt x="99" y="262" on="0"/>
        <pt x="160" y="288" on="0"/>
        <pt x="224" y="304" on="0"/>
        <pt x="286" y="311" on="0"/>
        <pt x="310" y="312" on="1"/>
        <pt x="305" y="363" on="0"/>
        <pt x="261" y="407" on="0"/>
        <pt x="211" y="407" on="1"/>
        <pt x="153" y="407" on="0"/>
        <pt x="78" y="372" on="1"/>
        <pt x="68" y="463" on="1"/>
        <pt x="158" y="506" on="0"/>
        <pt x="241" y="506" on="1"/>
        <pt x="366" y="506" on="0"/>
        <pt x="395" y="407" on="1"/>
        <pt x="402" y="428" on="0"/>
        <pt x="437" y="465" on="0"/>
        <pt x="484" y="491" on="0"/>
        <pt x="542" y="506" on="0"/>
        <pt x="572" y="506" on="1"/>
        <pt x="616" y="506" on="0"/>
        <pt x="688" y="476" on="0"/>
        <pt x="740" y="421" on="0"/>
        <pt x="768" y="343" on="0"/>
        <pt x="768" y="295" on="1"/>
        <pt x="768" y="265" on="0"/>
      </contour>
      <contour>
        <pt x="568" y="410" on="1"/>
        <pt x="520" y="410" on="0"/>
        <pt x="454" y="356" on="0"/>
        <pt x="443" y="307" on="1"/>
        <pt x="665" y="307" on="1"/>
        <pt x="665" y="352" on="0"/>
        <pt x="617" y="410" on="0"/>
      </contour>
      <contour>
        <pt x="318" y="235" on="1"/>
        <pt x="289" y="234" on="0"/>
        <pt x="227" y="223" on="0"/>
        <pt x="174" y="199" on="0"/>
        <pt x="140" y="162" on="0"/>
        <pt x="140" y="134" on="1"/>
        <pt x="140" y="106" on="0"/>
        <pt x="177" y="75" on="0"/>
        <pt x="206" y="75" on="1"/>
        <pt x="227" y="75" on="0"/>
        <pt x="268" y="92" on="0"/>
        <pt x="300" y="124" on="0"/>
        <pt x="319" y="171" on="0"/>
        <pt x="319" y="201" on="1"/>
        <pt x="319" y="211" on="0"/>
        <pt x="319" y="228" on="0"/>
      </contour>
    </TTGlyph>
    <TTGlyph name="agrave" xMin="22" yMin="-10" xMax="482" yMax="744">
      <component glyphName="a" x="0" y="0" flags="0x204"/>
      <component glyphName="grave" x="94" y="0" flags="0x4"/>
    </TTGlyph>
    <TTGlyph name="ampersand" xMin="33" yMin="-24" xMax="614" yMax="703">
      <contour>
        <pt x="614" y="0" on="1"/>
        <pt x="486" y="0" on="1"/>
        <pt x="451" y="38" on="1"/>
        <pt x="377" y="-24" on="0"/>
        <pt x="266" y="-24" on="1"/>
        <pt x="208" y="-24" on="0"/>
        <pt x="121" y="5" on="0"/>
        <pt x="62" y="56" on="0"/>
        <pt x="33" y="125" on="0"/>
        <pt x="33" y="166" on="1"/>
        <pt x="33" y="275" on="0"/>
        <pt x="156" y="367" on="1"/>
        <pt x="81" y="460" on="0"/>
        <pt x="81" y="537" on="1"/>
        <pt x="81" y="575" on="0"/>
        <pt x="113" y="637" on="0"/>
        <pt x="169" y="680" on="0"/>
        <pt x="241" y="703" on="0"/>
        <pt x="282" y="703" on="1"/>
        <pt x="357" y="703" on="0"/>
        <pt x="436" y="628" on="0"/>
        <pt x="436" y="565" on="1"/>
        <pt x="436" y="535" on="0"/>
        <pt x="416" y="483" on="0"/>
        <pt x="378" y="436" on="0"/>
        <pt x="323" y="390" on="0"/>
        <pt x="287" y="366" on="1"/>
        <pt x="442" y="195" on="1"/>
        <pt x="459" y="245" on="0"/>
        <pt x="462" y="352" on="1"/>
        <pt x="569" y="352" on="1"/>
        <pt x="566" y="207" on="0"/>
        <pt x="515" y="114" on="1"/>
      </contour>
      <contour>
        <pt x="274" y="613" on="1"/>
        <pt x="237" y="613" on="0"/>
        <pt x="190" y="572" on="0"/>
        <pt x="190" y="533" on="1"/>
        <pt x="190" y="485" on="0"/>
        <pt x="239" y="424" on="1"/>
        <pt x="290" y="462" on="0"/>
        <pt x="337" y="515" on="0"/>
        <pt x="337" y="550" on="1"/>
        <pt x="337" y="613" on="0"/>
      </contour>
      <contour>
        <pt x="394" y="105" on="1"/>
        <pt x="210" y="304" on="1"/>
        <pt x="149" y="249" on="0"/>
        <pt x="149" y="176" on="1"/>
        <pt x="149" y="127" on="0"/>
        <pt x="209" y="63" on="0"/>
        <pt x="278" y="63" on="1"/>
        <pt x="352" y="63" on="0"/>
      </contour>
    </TTGlyph>
    <TTGlyph name="aring" xMin="22" yMin="-10" xMax="482" yMax="755">
      <component glyphName="a" x="0" y="0" flags="0x204"/>
      <component glyphName="ring" x="101" y="0" flags="0x4"/>
    </TTGlyph>
    <TTGlyph name="asciicircum" xMin="49" yMin="412" xMax="461" yMax="759">
      <contour>
        <pt x="461" y="412" on="1"/>
        <pt x="255" y="625" on="1"/>
        <pt x="49" y="412" on="1"/>
        <pt x="49" y="546" on="1"/>
        <pt x="255" y="759" on="1"/>
        <pt x="461" y="546" on="1"/>
      </contour>
    </TTGlyph>
    <TTGlyph name="asciitilde" xMin="48" yMin="174" xMax="415" yMax="293">
      <contour>
        <pt x="300" y="177" on="1"/>
        <pt x="289" y="177" on="0"/>
        <pt x="251" y="191" on="0"/>
        <pt x="211" y="208" on="0"/>
        <pt x="178" y="222" on="0"/>
        <pt x="172" y="222" on="1"/>
        <pt x="131" y="222" on="0"/>
        <pt x="116" y="174" on="1"/>
        <pt x="48" y="191" on="1"/>
        <pt x="55" y="237" on="0"/>
        <pt x="124" y="289" on="0"/>
        <pt x="166" y="289" on="1"/>
        <pt x="178" y="289" on="0"/>
        <pt x="216" y="275" on="0"/>
        <pt x="253" y="259" on="0"/>
        <pt x="285" y="245" on="0"/>
        <pt x="291" y="245" on="1"/>
        <pt x="313" y="245" on="0"/>
        <pt x="345" y="273" on="0"/>
        <pt x="352" y="293" on="1"/>
        <pt x="415" y="276" on="1"/>
        <pt x="406" y="234" on="0"/>
        <pt x="345" y="177" on="0"/>
      </contour>
    </TTGlyph>
    <TTGlyph name="asterisk" xMin="33" yMin="414" xMax="409" yMax="749">
      <contour>
        <pt x="312" y="417" on="1"/>
        <pt x="222" y="552" on="1"/>
        <pt x="132" y="414" on="1"/>
        <pt x="76" y="468" on="1"/>
        <pt x="193" y="567" on="1"/>
        <pt x="33" y="624" on="1"/>
        <pt x="72" y="693" on="1"/>
        <pt x="210" y="592" on="1"/>
        <pt x="182" y="749" on="1"/>
        <pt x="261" y="749" on="1"/>
        <pt x="231" y="592" on="1"/>
        <pt x="370" y="693" on="1"/>
        <pt x="409" y="623" on="1"/>
        <pt x="251" y="569" on="1"/>
        <pt x="368" y="471" on="1"/>
      </contour>
    </TTGlyph>
    <TTGlyph name="at" xMin="46" yMin="-87" xMax="672" yMax="553">
      <contour>
        <pt x="542" y="379" on="1"/>
        <pt x="491" y="432" on="0"/>
        <pt x="420" y="432" on="1"/>
        <pt x="374" y="432" on="0"/>
        <pt x="283" y="382" on="0"/>
        <pt x="211" y="303" on="0"/>
        <pt x="166" y="202" on="0"/>
        <pt x="166" y="151" on="1"/>
        <pt x="166" y="103" on="0"/>
        <pt x="210" y="40" on="0"/>
        <pt x="261" y="40" on="1"/>
        <pt x="282" y="40" on="0"/>
        <pt x="332" y="57" on="0"/>
        <pt x="380" y="88" on="0"/>
        <pt x="423" y="130" on="0"/>
        <pt x="437" y="156" on="1"/>
        <pt x="437" y="155" on="0"/>
        <pt x="436" y="146" on="0"/>
        <pt x="435" y="136" on="0"/>
        <pt x="434" y="126" on="0"/>
        <pt x="434" y="125" on="1"/>
        <pt x="434" y="93" on="0"/>
        <pt x="460" y="42" on="0"/>
        <pt x="489" y="42" on="1"/>
        <pt x="504" y="42" on="0"/>
        <pt x="540" y="53" on="0"/>
        <pt x="576" y="71" on="0"/>
        <pt x="610" y="94" on="0"/>
        <pt x="622" y="106" on="1"/>
        <pt x="598" y="63" on="0"/>
        <pt x="528" y="-8" on="0"/>
        <pt x="442" y="-59" on="0"/>
        <pt x="345" y="-87" on="0"/>
        <pt x="294" y="-87" on="1"/>
        <pt x="237" y="-87" on="0"/>
        <pt x="145" y="-52" on="0"/>
        <pt x="80" y="14" on="0"/>
        <pt x="46" y="110" on="0"/>
        <pt x="46" y="170" on="1"/>
        <pt x="46" y="250" on="0"/>
        <pt x="106" y="390" on="0"/>
        <pt x="210" y="493" on="0"/>
        <pt x="346" y="553" on="0"/>
        <pt x="423" y="553" on="1"/>
        <pt x="481" y="553" on="0"/>
        <pt x="574" y="517" on="0"/>
        <pt x="638" y="451" on="0"/>
        <pt x="672" y="357" on="0"/>
        <pt x="672" y="299" on="1"/>
        <pt x="672" y="273" on="0"/>
        <pt x="667" y="217" on="0"/>
        <pt x="651" y="166" on="0"/>
        <pt x="618" y="124" on="0"/>
        <pt x="590" y="111" on="1"/>
        <pt x="551" y="94" on="0"/>
        <pt x="524" y="94" on="1"/>
        <pt x="487" y="94" on="0"/>
        <pt x="487" y="147" on="1"/>
        <pt x="487" y="160" on="0"/>
        <pt x="497" y="208" on="0"/>
        <pt x="513" y="269" on="0"/>
        <pt x="532" y="341" on="0"/>
      </contour>
      <contour>
        <pt x="421" y="371" on="1"/>
        <pt x="468" y="371" on="0"/>
        <pt x="475" y="349" on="1"/>
        <pt x="469" y="310" on="0"/>
        <pt x="428" y="225" on="0"/>
        <pt x="374" y="153" on="0"/>
        <pt x="315" y="106" on="0"/>
        <pt x="290" y="106" on="1"/>
        <pt x="268" y="106" on="0"/>
        <pt x="246" y="142" on="0"/>
        <pt x="246" y="170" on="1"/>
        <pt x="246" y="209" on="0"/>
        <pt x="280" y="282" on="0"/>
        <pt x="333" y="337" on="0"/>
        <pt x="394" y="371" on="0"/>
      </contour>
    </TTGlyph>
    <TTGlyph name="atilde" xMin="22" yMin="-10" xMax="482" yMax="715">
      <component glyphName="a" x="0" y="0" flags="0x204"/>
      <component glyphName="tilde" x="-20" y="0" flags="0x4"/>
    </TTGlyph>
    <TTGlyph name="b" xMin="60" yMin="-10" xMax="539" yMax="750">
      <contour>
        <pt x="301" y="-10" on="1"/>
        <pt x="224" y="-10" on="0"/>
        <pt x="169" y="39" on="1"/>
        <pt x="165" y="0" on="1"/>
        <pt x="60" y="0" on="1"/>
        <pt x="60" y="750" on="1"/>
        <pt x="173" y="750" on="1"/>
        <pt x="173" y="463" on="1"/>
        <pt x="222" y="506" on="0"/>
        <pt x="301" y="506" on="1"/>
        <pt x="355" y="506" on="0"/>
        <pt x="443" y="466" on="0"/>
        <pt x="505" y="397" on="0"/>
        <pt x="539" y="302" on="0"/>
        <pt x="539" y="248" on="1"/>
        <pt x="539" y="194" on="0"/>
        <pt x="506" y="100" on="0"/>
        <pt x="444" y="30" on="0"/>
        <pt x="356" y="-10" on="0"/>
      </contour>
      <contour>
        <pt x="292" y="410" on="1"/>
        <pt x="234" y="410" on="0"/>
        <pt x="168" y="324" on="0"/>
        <pt x="168" y="248" on="1"/>
        <pt x="168" y="170" on="0"/>
        <pt x="234" y="85" on="0"/>
        <pt x="292" y="85" on="1"/>
        <pt x="352" y="85" on="0"/>
        <pt x="423" y="176" on="0"/>
        <pt x="423" y="248" on="1"/>
        <pt x="423" y="320" on="0"/>
        <pt x="353" y="410" on="0"/>
      </contour>
    </TTGlyph>
    <TTGlyph name="backslash" xMin="33" yMin="-85" xMax="524" yMax="700">
      <contour>
        <pt x="524" y="-85" on="1"/>
        <pt x="402" y="-85" on="1"/>
        <pt x="33" y="700" on="1"/>
        <pt x="155" y="700" on="1"/>
      </contour>
    </TTGlyph>
    <TTGlyph name="bar" xMin="68" yMin="-210" xMax="164" yMax="750">
      <contour>
        <pt x="164" y="-210" on="1"/>
        <pt x="68" y="-210" on="1"/>
        <pt x="68" y="750" on="1"/>
        <pt x="164" y="750" on="1"/>
      </contour>
    </TTGlyph>
    <TTGlyph name="braceleft" xMin="17" yMin="-136" xMax="305" yMax="750">
      <contour>
        <pt x="88" y="24" on="1"/>
        <pt x="88" y="31" on="0"/>
        <pt x="90" y="70" on="0"/>
        <pt x="93" y="115" on="0"/>
        <pt x="96" y="155" on="0"/>
        <pt x="96" y="164" on="1"/>
        <pt x="96" y="218" on="0"/>
        <pt x="62" y="282" on="0"/>
        <pt x="17" y="307" on="1"/>
        <pt x="39" y="319" on="0"/>
        <pt x="69" y="346" on="0"/>
        <pt x="88" y="380" on="0"/>
        <pt x="96" y="423" on="0"/>
        <pt x="96" y="451" on="1"/>
        <pt x="96" y="460" on="0"/>
        <pt x="93" y="500" on="0"/>
        <pt x="90" y="544" on="0"/>
        <pt x="88" y="583" on="0"/>
        <pt x="88" y="590" on="1"/>
        <pt x="88" y="669" on="0"/>
        <pt x="187" y="749" on="0"/>
        <pt x="305" y="750" on="1"/>
        <pt x="305" y="653" on="1"/>
        <pt x="257" y="653" on="0"/>
        <pt x="206" y="640" on="0"/>
        <pt x="182" y="606" on="0"/>
        <pt x="178" y="548" on="0"/>
        <pt x="178" y="503" on="1"/>
        <pt x="178" y="498" on="0"/>
        <pt x="179" y="474" on="0"/>
        <pt x="180" y="449" on="0"/>
        <pt x="181" y="425" on="0"/>
        <pt x="181" y="420" on="1"/>
        <pt x="181" y="383" on="0"/>
        <pt x="157" y="329" on="0"/>
        <pt x="120" y="307" on="1"/>
        <pt x="157" y="285" on="0"/>
        <pt x="181" y="238" on="0"/>
        <pt x="181" y="202" on="1"/>
        <pt x="181" y="196" on="0"/>
        <pt x="180" y="172" on="0"/>
        <pt x="179" y="144" on="0"/>
        <pt x="178" y="119" on="0"/>
        <pt x="178" y="112" on="1"/>
        <pt x="178" y="56" on="1"/>
        <pt x="178" y="30" on="0"/>
        <pt x="188" y="-7" on="0"/>
        <pt x="216" y="-29" on="0"/>
        <pt x="265" y="-39" on="0"/>
        <pt x="305" y="-39" on="1"/>
        <pt x="305" y="-136" on="1"/>
        <pt x="188" y="-135" on="0"/>
        <pt x="88" y="-57" on="0"/>
      </contour>
    </TTGlyph>
    <TTGlyph name="braceright" xMin="11" yMin="-136" xMax="299" yMax="750">
      <contour>
        <pt x="226" y="24" on="1"/>
        <pt x="226" y="-57" on="0"/>
        <pt x="127" y="-135" on="0"/>
        <pt x="11" y="-136" on="1"/>
        <pt x="11" y="-39" on="1"/>
        <pt x="57" y="-39" on="0"/>
        <pt x="108" y="-27" on="0"/>
        <pt x="132" y="6" on="0"/>
        <pt x="137" y="65" on="0"/>
        <pt x="137" y="112" on="1"/>
        <pt x="137" y="119" on="0"/>
        <pt x="136" y="144" on="0"/>
        <pt x="135" y="172" on="0"/>
        <pt x="134" y="196" on="0"/>
        <pt x="134" y="202" on="1"/>
        <pt x="134" y="238" on="0"/>
        <pt x="158" y="285" on="0"/>
        <pt x="195" y="307" on="1"/>
        <pt x="158" y="329" on="0"/>
        <pt x="134" y="383" on="0"/>
        <pt x="134" y="420" on="1"/>
        <pt x="134" y="425" on="0"/>
        <pt x="135" y="449" on="0"/>
        <pt x="136" y="474" on="0"/>
        <pt x="137" y="498" on="0"/>
        <pt x="137" y="503" on="1"/>
        <pt x="137" y="546" on="0"/>
        <pt x="134" y="604" on="0"/>
        <pt x="111" y="639" on="0"/>
        <pt x="60" y="653" on="0"/>
        <pt x="11" y="653" on="1"/>
        <pt x="11" y="750" on="1"/>
        <pt x="70" y="750" on="0"/>
        <pt x="152" y="729" on="0"/>
        <pt x="203" y="689" on="0"/>
        <pt x="226" y="629" on="0"/>
        <pt x="226" y="590" on="1"/>
        <pt x="226" y="583" on="0"/>
        <pt x="224" y="544" on="0"/>
        <pt x="222" y="500" on="0"/>
        <pt x="220" y="460" on="0"/>
        <pt x="220" y="451" on="1"/>
        <pt x="220" y="423" on="0"/>
        <pt x="228" y="380" on="0"/>
        <pt x="247" y="346" on="0"/>
        <pt x="277" y="319" on="0"/>
        <pt x="299" y="307" on="1"/>
        <pt x="254" y="282" on="0"/>
        <pt x="220" y="218" on="0"/>
        <pt x="220" y="164" on="1"/>
        <pt x="220" y="155" on="0"/>
        <pt x="222" y="115" on="0"/>
        <pt x="224" y="70" on="0"/>
        <pt x="226" y="31" on="0"/>
      </contour>
    </TTGlyph>
    <TTGlyph name="bracketleft" xMin="68" yMin="-136" xMax="325" yMax="750">
      <contour>
        <pt x="325" y="-136" on="1"/>
        <pt x="68" y="-136" on="1"/>
        <pt x="68" y="750" on="1"/>
        <pt x="325" y="750" on="1"/>
        <pt x="325" y="654" on="1"/>
        <pt x="172" y="654" on="1"/>
        <pt x="172" y="-39" on="1"/>
        <pt x="325" y="-39" on="1"/>
      </contour>
    </TTGlyph>
    <TTGlyph name="bracketright" xMin="9" yMin="-138" xMax="266" yMax="748">
      <contour>
        <pt x="9" y="748" on="1"/>
        <pt x="266" y="748" on="1"/>
        <pt x="266" y="-138" on="1"/>
        <pt x="9" y="-138" on="1"/>
        <pt x="9" y="-42" on="1"/>
        <pt x="162" y="-42" on="1"/>
        <pt x="162" y="651" on="1"/>
        <pt x="9" y="651" on="1"/>
      </contour>
    </TTGlyph>
    <TTGlyph name="brokenbar" xMin="69" yMin="-210" xMax="157" yMax="750">
      <contour>
        <pt x="157" y="291" on="1"/>
        <pt x="69" y="291" on="1"/>
        <pt x="69" y="750" on="1"/>
        <pt x="157" y="750" on="1"/>
      </contour>
      <contour>
        <pt x="157" y="-210" on="1"/>
        <pt x="69" y="-210" on="1"/>
        <pt x="69" y="182" on="1"/>
        <pt x="157" y="182" on="1"/>
      </contour>
    </TTGlyph>
    <TTGlyph name="bullet" xMin="42" yMin="169" xMax="260" yMax="387">
      <contour>
        <pt x="228" y="201" on="1"/>
        <pt x="211" y="184" on="0"/>
        <pt x="172" y="169" on="0"/>
        <pt x="151" y="169" on="1"/>
        <pt x="129" y="169" on="0"/>
        <pt x="90" y="187" on="0"/>
        <pt x="60" y="217" on="0"/>
        <pt x="42" y="256" on="0"/>
        <pt x="42" y="278" on="1"/>
        <pt x="42" y="300" on="0"/>
        <pt x="60" y="339" on="0"/>
        <pt x="90" y="369" on="0"/>
        <pt x="129" y="387" on="0"/>
        <pt x="151" y="387" on="1"/>
        <pt x="173" y="387" on="0"/>
        <pt x="212" y="369" on="0"/>
        <pt x="242" y="339" on="0"/>
        <pt x="260" y="300" on="0"/>
        <pt x="260" y="278" on="1"/>
        <pt x="260" y="257" on="0"/>
        <pt x="244" y="217" on="0"/>
      </contour>
    </TTGlyph>
    <TTGlyph name="c" xMin="30" yMin="-10" xMax="423" yMax="506">
      <contour>
        <pt x="273" y="-10" on="1"/>
        <pt x="215" y="-10" on="0"/>
        <pt x="125" y="30" on="0"/>
        <pt x="63" y="99" on="0"/>
        <pt x="30" y="193" on="0"/>
        <pt x="30" y="248" on="1"/>
        <pt x="30" y="303" on="0"/>
        <pt x="63" y="398" on="0"/>
        <pt x="125" y="467" on="0"/>
        <pt x="215" y="506" on="0"/>
        <pt x="273" y="506" on="1"/>
        <pt x="365" y="506" on="0"/>
        <pt x="423" y="471" on="1"/>
        <pt x="411" y="373" on="1"/>
        <pt x="350" y="410" on="0"/>
        <pt x="283" y="410" on="1"/>
        <pt x="217" y="410" on="0"/>
        <pt x="146" y="323" on="0"/>
        <pt x="146" y="248" on="1"/>
        <pt x="146" y="173" on="0"/>
        <pt x="217" y="85" on="0"/>
        <pt x="283" y="85" on="1"/>
        <pt x="350" y="85" on="0"/>
        <pt x="412" y="122" on="1"/>
        <pt x="423" y="27" on="1"/>
        <pt x="367" y="-10" on="0"/>
      </contour>
    </TTGlyph>
    <TTGlyph name="caron" xMin="76" yMin="590" xMax="370" yMax="747">
      <contour>
        <pt x="370" y="683" on="1"/>
        <pt x="223" y="590" on="1"/>
        <pt x="76" y="683" on="1"/>
        <pt x="76" y="747" on="1"/>
        <pt x="223" y="674" on="1"/>
        <pt x="370" y="747" on="1"/>
      </contour>
    </TTGlyph>
    <TTGlyph name="ccaron" xMin="30" yMin="-10" xMax="427" yMax="747">
      <component glyphName="c" x="0" y="0" flags="0x204"/>
      <component glyphName="caron" x="57" y="0" flags="0x4"/>
    </TTGlyph>
    <TTGlyph name="ccedilla" xMin="30" yMin="-193" xMax="423" yMax="506">
      <component glyphName="c" x="0" y="0" flags="0x204"/>
      <component glyphName="cedilla" x="41" y="0" flags="0x4"/>
    </TTGlyph>
    <TTGlyph name="cedilla" xMin="134" yMin="-193" xMax="295" yMax="-53">
      <contour>
        <pt x="295" y="-53" on="1"/>
        <pt x="199" y="-186" on="1"/>
        <pt x="134" y="-193" on="1"/>
        <pt x="203" y="-61" on="1"/>
      </contour>
    </TTGlyph>
    <TTGlyph name="cent" xMin="33" yMin="-32" xMax="426" yMax="748">
      <contour>
        <pt x="321" y="-32" on="1"/>
        <pt x="220" y="-32" on="1"/>
        <pt x="236" y="90" on="1"/>
        <pt x="188" y="97" on="0"/>
        <pt x="113" y="141" on="0"/>
        <pt x="61" y="209" on="0"/>
        <pt x="33" y="297" on="0"/>
        <pt x="33" y="347" on="1"/>
        <pt x="33" y="396" on="0"/>
        <pt x="60" y="483" on="0"/>
        <pt x="112" y="552" on="0"/>
        <pt x="187" y="598" on="0"/>
        <pt x="236" y="605" on="1"/>
        <pt x="220" y="748" on="1"/>
        <pt x="321" y="748" on="1"/>
        <pt x="305" y="607" on="1"/>
        <pt x="350" y="604" on="0"/>
        <pt x="403" y="586" on="0"/>
        <pt x="426" y="572" on="1"/>
        <pt x="416" y="475" on="1"/>
        <pt x="354" y="513" on="0"/>
        <pt x="292" y="513" on="1"/>
        <pt x="257" y="513" on="0"/>
        <pt x="204" y="488" on="0"/>
        <pt x="168" y="444" on="0"/>
        <pt x="150" y="384" on="0"/>
        <pt x="150" y="348" on="1"/>
        <pt x="150" y="274" on="0"/>
        <pt x="223" y="183" on="0"/>
        <pt x="292" y="183" on="1"/>
        <pt x="354" y="183" on="0"/>
        <pt x="416" y="221" on="1"/>
        <pt x="426" y="124" on="1"/>
        <pt x="406" y="111" on="0"/>
        <pt x="354" y="91" on="0"/>
        <pt x="309" y="88" on="1"/>
      </contour>
    </TTGlyph>
    <TTGlyph name="circumflex" xMin="76" yMin="591" xMax="370" yMax="748">
      <contour>
        <pt x="370" y="591" on="1"/>
        <pt x="223" y="665" on="1"/>
        <pt x="76" y="591" on="1"/>
        <pt x="76" y="653" on="1"/>
        <pt x="223" y="748" on="1"/>
        <pt x="370" y="653" on="1"/>
      </contour>
    </TTGlyph>
    <TTGlyph name="colon" xMin="55" yMin="0" xMax="169" yMax="440">
      <contour>
        <pt x="169" y="324" on="1"/>
        <pt x="55" y="324" on="1"/>
        <pt x="55" y="440" on="1"/>
        <pt x="169" y="440" on="1"/>
      </contour>
      <contour>
        <pt x="169" y="0" on="1"/>
        <pt x="55" y="0" on="1"/>
        <pt x="55" y="116" on="1"/>
        <pt x="169" y="116" on="1"/>
      </contour>
    </TTGlyph>
    <TTGlyph name="comma" xMin="55" yMin="-110" xMax="172" yMax="116">
      <contour>
        <pt x="172" y="0" on="1"/>
        <pt x="80" y="-110" on="1"/>
        <pt x="55" y="-96" on="1"/>
        <pt x="88" y="-10" on="1"/>
        <pt x="55" y="0" on="1"/>
        <pt x="55" y="116" on="1"/>
        <pt x="172" y="116" on="1"/>
      </contour>
    </TTGlyph>
    <TTGlyph name="copyright" xMin="40" yMin="37" xMax="661" yMax="693">
      <contour>
        <pt x="40" y="365" on="1"/>
        <pt x="40" y="439" on="0"/>
        <pt x="87" y="560" on="0"/>
        <pt x="170" y="646" on="0"/>
        <pt x="284" y="693" on="0"/>
        <pt x="351" y="693" on="1"/>
        <pt x="418" y="693" on="0"/>
        <pt x="532" y="645" on="0"/>
        <pt x="615" y="559" on="0"/>
        <pt x="661" y="438" on="0"/>
        <pt x="661" y="365" on="1"/>
        <pt x="661" y="292" on="0"/>
        <pt x="615" y="172" on="0"/>
        <pt x="533" y="85" on="0"/>
        <pt x="419" y="37" on="0"/>
        <pt x="351" y="37" on="1"/>
        <pt x="283" y="37" on="0"/>
        <pt x="169" y="85" on="0"/>
        <pt x="86" y="172" on="0"/>
        <pt x="40" y="292" on="0"/>
      </contour>
      <contour>
        <pt x="530" y="557" on="1"/>
        <pt x="468" y="631" on="0"/>
        <pt x="351" y="631" on="1"/>
        <pt x="292" y="631" on="0"/>
        <pt x="202" y="592" on="0"/>
        <pt x="141" y="522" on="0"/>
        <pt x="109" y="424" on="0"/>
        <pt x="109" y="365" on="1"/>
        <pt x="109" y="306" on="0"/>
        <pt x="140" y="207" on="0"/>
        <pt x="202" y="137" on="0"/>
        <pt x="292" y="98" on="0"/>
        <pt x="351" y="98" on="1"/>
        <pt x="410" y="98" on="0"/>
        <pt x="500" y="137" on="0"/>
        <pt x="561" y="208" on="0"/>
        <pt x="592" y="306" on="0"/>
        <pt x="592" y="365" on="1"/>
        <pt x="592" y="483" on="0"/>
      </contour>
      <contour>
        <pt x="359" y="192" on="1"/>
        <pt x="323" y="192" on="0"/>
        <pt x="264" y="216" on="0"/>
        <pt x="221" y="261" on="0"/>
        <pt x="197" y="324" on="0"/>
        <pt x="197" y="363" on="1"/>
        <pt x="197" y="402" on="0"/>
        <pt x="222" y="465" on="0"/>
        <pt x="265" y="510" on="0"/>
        <pt x="324" y="535" on="0"/>
        <pt x="359" y="535" on="1"/>
        <pt x="410" y="535" on="0"/>
        <pt x="458" y="513" on="1"/>
        <pt x="449" y="436" on="1"/>
        <pt x="395" y="458" on="0"/>
        <pt x="359" y="458" on="1"/>
        <pt x="322" y="458" on="0"/>
        <pt x="281" y="408" on="0"/>
        <pt x="281" y="363" on="1"/>
        <pt x="281" y="320" on="0"/>
        <pt x="322" y="268" on="0"/>
        <pt x="359" y="268" on="1"/>
        <pt x="398" y="268" on="0"/>
        <pt x="449" y="292" on="1"/>
        <pt x="458" y="216" on="1"/>
        <pt x="414" y="192" on="0"/>
      </contour>
    </TTGlyph>
    <TTGlyph name="currency" xMin="59" yMin="22" xMax="572" yMax="674">
      <contour>
        <pt x="572" y="64" on="1"/>
        <pt x="522" y="22" on="1"/>
        <pt x="446" y="122" on="1"/>
        <pt x="385" y="91" on="0"/>
        <pt x="315" y="91" on="1"/>
        <pt x="281" y="91" on="0"/>
        <pt x="214" y="106" on="0"/>
        <pt x="184" y="122" on="1"/>
        <pt x="109" y="22" on="1"/>
        <pt x="59" y="64" on="1"/>
        <pt x="132" y="163" on="1"/>
        <pt x="62" y="236" on="0"/>
        <pt x="62" y="348" on="1"/>
        <pt x="62" y="459" on="0"/>
        <pt x="133" y="533" on="1"/>
        <pt x="59" y="632" on="1"/>
        <pt x="109" y="674" on="1"/>
        <pt x="184" y="574" on="1"/>
        <pt x="247" y="605" on="0"/>
        <pt x="315" y="605" on="1"/>
        <pt x="384" y="605" on="0"/>
        <pt x="446" y="573" on="1"/>
        <pt x="522" y="674" on="1"/>
        <pt x="572" y="632" on="1"/>
        <pt x="498" y="532" on="1"/>
        <pt x="568" y="459" on="0"/>
        <pt x="568" y="348" on="1"/>
        <pt x="568" y="239" on="0"/>
        <pt x="497" y="162" on="1"/>
      </contour>
      <contour>
        <pt x="415" y="469" on="1"/>
        <pt x="379" y="516" on="0"/>
        <pt x="315" y="516" on="1"/>
        <pt x="283" y="516" on="0"/>
        <pt x="232" y="491" on="0"/>
        <pt x="197" y="447" on="0"/>
        <pt x="178" y="385" on="0"/>
        <pt x="178" y="348" on="1"/>
        <pt x="178" y="273" on="0"/>
        <pt x="250" y="180" on="0"/>
        <pt x="315" y="180" on="1"/>
        <pt x="348" y="180" on="0"/>
        <pt x="399" y="205" on="0"/>
        <pt x="434" y="250" on="0"/>
        <pt x="452" y="311" on="0"/>
        <pt x="452" y="348" on="1"/>
        <pt x="452" y="423" on="0"/>
      </contour>
    </TTGlyph>
    <TTGlyph name="d" xMin="30" yMin="-10" xMax="509" yMax="750">
      <contour>
        <pt x="509" y="0" on="1"/>
        <pt x="403" y="0" on="1"/>
        <pt x="399" y="39" on="1"/>
        <pt x="344" y="-10" on="0"/>
        <pt x="268" y="-10" on="1"/>
        <pt x="213" y="-10" on="0"/>
        <pt x="125" y="30" on="0"/>
        <pt x="63" y="100" on="0"/>
        <pt x="30" y="194" on="0"/>
        <pt x="30" y="248" on="1"/>
        <pt x="30" y="302" on="0"/>
        <pt x="64" y="397" on="0"/>
        <pt x="126" y="466" on="0"/>
        <pt x="214" y="506" on="0"/>
        <pt x="268" y="506" on="1"/>
        <pt x="346" y="506" on="0"/>
        <pt x="395" y="463" on="1"/>
        <pt x="395" y="750" on="1"/>
        <pt x="509" y="750" on="1"/>
      </contour>
      <contour>
        <pt x="276" y="410" on="1"/>
        <pt x="216" y="410" on="0"/>
        <pt x="146" y="321" on="0"/>
        <pt x="146" y="248" on="1"/>
        <pt x="146" y="176" on="0"/>
        <pt x="216" y="85" on="0"/>
        <pt x="276" y="85" on="1"/>
        <pt x="334" y="85" on="0"/>
        <pt x="403" y="171" on="0"/>
        <pt x="403" y="247" on="1"/>
        <pt x="403" y="322" on="0"/>
        <pt x="334" y="410" on="0"/>
      </contour>
    </TTGlyph>
    <TTGlyph name="dagger" xMin="35" yMin="0" xMax="389" yMax="607">
      <contour>
        <pt x="389" y="356" on="1"/>
        <pt x="250" y="384" on="1"/>
        <pt x="282" y="255" on="1"/>
        <pt x="252" y="0" on="1"/>
        <pt x="172" y="0" on="1"/>
        <pt x="142" y="255" on="1"/>
        <pt x="174" y="384" on="1"/>
        <pt x="35" y="356" on="1"/>
        <pt x="35" y="474" on="1"/>
        <pt x="174" y="446" on="1"/>
        <pt x="143" y="607" on="1"/>
        <pt x="281" y="607" on="1"/>
        <pt x="250" y="446" on="1"/>
        <pt x="389" y="474" on="1"/>
      </contour>
    </TTGlyph>
    <TTGlyph name="daggerdbl" xMin="53" yMin="-59" xMax="407" yMax="607">
      <contour>
        <pt x="407" y="74" on="1"/>
        <pt x="268" y="101" on="1"/>
        <pt x="299" y="-59" on="1"/>
        <pt x="161" y="-59" on="1"/>
        <pt x="192" y="101" on="1"/>
        <pt x="53" y="74" on="1"/>
        <pt x="53" y="191" on="1"/>
        <pt x="193" y="163" on="1"/>
        <pt x="160" y="274" on="1"/>
        <pt x="193" y="385" on="1"/>
        <pt x="53" y="358" on="1"/>
        <pt x="53" y="475" on="1"/>
        <pt x="192" y="447" on="1"/>
        <pt x="161" y="607" on="1"/>
        <pt x="299" y="607" on="1"/>
        <pt x="268" y="447" on="1"/>
        <pt x="407" y="475" on="1"/>
        <pt x="407" y="358" on="1"/>
        <pt x="267" y="385" on="1"/>
        <pt x="300" y="274" on="1"/>
        <pt x="267" y="163" on="1"/>
        <pt x="407" y="191" on="1"/>
      </contour>
    </TTGlyph>
    <TTGlyph name="degree" xMin="32" yMin="482" xMax="297" yMax="755">
      <contour>
        <pt x="164" y="482" on="1"/>
        <pt x="134" y="482" on="0"/>
        <pt x="85" y="503" on="0"/>
        <pt x="51" y="539" on="0"/>
        <pt x="32" y="589" on="0"/>
        <pt x="32" y="618" on="1"/>
        <pt x="32" y="647" on="0"/>
        <pt x="51" y="697" on="0"/>
        <pt x="85" y="734" on="0"/>
        <pt x="134" y="755" on="0"/>
        <pt x="164" y="755" on="1"/>
        <pt x="194" y="755" on="0"/>
        <pt x="244" y="734" on="0"/>
        <pt x="278" y="697" on="0"/>
        <pt x="297" y="647" on="0"/>
        <pt x="297" y="618" on="1"/>
        <pt x="297" y="589" on="0"/>
        <pt x="278" y="539" on="0"/>
        <pt x="244" y="503" on="0"/>
        <pt x="194" y="482" on="0"/>
      </contour>
      <contour>
        <pt x="164" y="712" on="1"/>
        <pt x="131" y="712" on="0"/>
        <pt x="93" y="660" on="0"/>
        <pt x="93" y="618" on="1"/>
        <pt x="93" y="576" on="0"/>
        <pt x="131" y="525" on="0"/>
        <pt x="164" y="525" on="1"/>
        <pt x="199" y="525" on="0"/>
        <pt x="235" y="576" on="0"/>
        <pt x="235" y="618" on="1"/>
        <pt x="235" y="660" on="0"/>
        <pt x="198" y="712" on="0"/>
      </contour>
    </TTGlyph>
    <TTGlyph name="dieresis" xMin="87" yMin="596" xMax="335" yMax="700">
      <contour>
        <pt x="335" y="596" on="1"/>
        <pt x="246" y="596" on="1"/>
        <pt x="246" y="700" on="1"/>
        <pt x="335" y="700" on="1"/>
      </contour>
      <contour>
        <pt x="176" y="596" on="1"/>
        <pt x="87" y="596" on="1"/>
        <pt x="87" y="700" on="1"/>
        <pt x="176" y="700" on="1"/>
      </contour>
    </TTGlyph>
    <TTGlyph name="divide" xMin="57" yMin="20" xMax="517" yMax="534">
      <contour>
        <pt x="339" y="415" on="1"/>
        <pt x="226" y="415" on="1"/>
        <pt x="226" y="534" on="1"/>
        <pt x="339" y="534" on="1"/>
      </contour>
      <contour>
        <pt x="517" y="235" on="1"/>
        <pt x="57" y="235" on="1"/>
        <pt x="57" y="322" on="1"/>
        <pt x="517" y="322" on="1"/>
      </contour>
      <contour>
        <pt x="339" y="20" on="1"/>
        <pt x="226" y="20" on="1"/>
        <pt x="226" y="139" on="1"/>
        <pt x="339" y="139" on="1"/>
      </contour>
    </TTGlyph>
    <TTGlyph name="dollar" xMin="40" yMin="-32" xMax="485" yMax="748">
      <contour>
        <pt x="293" y="81" on="1"/>
        <pt x="309" y="-32" on="1"/>
        <pt x="208" y="-32" on="1"/>
        <pt x="224" y="80" on="1"/>
        <pt x="106" y="86" on="0"/>
        <pt x="49" y="119" on="1"/>
        <pt x="64" y="240" on="1"/>
        <pt x="132" y="179" on="0"/>
        <pt x="251" y="179" on="1"/>
        <pt x="356" y="179" on="0"/>
        <pt x="356" y="235" on="1"/>
        <pt x="356" y="262" on="0"/>
        <pt x="309" y="295" on="0"/>
        <pt x="239" y="320" on="0"/>
        <pt x="157" y="344" on="0"/>
        <pt x="87" y="379" on="0"/>
        <pt x="40" y="432" on="0"/>
        <pt x="40" y="474" on="1"/>
        <pt x="40" y="503" on="0"/>
        <pt x="61" y="556" on="0"/>
        <pt x="106" y="599" on="0"/>
        <pt x="176" y="627" on="0"/>
        <pt x="224" y="632" on="1"/>
        <pt x="208" y="748" on="1"/>
        <pt x="309" y="748" on="1"/>
        <pt x="293" y="632" on="1"/>
        <pt x="397" y="626" on="0"/>
        <pt x="453" y="594" on="1"/>
        <pt x="443" y="486" on="1"/>
        <pt x="341" y="537" on="0"/>
        <pt x="272" y="537" on="1"/>
        <pt x="157" y="537" on="0"/>
        <pt x="157" y="486" on="1"/>
        <pt x="157" y="461" on="0"/>
        <pt x="206" y="432" on="0"/>
        <pt x="278" y="410" on="0"/>
        <pt x="364" y="387" on="0"/>
        <pt x="436" y="348" on="0"/>
        <pt x="485" y="286" on="0"/>
        <pt x="485" y="236" on="1"/>
        <pt x="485" y="213" on="0"/>
        <pt x="469" y="162" on="0"/>
        <pt x="427" y="119" on="0"/>
        <pt x="352" y="86" on="0"/>
      </contour>
    </TTGlyph>
    <TTGlyph name="dotlessi" xMin="60" yMin="0" xMax="174" yMax="497">
      <contour>
        <pt x="174" y="0" on="1"/>
        <pt x="60" y="0" on="1"/>
        <pt x="60" y="497" on="1"/>
        <pt x="174" y="497" on="1"/>
      </contour>
    </TTGlyph>
    <TTGlyph name="e" xMin="29" yMin="-10" xMax="486" yMax="506">
      <contour>
        <pt x="479" y="230" on="1"/>
        <pt x="146" y="230" on="1"/>
        <pt x="156" y="155" on="0"/>
        <pt x="245" y="85" on="0"/>
        <pt x="306" y="85" on="1"/>
        <pt x="383" y="85" on="0"/>
        <pt x="456" y="122" on="1"/>
        <pt x="464" y="28" on="1"/>
        <pt x="386" y="-10" on="0"/>
        <pt x="298" y="-10" on="1"/>
        <pt x="234" y="-10" on="0"/>
        <pt x="134" y="29" on="0"/>
        <pt x="65" y="99" on="0"/>
        <pt x="29" y="193" on="0"/>
        <pt x="29" y="249" on="1"/>
        <pt x="29" y="303" on="0"/>
        <pt x="62" y="396" on="0"/>
        <pt x="125" y="466" on="0"/>
        <pt x="213" y="506" on="0"/>
        <pt x="269" y="506" on="1"/>
        <pt x="316" y="506" on="0"/>
        <pt x="395" y="475" on="0"/>
        <pt x="453" y="419" on="0"/>
        <pt x="486" y="340" on="0"/>
        <pt x="486" y="292" on="1"/>
        <pt x="486" y="280" on="0"/>
        <pt x="483" y="249" on="0"/>
      </contour>
      <contour>
        <pt x="271" y="410" on="1"/>
        <pt x="173" y="410" on="0"/>
        <pt x="151" y="307" on="1"/>
        <pt x="370" y="307" on="1"/>
        <pt x="370" y="350" on="0"/>
        <pt x="322" y="410" on="0"/>
      </contour>
    </TTGlyph>
    <TTGlyph name="eacute" xMin="29" yMin="-10" xMax="486" yMax="744">
      <component glyphName="e" x="0" y="0" flags="0x204"/>
      <component glyphName="acute" x="105" y="0" flags="0x4"/>
    </TTGlyph>
    <TTGlyph name="ecircumflex" xMin="29" yMin="-10" xMax="486" yMax="748">
      <component glyphName="e" x="0" y="0" flags="0x204"/>
      <component glyphName="circumflex" x="33" y="0" flags="0x4"/>
    </TTGlyph>
    <TTGlyph name="edieresis" xMin="29" yMin="-10" xMax="486" yMax="700">
      <component glyphName="e" x="0" y="0" flags="0x204"/>
      <component glyphName="dieresis" x="45" y="0" flags="0x4"/>
    </TTGlyph>
    <TTGlyph name="egrave" xMin="29" yMin="-10" xMax="486" yMax="744">
      <component glyphName="e" x="0" y="0" flags="0x204"/>
      <component glyphName="grave" x="105" y="0" flags="0x4"/>
    </TTGlyph>
    <TTGlyph name="eight" xMin="57" yMin="-14" xMax="547" yMax="714">
      <contour>
        <pt x="293" y="-14" on="1"/>
        <pt x="234" y="-14" on="0"/>
        <pt x="146" y="18" on="0"/>
        <pt x="87" y="72" on="0"/>
        <pt x="57" y="145" on="0"/>
        <pt x="57" y="186" on="1"/>
        <pt x="57" y="300" on="0"/>
        <pt x="173" y="377" on="1"/>
        <pt x="97" y="437" on="0"/>
        <pt x="97" y="538" on="1"/>
        <pt x="97" y="575" on="0"/>
        <pt x="120" y="640" on="0"/>
        <pt x="171" y="687" on="0"/>
        <pt x="250" y="714" on="0"/>
        <pt x="306" y="714" on="1"/>
        <pt x="359" y="714" on="0"/>
        <pt x="436" y="690" on="0"/>
        <pt x="485" y="646" on="0"/>
        <pt x="509" y="587" on="0"/>
        <pt x="509" y="553" on="1"/>
        <pt x="509" y="502" on="0"/>
        <pt x="464" y="425" on="0"/>
        <pt x="413" y="386" on="1"/>
        <pt x="547" y="330" on="0"/>
        <pt x="547" y="202" on="1"/>
        <pt x="547" y="161" on="0"/>
        <pt x="514" y="84" on="0"/>
        <pt x="450" y="23" on="0"/>
        <pt x="355" y="-14" on="0"/>
      </contour>
      <contour>
        <pt x="301" y="618" on="1"/>
        <pt x="250" y="618" on="0"/>
        <pt x="201" y="570" on="0"/>
        <pt x="201" y="528" on="1"/>
        <pt x="201" y="453" on="0"/>
        <pt x="296" y="424" on="1"/>
        <pt x="398" y="452" on="0"/>
        <pt x="398" y="535" on="1"/>
        <pt x="398" y="572" on="0"/>
        <pt x="350" y="618" on="0"/>
      </contour>
      <contour>
        <pt x="305" y="334" on="1"/>
        <pt x="249" y="324" on="0"/>
        <pt x="173" y="252" on="0"/>
        <pt x="173" y="193" on="1"/>
        <pt x="173" y="139" on="0"/>
        <pt x="239" y="83" on="0"/>
        <pt x="297" y="83" on="1"/>
        <pt x="357" y="83" on="0"/>
        <pt x="429" y="146" on="0"/>
        <pt x="429" y="200" on="1"/>
        <pt x="429" y="252" on="0"/>
        <pt x="359" y="321" on="0"/>
      </contour>
    </TTGlyph>
    <TTGlyph name="ellipsis" xMin="55" yMin="0" xMax="641" yMax="116">
      <contour>
        <pt x="169" y="0" on="1"/>
        <pt x="55" y="0" on="1"/>
        <pt x="55" y="116" on="1"/>
        <pt x="169" y="116" on="1"/>
      </contour>
      <contour>
        <pt x="405" y="0" on="1"/>
        <pt x="291" y="0" on="1"/>
        <pt x="291" y="116" on="1"/>
        <pt x="405" y="116" on="1"/>
      </contour>
      <contour>
        <pt x="641" y="0" on="1"/>
        <pt x="527" y="0" on="1"/>
        <pt x="527" y="116" on="1"/>
        <pt x="641" y="116" on="1"/>
      </contour>
    </TTGlyph>
    <TTGlyph name="emdash" xMin="55" yMin="232" xMax="535" yMax="324">
      <contour>
        <pt x="535" y="232" on="1"/>
        <pt x="55" y="232" on="1"/>
        <pt x="55" y="324" on="1"/>
        <pt x="535" y="324" on="1"/>
      </contour>
    </TTGlyph>
    <TTGlyph name="endash" xMin="55" yMin="232" xMax="443" yMax="324">
      <contour>
        <pt x="443" y="232" on="1"/>
        <pt x="55" y="232" on="1"/>
        <pt x="55" y="324" on="1"/>
        <pt x="443" y="324" on="1"/>
      </contour>
    </TTGlyph>
    <TTGlyph name="equal" xMin="64" yMin="153" xMax="434" yMax="401">
      <contour>
        <pt x="434" y="312" on="1"/>
        <pt x="64" y="312" on="1"/>
        <pt x="64" y="401" on="1"/>
        <pt x="434" y="401" on="1"/>
      </contour>
      <contour>
        <pt x="434" y="153" on="1"/>
        <pt x="64" y="153" on="1"/>
        <pt x="64" y="242" on="1"/>
        <pt x="434" y="242" on="1"/>
      </contour>
    </TTGlyph>
    <TTGlyph name="eth" xMin="21" yMin="-13" xMax="477" yMax="711">
      <contour>
        <pt x="245" y="-13" on="1"/>
        <pt x="197" y="-13" on="0"/>
        <pt x="115" y="19" on="0"/>
        <pt x="55" y="77" on="0"/>
        <pt x="21" y="157" on="0"/>
        <pt x="21" y="204" on="1"/>
        <pt x="21" y="247" on="0"/>
        <pt x="49" y="327" on="0"/>
        <pt x="103" y="389" on="0"/>
        <pt x="181" y="426" on="0"/>
        <pt x="232" y="426" on="1"/>
        <pt x="305" y="426" on="0"/>
        <pt x="355" y="382" on="1"/>
        <pt x="353" y="400" on="0"/>
        <pt x="339" y="448" on="0"/>
        <pt x="318" y="495" on="0"/>
        <pt x="294" y="535" on="0"/>
        <pt x="281" y="545" on="1"/>
        <pt x="213" y="495" on="0"/>
        <pt x="143" y="486" on="1"/>
        <pt x="107" y="554" on="1"/>
        <pt x="158" y="555" on="0"/>
        <pt x="229" y="600" on="1"/>
        <pt x="170" y="651" on="0"/>
        <pt x="110" y="651" on="1"/>
        <pt x="149" y="701" on="1"/>
        <pt x="222" y="700" on="0"/>
        <pt x="295" y="648" on="1"/>
        <pt x="329" y="679" on="0"/>
        <pt x="352" y="711" on="1"/>
        <pt x="412" y="696" on="1"/>
        <pt x="395" y="670" on="0"/>
        <pt x="360" y="624" on="0"/>
        <pt x="343" y="605" on="1"/>
        <pt x="404" y="542" on="0"/>
        <pt x="477" y="360" on="0"/>
        <pt x="477" y="258" on="1"/>
        <pt x="477" y="181" on="0"/>
        <pt x="436" y="78" on="0"/>
        <pt x="370" y="14" on="0"/>
        <pt x="287" y="-13" on="0"/>
      </contour>
      <contour>
        <pt x="246" y="333" on="1"/>
        <pt x="219" y="333" on="0"/>
        <pt x="177" y="314" on="0"/>
        <pt x="148" y="282" on="0"/>
        <pt x="133" y="240" on="0"/>
        <pt x="133" y="217" on="1"/>
        <pt x="133" y="160" on="0"/>
        <pt x="194" y="83" on="0"/>
        <pt x="248" y="83" on="1"/>
        <pt x="296" y="83" on="0"/>
        <pt x="359" y="147" on="0"/>
        <pt x="359" y="207" on="1"/>
        <pt x="359" y="267" on="0"/>
        <pt x="300" y="333" on="0"/>
      </contour>
    </TTGlyph>
    <TTGlyph name="exclam" xMin="62" yMin="0" xMax="186" yMax="750">
      <contour>
        <pt x="186" y="750" on="1"/>
        <pt x="163" y="200" on="1"/>
        <pt x="85" y="200" on="1"/>
        <pt x="62" y="750" on="1"/>
      </contour>
      <contour>
        <pt x="180" y="0" on="1"/>
        <pt x="68" y="0" on="1"/>
        <pt x="68" y="112" on="1"/>
        <pt x="180" y="112" on="1"/>
      </contour>
    </TTGlyph>
    <TTGlyph name="exclamdown" xMin="59" yMin="-250" xMax="183" yMax="500">
      <contour>
        <pt x="59" y="-250" on="1"/>
        <pt x="82" y="300" on="1"/>
        <pt x="160" y="300" on="1"/>
        <pt x="183" y="-250" on="1"/>
      </contour>
      <contour>
        <pt x="65" y="500" on="1"/>
        <pt x="177" y="500" on="1"/>
        <pt x="177" y="388" on="1"/>
        <pt x="65" y="388" on="1"/>
      </contour>
    </TTGlyph>
    <TTGlyph name="f" xMin="14" yMin="0" xMax="320" yMax="750">
      <contour>
        <pt x="320" y="405" on="1"/>
        <pt x="203" y="405" on="1"/>
        <pt x="203" y="0" on="1"/>
        <pt x="90" y="0" on="1"/>
        <pt x="90" y="405" on="1"/>
        <pt x="14" y="405" on="1"/>
        <pt x="26" y="497" on="1"/>
        <pt x="90" y="497" on="1"/>
        <pt x="90" y="617" on="1"/>
        <pt x="90" y="645" on="0"/>
        <pt x="106" y="694" on="0"/>
        <pt x="136" y="730" on="0"/>
        <pt x="180" y="750" on="0"/>
        <pt x="208" y="750" on="1"/>
        <pt x="233" y="750" on="0"/>
        <pt x="287" y="746" on="0"/>
        <pt x="317" y="742" on="1"/>
        <pt x="306" y="647" on="1"/>
        <pt x="283" y="653" on="0"/>
        <pt x="250" y="653" on="1"/>
        <pt x="235" y="653" on="0"/>
        <pt x="217" y="646" on="0"/>
        <pt x="206" y="626" on="0"/>
        <pt x="203" y="590" on="0"/>
        <pt x="203" y="562" on="1"/>
        <pt x="203" y="497" on="1"/>
        <pt x="320" y="497" on="1"/>
      </contour>
    </TTGlyph>
    <TTGlyph name="five" xMin="50" yMin="-13" xMax="488" yMax="700">
      <contour>
        <pt x="229" y="-13" on="1"/>
        <pt x="202" y="-13" on="0"/>
        <pt x="143" y="-2" on="0"/>
        <pt x="91" y="13" on="0"/>
        <pt x="54" y="30" on="0"/>
        <pt x="50" y="37" on="1"/>
        <pt x="78" y="145" on="1"/>
        <pt x="142" y="96" on="0"/>
        <pt x="226" y="96" on="1"/>
        <pt x="256" y="96" on="0"/>
        <pt x="309" y="113" on="0"/>
        <pt x="348" y="147" on="0"/>
        <pt x="371" y="196" on="0"/>
        <pt x="371" y="228" on="1"/>
        <pt x="371" y="255" on="0"/>
        <pt x="352" y="296" on="0"/>
        <pt x="309" y="325" on="0"/>
        <pt x="238" y="339" on="0"/>
        <pt x="187" y="339" on="1"/>
        <pt x="87" y="339" on="1"/>
        <pt x="130" y="700" on="1"/>
        <pt x="450" y="700" on="1"/>
        <pt x="439" y="588" on="1"/>
        <pt x="220" y="588" on="1"/>
        <pt x="202" y="439" on="1"/>
        <pt x="353" y="438" on="0"/>
        <pt x="488" y="339" on="0"/>
        <pt x="488" y="233" on="1"/>
        <pt x="488" y="176" on="0"/>
        <pt x="446" y="85" on="0"/>
        <pt x="375" y="21" on="0"/>
        <pt x="281" y="-13" on="0"/>
      </contour>
    </TTGlyph>
    <TTGlyph name="florin" xMin="-34" yMin="-242" xMax="376" yMax="714">
      <contour>
        <pt x="376" y="702" on="1"/>
        <pt x="367" y="620" on="1"/>
        <pt x="340" y="628" on="0"/>
        <pt x="324" y="628" on="1"/>
        <pt x="300" y="628" on="0"/>
        <pt x="266" y="615" on="0"/>
        <pt x="242" y="584" on="0"/>
        <pt x="226" y="534" on="0"/>
        <pt x="220" y="497" on="1"/>
        <pt x="354" y="497" on="1"/>
        <pt x="346" y="423" on="1"/>
        <pt x="208" y="423" on="1"/>
        <pt x="127" y="-84" on="1"/>
        <pt x="120" y="-125" on="0"/>
        <pt x="93" y="-185" on="0"/>
        <pt x="60" y="-224" on="0"/>
        <pt x="25" y="-242" on="0"/>
        <pt x="9" y="-242" on="1"/>
        <pt x="-16" y="-242" on="1"/>
        <pt x="-34" y="-152" on="1"/>
        <pt x="-19" y="-151" on="0"/>
        <pt x="4" y="-142" on="0"/>
        <pt x="20" y="-122" on="0"/>
        <pt x="31" y="-89" on="0"/>
        <pt x="35" y="-65" on="1"/>
        <pt x="109" y="423" on="1"/>
        <pt x="26" y="423" on="1"/>
        <pt x="34" y="497" on="1"/>
        <pt x="120" y="497" on="1"/>
        <pt x="127" y="543" on="1"/>
        <pt x="133" y="582" on="0"/>
        <pt x="166" y="646" on="0"/>
        <pt x="214" y="690" on="0"/>
        <pt x="276" y="714" on="0"/>
        <pt x="312" y="714" on="1"/>
        <pt x="343" y="714" on="0"/>
      </contour>
    </TTGlyph>
    <TTGlyph name="four" xMin="12" yMin="0" xMax="518" yMax="700">
      <contour>
        <pt x="518" y="190" on="1"/>
        <pt x="433" y="190" on="1"/>
        <pt x="433" y="0" on="1"/>
        <pt x="313" y="0" on="1"/>
        <pt x="313" y="190" on="1"/>
        <pt x="12" y="190" on="1"/>
        <pt x="334" y="700" on="1"/>
        <pt x="433" y="700" on="1"/>
        <pt x="433" y="288" on="1"/>
        <pt x="518" y="288" on="1"/>
      </contour>
      <contour>
        <pt x="313" y="288" on="1"/>
        <pt x="313" y="512" on="1"/>
        <pt x="178" y="288" on="1"/>
      </contour>
    </TTGlyph>
    <TTGlyph name="g" xMin="25" yMin="-250" xMax="500" yMax="506">
      <contour>
        <pt x="259" y="-250" on="1"/>
        <pt x="201" y="-250" on="0"/>
        <pt x="113" y="-226" on="0"/>
        <pt x="55" y="-185" on="0"/>
        <pt x="25" y="-132" on="0"/>
        <pt x="25" y="-102" on="1"/>
        <pt x="25" y="-29" on="0"/>
        <pt x="109" y="9" on="1"/>
        <pt x="62" y="35" on="0"/>
        <pt x="62" y="78" on="1"/>
        <pt x="62" y="123" on="0"/>
        <pt x="114" y="148" on="1"/>
        <pt x="35" y="203" on="0"/>
        <pt x="35" y="309" on="1"/>
        <pt x="35" y="351" on="0"/>
        <pt x="63" y="424" on="0"/>
        <pt x="115" y="476" on="0"/>
        <pt x="190" y="506" on="0"/>
        <pt x="237" y="506" on="1"/>
        <pt x="304" y="506" on="0"/>
        <pt x="354" y="474" on="1"/>
        <pt x="402" y="498" on="0"/>
        <pt x="465" y="498" on="1"/>
        <pt x="490" y="498" on="1"/>
        <pt x="481" y="425" on="1"/>
        <pt x="443" y="425" on="1"/>
        <pt x="426" y="425" on="0"/>
        <pt x="405" y="422" on="1"/>
        <pt x="440" y="373" on="0"/>
        <pt x="440" y="310" on="1"/>
        <pt x="440" y="270" on="0"/>
        <pt x="413" y="199" on="0"/>
        <pt x="361" y="145" on="0"/>
        <pt x="286" y="114" on="0"/>
        <pt x="239" y="114" on="1"/>
        <pt x="208" y="114" on="0"/>
        <pt x="181" y="120" on="1"/>
        <pt x="166" y="112" on="0"/>
        <pt x="166" y="100" on="1"/>
        <pt x="166" y="91" on="0"/>
        <pt x="179" y="79" on="0"/>
        <pt x="209" y="69" on="0"/>
        <pt x="260" y="60" on="0"/>
        <pt x="299" y="55" on="1"/>
        <pt x="332" y="50" on="0"/>
        <pt x="402" y="34" on="0"/>
        <pt x="460" y="2" on="0"/>
        <pt x="498" y="-50" on="0"/>
        <pt x="500" y="-91" on="1"/>
        <pt x="500" y="-163" on="0"/>
        <pt x="374" y="-250" on="0"/>
      </contour>
      <contour>
        <pt x="237" y="420" on="1"/>
        <pt x="189" y="420" on="0"/>
        <pt x="138" y="360" on="0"/>
        <pt x="138" y="309" on="1"/>
        <pt x="138" y="258" on="0"/>
        <pt x="190" y="198" on="0"/>
        <pt x="238" y="198" on="1"/>
        <pt x="286" y="198" on="0"/>
        <pt x="337" y="259" on="0"/>
        <pt x="337" y="310" on="1"/>
        <pt x="337" y="361" on="0"/>
        <pt x="285" y="420" on="0"/>
      </contour>
      <contour>
        <pt x="264" y="-29" on="1"/>
        <pt x="195" y="-19" on="1"/>
        <pt x="163" y="-29" on="0"/>
        <pt x="123" y="-67" on="0"/>
        <pt x="123" y="-93" on="1"/>
        <pt x="123" y="-127" on="0"/>
        <pt x="193" y="-168" on="0"/>
        <pt x="256" y="-168" on="1"/>
        <pt x="319" y="-168" on="0"/>
        <pt x="396" y="-128" on="0"/>
        <pt x="396" y="-96" on="1"/>
        <pt x="396" y="-67" on="0"/>
        <pt x="328" y="-38" on="0"/>
      </contour>
    </TTGlyph>
    <TTGlyph name="germandbls" xMin="17" yMin="-136" xMax="546" yMax="750">
      <contour>
        <pt x="324" y="-10" on="1"/>
        <pt x="310" y="-10" on="0"/>
        <pt x="283" y="-8" on="0"/>
        <pt x="267" y="-6" on="1"/>
        <pt x="267" y="85" on="1"/>
        <pt x="307" y="85" on="0"/>
        <pt x="368" y="87" on="0"/>
        <pt x="409" y="100" on="0"/>
        <pt x="430" y="127" on="0"/>
        <pt x="430" y="152" on="1"/>
        <pt x="430" y="179" on="0"/>
        <pt x="408" y="222" on="0"/>
        <pt x="375" y="258" on="0"/>
        <pt x="336" y="288" on="0"/>
        <pt x="303" y="317" on="0"/>
        <pt x="281" y="346" on="0"/>
        <pt x="281" y="363" on="1"/>
        <pt x="281" y="383" on="0"/>
        <pt x="310" y="423" on="0"/>
        <pt x="346" y="469" on="0"/>
        <pt x="375" y="527" on="0"/>
        <pt x="375" y="565" on="1"/>
        <pt x="375" y="590" on="0"/>
        <pt x="361" y="624" on="0"/>
        <pt x="337" y="644" on="0"/>
        <pt x="306" y="653" on="0"/>
        <pt x="290" y="653" on="1"/>
        <pt x="205" y="653" on="0"/>
        <pt x="205" y="556" on="1"/>
        <pt x="205" y="-136" on="1"/>
        <pt x="92" y="-136" on="1"/>
        <pt x="92" y="405" on="1"/>
        <pt x="17" y="405" on="1"/>
        <pt x="28" y="497" on="1"/>
        <pt x="92" y="497" on="1"/>
        <pt x="92" y="562" on="1"/>
        <pt x="92" y="606" on="0"/>
        <pt x="124" y="676" on="0"/>
        <pt x="179" y="724" on="0"/>
        <pt x="251" y="750" on="0"/>
        <pt x="291" y="750" on="1"/>
        <pt x="327" y="750" on="0"/>
        <pt x="397" y="730" on="0"/>
        <pt x="451" y="686" on="0"/>
        <pt x="485" y="618" on="0"/>
        <pt x="485" y="569" on="1"/>
        <pt x="485" y="527" on="0"/>
        <pt x="459" y="462" on="0"/>
        <pt x="429" y="414" on="0"/>
        <pt x="403" y="381" on="0"/>
        <pt x="403" y="370" on="1"/>
        <pt x="403" y="356" on="0"/>
        <pt x="448" y="323" on="0"/>
        <pt x="501" y="274" on="0"/>
        <pt x="546" y="203" on="0"/>
        <pt x="546" y="151" on="1"/>
        <pt x="546" y="107" on="0"/>
        <pt x="510" y="45" on="0"/>
        <pt x="448" y="7" on="0"/>
        <pt x="368" y="-10" on="0"/>
      </contour>
    </TTGlyph>
    <TTGlyph name="grave" xMin="58" yMin="588" xMax="245" yMax="744">
      <contour>
        <pt x="245" y="588" on="1"/>
        <pt x="58" y="650" on="1"/>
        <pt x="58" y="744" on="1"/>
        <pt x="245" y="652" on="1"/>
      </contour>
    </TTGlyph>
    <TTGlyph name="greater" xMin="59" yMin="78" xMax="403" yMax="490">
      <contour>
        <pt x="403" y="284" on="1"/>
        <pt x="190" y="78" on="1"/>
        <pt x="59" y="78" on="1"/>
        <pt x="272" y="284" on="1"/>
        <pt x="59" y="490" on="1"/>
        <pt x="190" y="490" on="1"/>
      </contour>
    </TTGlyph>
    <TTGlyph name="guillemotleft" xMin="13" yMin="78" xMax="556" yMax="490">
      <contour>
        <pt x="556" y="78" on="1"/>
        <pt x="423" y="78" on="1"/>
        <pt x="273" y="284" on="1"/>
        <pt x="423" y="490" on="1"/>
        <pt x="556" y="490" on="1"/>
        <pt x="405" y="284" on="1"/>
      </contour>
      <contour>
        <pt x="295" y="78" on="1"/>
        <pt x="163" y="78" on="1"/>
        <pt x="13" y="284" on="1"/>
        <pt x="163" y="490" on="1"/>
        <pt x="295" y="490" on="1"/>
        <pt x="145" y="284" on="1"/>
      </contour>
    </TTGlyph>
    <TTGlyph name="guillemotright" xMin="39" yMin="78" xMax="582" yMax="490">
      <contour>
        <pt x="582" y="284" on="1"/>
        <pt x="431" y="78" on="1"/>
        <pt x="299" y="78" on="1"/>
        <pt x="449" y="284" on="1"/>
        <pt x="299" y="490" on="1"/>
        <pt x="431" y="490" on="1"/>
      </contour>
      <contour>
        <pt x="322" y="284" on="1"/>
        <pt x="172" y="78" on="1"/>
        <pt x="39" y="78" on="1"/>
        <pt x="190" y="284" on="1"/>
        <pt x="39" y="490" on="1"/>
        <pt x="172" y="490" on="1"/>
      </contour>
    </TTGlyph>
    <TTGlyph name="guilsinglleft" xMin="12" yMin="78" xMax="301" yMax="490">
      <contour>
        <pt x="301" y="78" on="1"/>
        <pt x="166" y="78" on="1"/>
        <pt x="12" y="284" on="1"/>
        <pt x="166" y="490" on="1"/>
        <pt x="301" y="490" on="1"/>
        <pt x="147" y="284" on="1"/>
      </contour>
    </TTGlyph>
    <TTGlyph name="guilsinglright" xMin="39" yMin="78" xMax="328" yMax="490">
      <contour>
        <pt x="328" y="284" on="1"/>
        <pt x="174" y="78" on="1"/>
        <pt x="39" y="78" on="1"/>
        <pt x="193" y="284" on="1"/>
        <pt x="39" y="490" on="1"/>
        <pt x="174" y="490" on="1"/>
      </contour>
    </TTGlyph>
    <TTGlyph name="h" xMin="60" yMin="0" xMax="496" yMax="750">
      <contour>
        <pt x="496" y="0" on="1"/>
        <pt x="383" y="0" on="1"/>
        <pt x="383" y="267" on="1"/>
        <pt x="383" y="342" on="0"/>
        <pt x="335" y="410" on="0"/>
        <pt x="278" y="410" on="1"/>
        <pt x="210" y="410" on="0"/>
        <pt x="173" y="361" on="1"/>
        <pt x="173" y="0" on="1"/>
        <pt x="60" y="0" on="1"/>
        <pt x="60" y="750" on="1"/>
        <pt x="173" y="750" on="1"/>
        <pt x="173" y="462" on="1"/>
        <pt x="225" y="506" on="0"/>
        <pt x="289" y="506" on="1"/>
        <pt x="496" y="506" on="0"/>
        <pt x="496" y="267" on="1"/>
      </contour>
    </TTGlyph>
    <TTGlyph name="hyphen" xMin="55" yMin="232" xMax="365" yMax="324">
      <contour>
        <pt x="365" y="232" on="1"/>
        <pt x="55" y="232" on="1"/>
        <pt x="55" y="324" on="1"/>
        <pt x="365" y="324" on="1"/>
      </contour>
    </TTGlyph>
    <TTGlyph name="i" xMin="60" yMin="0" xMax="174" yMax="700">
      <contour>
        <pt x="174" y="583" on="1"/>
        <pt x="60" y="583" on="1"/>
        <pt x="60" y="700" on="1"/>
        <pt x="174" y="700" on="1"/>
      </contour>
      <contour>
        <pt x="174" y="0" on="1"/>
        <pt x="60" y="0" on="1"/>
        <pt x="60" y="497" on="1"/>
        <pt x="174" y="497" on="1"/>
      </contour>
    </TTGlyph>
    <TTGlyph name="iacute" xMin="25" yMin="0" xMax="212" yMax="744">
      <component glyphName="dotlessi" x="0" y="0" flags="0x204"/>
      <component glyphName="acute" x="-33" y="0" flags="0x4"/>
    </TTGlyph>
    <TTGlyph name="icircumflex" xMin="-29" yMin="0" xMax="265" yMax="748">
      <component glyphName="dotlessi" x="0" y="0" flags="0x204"/>
      <component glyphName="circumflex" x="-105" y="0" flags="0x4"/>
    </TTGlyph>
    <TTGlyph name="idieresis" xMin="-6" yMin="0" xMax="242" yMax="700">
      <component glyphName="dotlessi" x="0" y="0" flags="0x204"/>
      <component glyphName="dieresis" x="-93" y="0" flags="0x4"/>
    </TTGlyph>
    <TTGlyph name="igrave" xMin="25" yMin="0" xMax="212" yMax="744">
      <component glyphName="dotlessi" x="0" y="0" flags="0x204"/>
      <component glyphName="grave" x="-33" y="0" flags="0x4"/>
    </TTGlyph>
    <TTGlyph name="j" xMin="-4" yMin="-240" xMax="174" yMax="700">
      <contour>
        <pt x="47" y="-240" on="1"/>
        <pt x="7" y="-240" on="1"/>
        <pt x="-4" y="-150" on="1"/>
        <pt x="17" y="-149" on="0"/>
        <pt x="43" y="-144" on="0"/>
        <pt x="56" y="-127" on="0"/>
        <pt x="60" y="-93" on="0"/>
        <pt x="60" y="-64" on="1"/>
        <pt x="60" y="497" on="1"/>
        <pt x="174" y="497" on="1"/>
        <pt x="174" y="-110" on="1"/>
        <pt x="174" y="-170" on="0"/>
        <pt x="105" y="-238" on="0"/>
      </contour>
      <contour>
        <pt x="174" y="583" on="1"/>
        <pt x="60" y="583" on="1"/>
        <pt x="60" y="700" on="1"/>
        <pt x="174" y="700" on="1"/>
      </contour>
    </TTGlyph>
    <TTGlyph name="k" xMin="60" yMin="0" xMax="471" yMax="750">
      <contour>
        <pt x="174" y="0" on="1"/>
        <pt x="60" y="0" on="1"/>
        <pt x="60" y="750" on="1"/>
        <pt x="174" y="750" on="1"/>
        <pt x="174" y="287" on="1"/>
        <pt x="339" y="497" on="1"/>
        <pt x="470" y="497" on="1"/>
        <pt x="281" y="261" on="1"/>
        <pt x="471" y="0" on="1"/>
        <pt x="341" y="0" on="1"/>
        <pt x="174" y="230" on="1"/>
      </contour>
    </TTGlyph>
    <TTGlyph name="l" xMin="59" yMin="-10" xMax="238" yMax="750">
      <contour>
        <pt x="238" y="83" on="1"/>
        <pt x="227" y="-10" on="1"/>
        <pt x="187" y="-10" on="1"/>
        <pt x="123" y="-10" on="0"/>
        <pt x="59" y="62" on="0"/>
        <pt x="59" y="117" on="1"/>
        <pt x="59" y="750" on="1"/>
        <pt x="173" y="750" on="1"/>
        <pt x="173" y="168" on="1"/>
        <pt x="173" y="138" on="0"/>
        <pt x="177" y="104" on="0"/>
        <pt x="190" y="87" on="0"/>
        <pt x="216" y="83" on="0"/>
      </contour>
    </TTGlyph>
    <TTGlyph name="less" xMin="29" yMin="78" xMax="373" yMax="490">
      <contour>
        <pt x="373" y="78" on="1"/>
        <pt x="242" y="78" on="1"/>
        <pt x="29" y="284" on="1"/>
        <pt x="242" y="490" on="1"/>
        <pt x="373" y="490" on="1"/>
        <pt x="160" y="284" on="1"/>
      </contour>
    </TTGlyph>
    <TTGlyph name="logicalnot" xMin="62" yMin="151" xMax="522" yMax="406">
      <contour>
        <pt x="522" y="151" on="1"/>
        <pt x="440" y="151" on="1"/>
        <pt x="440" y="323" on="1"/>
        <pt x="62" y="323" on="1"/>
        <pt x="62" y="406" on="1"/>
        <pt x="522" y="406" on="1"/>
      </contour>
    </TTGlyph>
    <TTGlyph name="m" xMin="60" yMin="0" xMax="817" yMax="506">
      <contour>
        <pt x="817" y="0" on="1"/>
        <pt x="703" y="0" on="1"/>
        <pt x="703" y="275" on="1"/>
        <pt x="703" y="345" on="0"/>
        <pt x="657" y="410" on="0"/>
        <pt x="603" y="410" on="1"/>
        <pt x="495" y="410" on="0"/>
        <pt x="495" y="301" on="1"/>
        <pt x="495" y="0" on="1"/>
        <pt x="382" y="0" on="1"/>
        <pt x="382" y="269" on="1"/>
        <pt x="382" y="350" on="0"/>
        <pt x="332" y="410" on="0"/>
        <pt x="277" y="410" on="1"/>
        <pt x="207" y="410" on="0"/>
        <pt x="173" y="362" on="1"/>
        <pt x="173" y="0" on="1"/>
        <pt x="60" y="0" on="1"/>
        <pt x="60" y="497" on="1"/>
        <pt x="152" y="497" on="1"/>
        <pt x="160" y="454" on="1"/>
        <pt x="219" y="506" on="0"/>
        <pt x="294" y="506" on="1"/>
        <pt x="398" y="506" on="0"/>
        <pt x="451" y="423" on="1"/>
        <pt x="469" y="457" on="0"/>
        <pt x="558" y="506" on="0"/>
        <pt x="621" y="506" on="1"/>
        <pt x="718" y="506" on="0"/>
        <pt x="817" y="384" on="0"/>
        <pt x="817" y="275" on="1"/>
      </contour>
    </TTGlyph>
    <TTGlyph name="multiply" xMin="58" yMin="112" xMax="388" yMax="442">
      <contour>
        <pt x="388" y="165" on="1"/>
        <pt x="335" y="112" on="1"/>
        <pt x="223" y="224" on="1"/>
        <pt x="111" y="112" on="1"/>
        <pt x="58" y="165" on="1"/>
        <pt x="170" y="277" on="1"/>
        <pt x="58" y="389" on="1"/>
        <pt x="111" y="442" on="1"/>
        <pt x="223" y="330" on="1"/>
        <pt x="335" y="442" on="1"/>
        <pt x="388" y="389" on="1"/>
        <pt x="276" y="277" on="1"/>
      </contour>
    </TTGlyph>
    <TTGlyph name="n" xMin="60" yMin="0" xMax="501" yMax="506">
      <contour>
        <pt x="501" y="0" on="1"/>
        <pt x="388" y="0" on="1"/>
        <pt x="388" y="269" on="1"/>
        <pt x="388" y="342" on="0"/>
        <pt x="337" y="410" on="0"/>
        <pt x="280" y="410" on="1"/>
        <pt x="210" y="410" on="0"/>
        <pt x="173" y="361" on="1"/>
        <pt x="173" y="0" on="1"/>
        <pt x="60" y="0" on="1"/>
        <pt x="60" y="497" on="1"/>
        <pt x="162" y="497" on="1"/>
        <pt x="166" y="460" on="1"/>
        <pt x="224" y="506" on="0"/>
        <pt x="292" y="506" on="1"/>
        <pt x="501" y="506" on="0"/>
        <pt x="501" y="269" on="1"/>
      </contour>
    </TTGlyph>
    <TTGlyph name="nine" xMin="43" yMin="0" xMax="506" yMax="714">
      <contour>
        <pt x="287" y="714" on="1"/>
        <pt x="336" y="714" on="0"/>
        <pt x="417" y="683" on="0"/>
        <pt x="474" y="619" on="0"/>
        <pt x="506" y="520" on="0"/>
        <pt x="506" y="452" on="1"/>
        <pt x="506" y="353" on="0"/>
        <pt x="447" y="187" on="0"/>
        <pt x="358" y="67" on="0"/>
        <pt x="254" y="0" on="0"/>
        <pt x="208" y="0" on="1"/>
        <pt x="129" y="46" on="1"/>
        <pt x="159" y="52" on="0"/>
        <pt x="241" y="97" on="0"/>
        <pt x="318" y="170" on="0"/>
        <pt x="376" y="266" on="0"/>
        <pt x="382" y="323" on="1"/>
        <pt x="373" y="312" on="0"/>
        <pt x="341" y="296" on="0"/>
        <pt x="304" y="285" on="0"/>
        <pt x="267" y="279" on="0"/>
        <pt x="254" y="279" on="1"/>
        <pt x="157" y="279" on="0"/>
        <pt x="43" y="380" on="0"/>
        <pt x="43" y="479" on="1"/>
        <pt x="43" y="529" on="0"/>
        <pt x="78" y="615" on="0"/>
        <pt x="143" y="678" on="0"/>
        <pt x="233" y="714" on="0"/>
      </contour>
      <contour>
        <pt x="265" y="376" on="1"/>
        <pt x="319" y="376" on="0"/>
        <pt x="391" y="440" on="0"/>
        <pt x="391" y="498" on="1"/>
        <pt x="391" y="555" on="0"/>
        <pt x="324" y="610" on="0"/>
        <pt x="278" y="610" on="1"/>
        <pt x="250" y="610" on="0"/>
        <pt x="206" y="589" on="0"/>
        <pt x="175" y="554" on="0"/>
        <pt x="159" y="508" on="0"/>
        <pt x="159" y="484" on="1"/>
        <pt x="159" y="462" on="0"/>
        <pt x="172" y="423" on="0"/>
        <pt x="198" y="393" on="0"/>
        <pt x="238" y="376" on="0"/>
      </contour>
    </TTGlyph>
    <TTGlyph name="ntilde" xMin="60" yMin="0" xMax="501" yMax="715">
      <component glyphName="n" x="0" y="0" flags="0x204"/>
      <component glyphName="tilde" x="15" y="0" flags="0x4"/>
    </TTGlyph>
    <TTGlyph name="numbersign" xMin="30" yMin="-11" xMax="674" yMax="700">
      <contour>
        <pt x="642" y="417" on="1"/>
        <pt x="527" y="417" on="1"/>
        <pt x="485" y="306" on="1"/>
        <pt x="611" y="306" on="1"/>
        <pt x="568" y="213" on="1"/>
        <pt x="449" y="213" on="1"/>
        <pt x="364" y="-11" on="1"/>
        <pt x="274" y="-11" on="1"/>
        <pt x="357" y="213" on="1"/>
        <pt x="240" y="213" on="1"/>
        <pt x="154" y="-11" on="1"/>
        <pt x="64" y="-11" on="1"/>
        <pt x="149" y="213" on="1"/>
        <pt x="30" y="213" on="1"/>
        <pt x="71" y="306" on="1"/>
        <pt x="184" y="306" on="1"/>
        <pt x="226" y="417" on="1"/>
        <pt x="104" y="417" on="1"/>
        <pt x="135" y="510" on="1"/>
        <pt x="262" y="510" on="1"/>
        <pt x="336" y="700" on="1"/>
        <pt x="426" y="700" on="1"/>
        <pt x="353" y="510" on="1"/>
        <pt x="471" y="510" on="1"/>
        <pt x="544" y="700" on="1"/>
        <pt x="635" y="700" on="1"/>
        <pt x="563" y="510" on="1"/>
        <pt x="674" y="510" on="1"/>
      </contour>
      <contour>
        <pt x="318" y="417" on="1"/>
        <pt x="274" y="306" on="1"/>
        <pt x="392" y="306" on="1"/>
        <pt x="436" y="417" on="1"/>
      </contour>
    </TTGlyph>
    <TTGlyph name="o" xMin="29" yMin="-10" xMax="529" yMax="506">
      <contour>
        <pt x="29" y="248" on="1"/>
        <pt x="29" y="302" on="0"/>
        <pt x="64" y="397" on="0"/>
        <pt x="129" y="466" on="0"/>
        <pt x="222" y="506" on="0"/>
        <pt x="279" y="506" on="1"/>
        <pt x="336" y="506" on="0"/>
        <pt x="428" y="466" on="0"/>
        <pt x="493" y="396" on="0"/>
        <pt x="529" y="302" on="0"/>
        <pt x="529" y="248" on="1"/>
        <pt x="529" y="194" on="0"/>
        <pt x="494" y="100" on="0"/>
        <pt x="429" y="30" on="0"/>
        <pt x="336" y="-10" on="0"/>
        <pt x="279" y="-10" on="1"/>
        <pt x="221" y="-10" on="0"/>
        <pt x="129" y="30" on="0"/>
        <pt x="64" y="99" on="0"/>
        <pt x="29" y="193" on="0"/>
      </contour>
      <contour>
        <pt x="145" y="248" on="1"/>
        <pt x="145" y="173" on="0"/>
        <pt x="216" y="85" on="0"/>
        <pt x="279" y="85" on="1"/>
        <pt x="342" y="85" on="0"/>
        <pt x="413" y="173" on="0"/>
        <pt x="413" y="248" on="1"/>
        <pt x="413" y="323" on="0"/>
        <pt x="342" y="410" on="0"/>
        <pt x="279" y="410" on="1"/>
        <pt x="216" y="410" on="0"/>
        <pt x="145" y="323" on="0"/>
      </contour>
    </TTGlyph>
    <TTGlyph name="oacute" xMin="29" yMin="-10" xMax="529" yMax="744">
      <component glyphName="o" x="0" y="0" flags="0x204"/>
      <component glyphName="acute" x="127" y="0" flags="0x4"/>
    </TTGlyph>
    <TTGlyph name="ocircumflex" xMin="29" yMin="-10" xMax="529" yMax="748">
      <component glyphName="o" x="0" y="0" flags="0x204"/>
      <component glyphName="circumflex" x="56" y="0" flags="0x4"/>
    </TTGlyph>
    <TTGlyph name="odieresis" xMin="29" yMin="-10" xMax="529" yMax="700">
      <component glyphName="o" x="0" y="0" flags="0x204"/>
      <component glyphName="dieresis" x="68" y="0" flags="0x4"/>
    </TTGlyph>
    <TTGlyph name="oe" xMin="29" yMin="-10" xMax="869" yMax="506">
      <contour>
        <pt x="862" y="230" on="1"/>
        <pt x="533" y="230" on="1"/>
        <pt x="537" y="191" on="0"/>
        <pt x="565" y="135" on="0"/>
        <pt x="606" y="99" on="0"/>
        <pt x="658" y="83" on="0"/>
        <pt x="685" y="83" on="1"/>
        <pt x="762" y="83" on="0"/>
        <pt x="839" y="122" on="1"/>
        <pt x="846" y="26" on="1"/>
        <pt x="775" y="-10" on="0"/>
        <pt x="684" y="-10" on="1"/>
        <pt x="538" y="-10" on="0"/>
        <pt x="473" y="79" on="1"/>
        <pt x="444" y="37" on="0"/>
        <pt x="343" y="-10" on="0"/>
        <pt x="280" y="-10" on="1"/>
        <pt x="221" y="-10" on="0"/>
        <pt x="128" y="30" on="0"/>
        <pt x="64" y="101" on="0"/>
        <pt x="29" y="195" on="0"/>
        <pt x="29" y="249" on="1"/>
        <pt x="29" y="303" on="0"/>
        <pt x="64" y="397" on="0"/>
        <pt x="130" y="466" on="0"/>
        <pt x="223" y="506" on="0"/>
        <pt x="281" y="506" on="1"/>
        <pt x="341" y="506" on="0"/>
        <pt x="441" y="461" on="0"/>
        <pt x="470" y="419" on="1"/>
        <pt x="500" y="461" on="0"/>
        <pt x="594" y="506" on="0"/>
        <pt x="651" y="506" on="1"/>
        <pt x="699" y="506" on="0"/>
        <pt x="779" y="476" on="0"/>
        <pt x="837" y="420" on="0"/>
        <pt x="869" y="341" on="0"/>
        <pt x="869" y="293" on="1"/>
        <pt x="869" y="259" on="0"/>
      </contour>
      <contour>
        <pt x="654" y="410" on="1"/>
        <pt x="557" y="410" on="0"/>
        <pt x="536" y="307" on="1"/>
        <pt x="754" y="307" on="1"/>
        <pt x="752" y="352" on="0"/>
        <pt x="702" y="410" on="0"/>
      </contour>
      <contour>
        <pt x="281" y="410" on="1"/>
        <pt x="217" y="410" on="0"/>
        <pt x="145" y="323" on="0"/>
        <pt x="145" y="248" on="1"/>
        <pt x="145" y="173" on="0"/>
        <pt x="215" y="85" on="0"/>
        <pt x="281" y="85" on="1"/>
        <pt x="345" y="85" on="0"/>
        <pt x="415" y="176" on="0"/>
        <pt x="415" y="249" on="1"/>
        <pt x="415" y="322" on="0"/>
        <pt x="344" y="410" on="0"/>
      </contour>
    </TTGlyph>
    <TTGlyph name="ograve" xMin="29" yMin="-10" xMax="529" yMax="744">
      <component glyphName="o" x="0" y="0" flags="0x204"/>
      <component glyphName="grave" x="127" y="0" flags="0x4"/>
    </TTGlyph>
    <TTGlyph name="one" xMin="42" yMin="0" xMax="267" yMax="700">
      <contour>
        <pt x="267" y="0" on="1"/>
        <pt x="147" y="0" on="1"/>
        <pt x="147" y="533" on="1"/>
        <pt x="101" y="499" on="0"/>
        <pt x="54" y="489" on="1"/>
        <pt x="42" y="591" on="1"/>
        <pt x="60" y="595" on="0"/>
        <pt x="101" y="618" on="0"/>
        <pt x="138" y="648" on="0"/>
        <pt x="169" y="683" on="0"/>
        <pt x="177" y="700" on="1"/>
        <pt x="267" y="700" on="1"/>
      </contour>
    </TTGlyph>
    <TTGlyph name="onehalf" xMin="38" yMin="-85" xMax="698" yMax="700">
      <component glyphName="uni00B9" x="12" y="0" flags="0x4"/>
      <component glyphName="slash" x="39" y="0" flags="0x4"/>
      <component glyphName="uni00B2" x="422" y="-319" flags="0x4"/>
    </TTGlyph>
    <TTGlyph name="onequarter" xMin="41" yMin="-85" xMax="698" yMax="700">
      <component glyphName="uni00B9" x="15" y="0" flags="0x4"/>
      <component glyphName="slash" x="42" y="0" flags="0x4"/>
      <component glyphName="uni2074" x="381" y="-319" flags="0x4"/>
    </TTGlyph>
    <TTGlyph name="ordfeminine" xMin="32" yMin="434" xMax="322" yMax="730">
      <contour>
        <pt x="322" y="512" on="1"/>
        <pt x="317" y="434" on="1"/>
        <pt x="268" y="434" on="1"/>
        <pt x="262" y="434" on="0"/>
        <pt x="245" y="438" on="0"/>
        <pt x="228" y="445" on="0"/>
        <pt x="213" y="453" on="0"/>
        <pt x="209" y="457" on="1"/>
        <pt x="184" y="434" on="0"/>
        <pt x="116" y="434" on="1"/>
        <pt x="81" y="434" on="0"/>
        <pt x="32" y="479" on="0"/>
        <pt x="32" y="524" on="1"/>
        <pt x="32" y="553" on="0"/>
        <pt x="70" y="592" on="0"/>
        <pt x="123" y="615" on="0"/>
        <pt x="177" y="625" on="0"/>
        <pt x="194" y="626" on="1"/>
        <pt x="186" y="652" on="0"/>
        <pt x="150" y="652" on="1"/>
        <pt x="133" y="652" on="0"/>
        <pt x="63" y="635" on="1"/>
        <pt x="57" y="710" on="1"/>
        <pt x="119" y="730" on="0"/>
        <pt x="176" y="730" on="1"/>
        <pt x="224" y="730" on="0"/>
        <pt x="289" y="683" on="0"/>
        <pt x="289" y="640" on="1"/>
        <pt x="289" y="541" on="1"/>
        <pt x="289" y="522" on="0"/>
        <pt x="298" y="511" on="0"/>
        <pt x="308" y="512" on="1"/>
      </contour>
      <contour>
        <pt x="195" y="507" on="1"/>
        <pt x="195" y="565" on="1"/>
        <pt x="132" y="551" on="0"/>
        <pt x="132" y="526" on="1"/>
        <pt x="132" y="502" on="0"/>
        <pt x="167" y="502" on="1"/>
        <pt x="180" y="502" on="0"/>
      </contour>
    </TTGlyph>
    <TTGlyph name="ordmasculine" xMin="30" yMin="434" xMax="345" yMax="730">
      <contour>
        <pt x="302" y="477" on="1"/>
        <pt x="260" y="434" on="0"/>
        <pt x="188" y="434" on="1"/>
        <pt x="152" y="434" on="0"/>
        <pt x="94" y="457" on="0"/>
        <pt x="52" y="497" on="0"/>
        <pt x="30" y="551" on="0"/>
        <pt x="30" y="582" on="1"/>
        <pt x="30" y="612" on="0"/>
        <pt x="53" y="666" on="0"/>
        <pt x="94" y="706" on="0"/>
        <pt x="152" y="730" on="0"/>
        <pt x="188" y="730" on="1"/>
        <pt x="224" y="730" on="0"/>
        <pt x="282" y="706" on="0"/>
        <pt x="323" y="665" on="0"/>
        <pt x="345" y="612" on="0"/>
        <pt x="345" y="582" on="1"/>
        <pt x="345" y="520" on="0"/>
      </contour>
      <contour>
        <pt x="232" y="636" on="1"/>
        <pt x="215" y="658" on="0"/>
        <pt x="188" y="658" on="1"/>
        <pt x="160" y="658" on="0"/>
        <pt x="126" y="613" on="0"/>
        <pt x="126" y="582" on="1"/>
        <pt x="126" y="551" on="0"/>
        <pt x="160" y="506" on="0"/>
        <pt x="188" y="506" on="1"/>
        <pt x="216" y="506" on="0"/>
        <pt x="249" y="552" on="0"/>
        <pt x="249" y="582" on="1"/>
        <pt x="249" y="613" on="0"/>
      </contour>
    </TTGlyph>
    <TTGlyph name="oslash" xMin="29" yMin="-36" xMax="535" yMax="534">
      <contour>
        <pt x="282" y="-9" on="1"/>
        <pt x="247" y="-9" on="0"/>
        <pt x="207" y="0" on="1"/>
        <pt x="190" y="-36" on="1"/>
        <pt x="95" y="-36" on="1"/>
        <pt x="130" y="37" on="1"/>
        <pt x="29" y="111" on="0"/>
        <pt x="29" y="249" on="1"/>
        <pt x="29" y="304" on="0"/>
        <pt x="65" y="399" on="0"/>
        <pt x="132" y="468" on="0"/>
        <pt x="225" y="507" on="0"/>
        <pt x="282" y="507" on="1"/>
        <pt x="315" y="507" on="0"/>
        <pt x="354" y="498" on="1"/>
        <pt x="371" y="534" on="1"/>
        <pt x="469" y="534" on="1"/>
        <pt x="433" y="462" on="1"/>
        <pt x="535" y="384" on="0"/>
        <pt x="535" y="249" on="1"/>
        <pt x="535" y="195" on="0"/>
        <pt x="500" y="101" on="0"/>
        <pt x="434" y="31" on="0"/>
        <pt x="340" y="-9" on="0"/>
      </contour>
      <contour>
        <pt x="386" y="364" on="1"/>
        <pt x="249" y="86" on="1"/>
        <pt x="273" y="83" on="0"/>
        <pt x="282" y="83" on="1"/>
        <pt x="346" y="83" on="0"/>
        <pt x="417" y="174" on="0"/>
        <pt x="417" y="249" on="1"/>
        <pt x="417" y="327" on="0"/>
      </contour>
      <contour>
        <pt x="281" y="415" on="1"/>
        <pt x="218" y="415" on="0"/>
        <pt x="147" y="324" on="0"/>
        <pt x="147" y="249" on="1"/>
        <pt x="147" y="186" on="0"/>
        <pt x="177" y="134" on="1"/>
        <pt x="312" y="412" on="1"/>
        <pt x="297" y="415" on="0"/>
      </contour>
    </TTGlyph>
    <TTGlyph name="otilde" xMin="29" yMin="-10" xMax="529" yMax="715">
      <component glyphName="o" x="0" y="0" flags="0x204"/>
      <component glyphName="tilde" x="15" y="0" flags="0x4"/>
    </TTGlyph>
    <TTGlyph name="p" xMin="60" yMin="-242" xMax="539" yMax="506">
      <contour>
        <pt x="302" y="-10" on="1"/>
        <pt x="226" y="-10" on="0"/>
        <pt x="173" y="36" on="1"/>
        <pt x="173" y="-242" on="1"/>
        <pt x="60" y="-242" on="1"/>
        <pt x="60" y="497" on="1"/>
        <pt x="156" y="497" on="1"/>
        <pt x="166" y="455" on="1"/>
        <pt x="224" y="506" on="0"/>
        <pt x="302" y="506" on="1"/>
        <pt x="357" y="506" on="0"/>
        <pt x="444" y="466" on="0"/>
        <pt x="506" y="396" on="0"/>
        <pt x="539" y="302" on="0"/>
        <pt x="539" y="248" on="1"/>
        <pt x="539" y="194" on="0"/>
        <pt x="507" y="99" on="0"/>
        <pt x="447" y="30" on="0"/>
        <pt x="359" y="-10" on="0"/>
      </contour>
      <contour>
        <pt x="293" y="410" on="1"/>
        <pt x="235" y="410" on="0"/>
        <pt x="168" y="324" on="0"/>
        <pt x="168" y="248" on="1"/>
        <pt x="168" y="170" on="0"/>
        <pt x="235" y="85" on="0"/>
        <pt x="293" y="85" on="1"/>
        <pt x="353" y="85" on="0"/>
        <pt x="423" y="176" on="0"/>
        <pt x="423" y="248" on="1"/>
        <pt x="423" y="321" on="0"/>
        <pt x="353" y="410" on="0"/>
      </contour>
    </TTGlyph>
    <TTGlyph name="paragraph" xMin="33" yMin="0" xMax="580" yMax="700">
      <contour>
        <pt x="580" y="605" on="1"/>
        <pt x="509" y="605" on="1"/>
        <pt x="509" y="0" on="1"/>
        <pt x="434" y="0" on="1"/>
        <pt x="434" y="605" on="1"/>
        <pt x="359" y="605" on="1"/>
        <pt x="359" y="0" on="1"/>
        <pt x="299" y="0" on="1"/>
        <pt x="299" y="233" on="1"/>
        <pt x="235" y="237" on="0"/>
        <pt x="136" y="278" on="0"/>
        <pt x="68" y="342" on="0"/>
        <pt x="33" y="423" on="0"/>
        <pt x="33" y="468" on="1"/>
        <pt x="33" y="514" on="0"/>
        <pt x="71" y="599" on="0"/>
        <pt x="145" y="662" on="0"/>
        <pt x="251" y="700" on="0"/>
        <pt x="320" y="700" on="1"/>
        <pt x="580" y="700" on="1"/>
      </contour>
    </TTGlyph>
    <TTGlyph name="parenleft" xMin="41" yMin="-136" xMax="249" yMax="750">
      <contour>
        <pt x="249" y="-136" on="1"/>
        <pt x="147" y="-136" on="1"/>
        <pt x="120" y="-90" on="0"/>
        <pt x="80" y="3" on="0"/>
        <pt x="54" y="108" on="0"/>
        <pt x="41" y="231" on="0"/>
        <pt x="41" y="307" on="1"/>
        <pt x="41" y="383" on="0"/>
        <pt x="54" y="507" on="0"/>
        <pt x="81" y="613" on="0"/>
        <pt x="120" y="705" on="0"/>
        <pt x="147" y="750" on="1"/>
        <pt x="249" y="750" on="1"/>
        <pt x="133" y="550" on="0"/>
        <pt x="133" y="307" on="1"/>
        <pt x="133" y="64" on="0"/>
      </contour>
    </TTGlyph>
    <TTGlyph name="parenright" xMin="23" yMin="-136" xMax="231" yMax="750">
      <contour>
        <pt x="125" y="-136" on="1"/>
        <pt x="23" y="-136" on="1"/>
        <pt x="139" y="64" on="0"/>
        <pt x="139" y="307" on="1"/>
        <pt x="139" y="550" on="0"/>
        <pt x="23" y="750" on="1"/>
        <pt x="125" y="750" on="1"/>
        <pt x="152" y="705" on="0"/>
        <pt x="191" y="613" on="0"/>
        <pt x="218" y="507" on="0"/>
        <pt x="231" y="383" on="0"/>
        <pt x="231" y="307" on="1"/>
        <pt x="231" y="232" on="0"/>
        <pt x="218" y="108" on="0"/>
        <pt x="192" y="3" on="0"/>
        <pt x="152" y="-91" on="0"/>
      </contour>
    </TTGlyph>
    <TTGlyph name="percent" xMin="33" yMin="-12" xMax="807" yMax="704">
      <contour>
        <pt x="246" y="-12" on="1"/>
        <pt x="151" y="-12" on="1"/>
        <pt x="572" y="700" on="1"/>
        <pt x="667" y="700" on="1"/>
      </contour>
      <contour>
        <pt x="182" y="334" on="1"/>
        <pt x="116" y="334" on="0"/>
        <pt x="33" y="432" on="0"/>
        <pt x="33" y="516" on="1"/>
        <pt x="33" y="560" on="0"/>
        <pt x="57" y="630" on="0"/>
        <pt x="99" y="678" on="0"/>
        <pt x="155" y="704" on="0"/>
        <pt x="187" y="704" on="1"/>
        <pt x="219" y="704" on="0"/>
        <pt x="273" y="679" on="0"/>
        <pt x="313" y="633" on="0"/>
        <pt x="336" y="566" on="0"/>
        <pt x="336" y="524" on="1"/>
        <pt x="336" y="480" on="0"/>
        <pt x="313" y="410" on="0"/>
        <pt x="273" y="360" on="0"/>
        <pt x="216" y="334" on="0"/>
      </contour>
      <contour>
        <pt x="186" y="639" on="1"/>
        <pt x="155" y="639" on="0"/>
        <pt x="106" y="578" on="0"/>
        <pt x="106" y="516" on="1"/>
        <pt x="106" y="457" on="0"/>
        <pt x="151" y="402" on="0"/>
        <pt x="183" y="402" on="1"/>
        <pt x="218" y="402" on="0"/>
        <pt x="264" y="461" on="0"/>
        <pt x="264" y="524" on="1"/>
        <pt x="264" y="582" on="0"/>
        <pt x="216" y="639" on="0"/>
      </contour>
      <contour>
        <pt x="653" y="-11" on="1"/>
        <pt x="586" y="-11" on="0"/>
        <pt x="504" y="86" on="0"/>
        <pt x="504" y="171" on="1"/>
        <pt x="504" y="215" on="0"/>
        <pt x="528" y="285" on="0"/>
        <pt x="570" y="333" on="0"/>
        <pt x="626" y="359" on="0"/>
        <pt x="658" y="359" on="1"/>
        <pt x="690" y="359" on="0"/>
        <pt x="744" y="334" on="0"/>
        <pt x="784" y="288" on="0"/>
        <pt x="807" y="221" on="0"/>
        <pt x="807" y="179" on="1"/>
        <pt x="807" y="135" on="0"/>
        <pt x="784" y="65" on="0"/>
        <pt x="744" y="15" on="0"/>
        <pt x="687" y="-11" on="0"/>
      </contour>
      <contour>
        <pt x="657" y="294" on="1"/>
        <pt x="626" y="294" on="0"/>
        <pt x="577" y="233" on="0"/>
        <pt x="577" y="171" on="1"/>
        <pt x="577" y="112" on="0"/>
        <pt x="622" y="57" on="0"/>
        <pt x="654" y="57" on="1"/>
        <pt x="689" y="57" on="0"/>
        <pt x="735" y="116" on="0"/>
        <pt x="735" y="179" on="1"/>
        <pt x="735" y="237" on="0"/>
        <pt x="687" y="294" on="0"/>
      </contour>
    </TTGlyph>
    <TTGlyph name="period" xMin="55" yMin="0" xMax="169" yMax="116">
      <contour>
        <pt x="169" y="0" on="1"/>
        <pt x="55" y="0" on="1"/>
        <pt x="55" y="116" on="1"/>
        <pt x="169" y="116" on="1"/>
      </contour>
    </TTGlyph>
    <TTGlyph name="periodcentered" xMin="55" yMin="213" xMax="179" yMax="343">
      <contour>
        <pt x="179" y="213" on="1"/>
        <pt x="55" y="213" on="1"/>
        <pt x="55" y="343" on="1"/>
        <pt x="179" y="343" on="1"/>
      </contour>
    </TTGlyph>
    <TTGlyph name="perthousand" xMin="35" yMin="-12" xMax="1168" yMax="704">
      <contour>
        <pt x="248" y="-12" on="1"/>
        <pt x="153" y="-12" on="1"/>
        <pt x="574" y="700" on="1"/>
        <pt x="669" y="700" on="1"/>
      </contour>
      <contour>
        <pt x="184" y="334" on="1"/>
        <pt x="118" y="334" on="0"/>
        <pt x="35" y="432" on="0"/>
        <pt x="35" y="516" on="1"/>
        <pt x="35" y="560" on="0"/>
        <pt x="59" y="630" on="0"/>
        <pt x="101" y="678" on="0"/>
        <pt x="157" y="704" on="0"/>
        <pt x="189" y="704" on="1"/>
        <pt x="221" y="704" on="0"/>
        <pt x="275" y="679" on="0"/>
        <pt x="315" y="633" on="0"/>
        <pt x="338" y="566" on="0"/>
        <pt x="338" y="524" on="1"/>
        <pt x="338" y="480" on="0"/>
        <pt x="315" y="410" on="0"/>
        <pt x="275" y="360" on="0"/>
        <pt x="218" y="334" on="0"/>
      </contour>
      <contour>
        <pt x="188" y="639" on="1"/>
        <pt x="157" y="639" on="0"/>
        <pt x="108" y="578" on="0"/>
        <pt x="108" y="516" on="1"/>
        <pt x="108" y="457" on="0"/>
        <pt x="153" y="402" on="0"/>
        <pt x="185" y="402" on="1"/>
        <pt x="220" y="402" on="0"/>
        <pt x="266" y="461" on="0"/>
        <pt x="266" y="524" on="1"/>
        <pt x="266" y="582" on="0"/>
        <pt x="218" y="639" on="0"/>
      </contour>
      <contour>
        <pt x="655" y="-11" on="1"/>
        <pt x="588" y="-11" on="0"/>
        <pt x="506" y="86" on="0"/>
        <pt x="506" y="171" on="1"/>
        <pt x="506" y="215" on="0"/>
        <pt x="530" y="285" on="0"/>
        <pt x="572" y="333" on="0"/>
        <pt x="628" y="359" on="0"/>
        <pt x="660" y="359" on="1"/>
        <pt x="692" y="359" on="0"/>
        <pt x="746" y="334" on="0"/>
        <pt x="786" y="288" on="0"/>
        <pt x="809" y="221" on="0"/>
        <pt x="809" y="179" on="1"/>
        <pt x="809" y="135" on="0"/>
        <pt x="786" y="65" on="0"/>
        <pt x="746" y="15" on="0"/>
        <pt x="689" y="-11" on="0"/>
      </contour>
      <contour>
        <pt x="659" y="294" on="1"/>
        <pt x="628" y="294" on="0"/>
        <pt x="579" y="233" on="0"/>
        <pt x="579" y="171" on="1"/>
        <pt x="579" y="112" on="0"/>
        <pt x="624" y="57" on="0"/>
        <pt x="656" y="57" on="1"/>
        <pt x="691" y="57" on="0"/>
        <pt x="737" y="116" on="0"/>
        <pt x="737" y="179" on="1"/>
        <pt x="737" y="237" on="0"/>
        <pt x="689" y="294" on="0"/>
      </contour>
      <contour>
        <pt x="1015" y="-11" on="1"/>
        <pt x="948" y="-11" on="0"/>
        <pt x="866" y="86" on="0"/>
        <pt x="866" y="171" on="1"/>
        <pt x="866" y="215" on="0"/>
        <pt x="890" y="285" on="0"/>
        <pt x="932" y="333" on="0"/>
        <pt x="988" y="359" on="0"/>
        <pt x="1020" y="359" on="1"/>
        <pt x="1052" y="359" on="0"/>
        <pt x="1106" y="334" on="0"/>
        <pt x="1146" y="288" on="0"/>
        <pt x="1168" y="221" on="0"/>
        <pt x="1168" y="179" on="1"/>
        <pt x="1168" y="135" on="0"/>
        <pt x="1146" y="65" on="0"/>
        <pt x="1105" y="15" on="0"/>
        <pt x="1049" y="-11" on="0"/>
      </contour>
      <contour>
        <pt x="1019" y="294" on="1"/>
        <pt x="987" y="294" on="0"/>
        <pt x="938" y="233" on="0"/>
        <pt x="938" y="171" on="1"/>
        <pt x="938" y="112" on="0"/>
        <pt x="984" y="57" on="0"/>
        <pt x="1016" y="57" on="1"/>
        <pt x="1051" y="57" on="0"/>
        <pt x="1097" y="116" on="0"/>
        <pt x="1097" y="179" on="1"/>
        <pt x="1097" y="237" on="0"/>
        <pt x="1049" y="294" on="0"/>
      </contour>
    </TTGlyph>
    <TTGlyph name="plus" xMin="46" yMin="102" xMax="416" yMax="452">
      <contour>
        <pt x="416" y="232" on="1"/>
        <pt x="276" y="232" on="1"/>
        <pt x="276" y="102" on="1"/>
        <pt x="186" y="102" on="1"/>
        <pt x="186" y="232" on="1"/>
        <pt x="46" y="232" on="1"/>
        <pt x="46" y="324" on="1"/>
        <pt x="186" y="324" on="1"/>
        <pt x="186" y="452" on="1"/>
        <pt x="276" y="452" on="1"/>
        <pt x="276" y="324" on="1"/>
        <pt x="416" y="324" on="1"/>
      </contour>
    </TTGlyph>
    <TTGlyph name="plusminus" xMin="61" yMin="34" xMax="431" yMax="532">
      <contour>
        <pt x="431" y="315" on="1"/>
        <pt x="288" y="315" on="1"/>
        <pt x="288" y="182" on="1"/>
        <pt x="204" y="182" on="1"/>
        <pt x="204" y="315" on="1"/>
        <pt x="61" y="315" on="1"/>
        <pt x="61" y="401" on="1"/>
        <pt x="204" y="401" on="1"/>
        <pt x="204" y="532" on="1"/>
        <pt x="288" y="532" on="1"/>
        <pt x="288" y="401" on="1"/>
        <pt x="431" y="401" on="1"/>
      </contour>
      <contour>
        <pt x="431" y="34" on="1"/>
        <pt x="61" y="34" on="1"/>
        <pt x="61" y="119" on="1"/>
        <pt x="431" y="119" on="1"/>
      </contour>
    </TTGlyph>
    <TTGlyph name="q" xMin="30" yMin="-242" xMax="509" yMax="506">
      <contour>
        <pt x="267" y="-10" on="1"/>
        <pt x="210" y="-10" on="0"/>
        <pt x="122" y="29" on="0"/>
        <pt x="62" y="98" on="0"/>
        <pt x="30" y="193" on="0"/>
        <pt x="30" y="248" on="1"/>
        <pt x="30" y="303" on="0"/>
        <pt x="63" y="397" on="0"/>
        <pt x="125" y="466" on="0"/>
        <pt x="213" y="506" on="0"/>
        <pt x="267" y="506" on="1"/>
        <pt x="344" y="506" on="0"/>
        <pt x="403" y="455" on="1"/>
        <pt x="413" y="497" on="1"/>
        <pt x="509" y="497" on="1"/>
        <pt x="509" y="-242" on="1"/>
        <pt x="395" y="-242" on="1"/>
        <pt x="395" y="36" on="1"/>
        <pt x="343" y="-10" on="0"/>
      </contour>
      <contour>
        <pt x="276" y="410" on="1"/>
        <pt x="216" y="410" on="0"/>
        <pt x="146" y="321" on="0"/>
        <pt x="146" y="248" on="1"/>
        <pt x="146" y="176" on="0"/>
        <pt x="216" y="85" on="0"/>
        <pt x="276" y="85" on="1"/>
        <pt x="334" y="85" on="0"/>
        <pt x="401" y="170" on="0"/>
        <pt x="401" y="248" on="1"/>
        <pt x="401" y="324" on="0"/>
        <pt x="334" y="410" on="0"/>
      </contour>
    </TTGlyph>
    <TTGlyph name="question" xMin="30" yMin="0" xMax="399" yMax="750">
      <contour>
        <pt x="239" y="200" on="1"/>
        <pt x="163" y="200" on="1"/>
        <pt x="160" y="239" on="0"/>
        <pt x="160" y="251" on="1"/>
        <pt x="160" y="298" on="0"/>
        <pt x="202" y="374" on="0"/>
        <pt x="251" y="444" on="0"/>
        <pt x="293" y="516" on="0"/>
        <pt x="293" y="560" on="1"/>
        <pt x="293" y="611" on="0"/>
        <pt x="231" y="662" on="0"/>
        <pt x="183" y="662" on="1"/>
        <pt x="141" y="662" on="0"/>
        <pt x="75" y="623" on="0"/>
        <pt x="57" y="596" on="1"/>
        <pt x="30" y="680" on="1"/>
        <pt x="52" y="714" on="0"/>
        <pt x="138" y="750" on="0"/>
        <pt x="190" y="750" on="1"/>
        <pt x="239" y="750" on="0"/>
        <pt x="317" y="716" on="0"/>
        <pt x="371" y="662" on="0"/>
        <pt x="399" y="594" on="0"/>
        <pt x="399" y="561" on="1"/>
        <pt x="399" y="514" on="0"/>
        <pt x="349" y="433" on="0"/>
        <pt x="289" y="352" on="0"/>
        <pt x="239" y="267" on="0"/>
        <pt x="239" y="217" on="1"/>
      </contour>
      <contour>
        <pt x="258" y="0" on="1"/>
        <pt x="145" y="0" on="1"/>
        <pt x="145" y="112" on="1"/>
        <pt x="258" y="112" on="1"/>
      </contour>
    </TTGlyph>
    <TTGlyph name="questiondown" xMin="50" yMin="-250" xMax="419" yMax="500">
      <contour>
        <pt x="210" y="300" on="1"/>
        <pt x="286" y="300" on="1"/>
        <pt x="289" y="261" on="0"/>
        <pt x="289" y="249" on="1"/>
        <pt x="289" y="202" on="0"/>
        <pt x="247" y="127" on="0"/>
        <pt x="198" y="57" on="0"/>
        <pt x="156" y="-16" on="0"/>
        <pt x="156" y="-60" on="1"/>
        <pt x="156" y="-111" on="0"/>
        <pt x="218" y="-162" on="0"/>
        <pt x="266" y="-162" on="1"/>
        <pt x="308" y="-162" on="0"/>
        <pt x="374" y="-123" on="0"/>
        <pt x="392" y="-96" on="1"/>
        <pt x="419" y="-180" on="1"/>
        <pt x="397" y="-214" on="0"/>
        <pt x="311" y="-250" on="0"/>
        <pt x="259" y="-250" on="1"/>
        <pt x="206" y="-250" on="0"/>
        <pt x="127" y="-213" on="0"/>
        <pt x="75" y="-158" on="0"/>
        <pt x="50" y="-91" on="0"/>
        <pt x="50" y="-61" on="1"/>
        <pt x="50" y="-15" on="0"/>
        <pt x="100" y="67" on="0"/>
        <pt x="160" y="148" on="0"/>
        <pt x="210" y="233" on="0"/>
        <pt x="210" y="283" on="1"/>
      </contour>
      <contour>
        <pt x="191" y="500" on="1"/>
        <pt x="304" y="500" on="1"/>
        <pt x="304" y="388" on="1"/>
        <pt x="191" y="388" on="1"/>
      </contour>
    </TTGlyph>
    <TTGlyph name="quotedbl" xMin="38" yMin="450" xMax="361" yMax="750">
      <contour>
        <pt x="361" y="750" on="1"/>
        <pt x="341" y="450" on="1"/>
        <pt x="267" y="450" on="1"/>
        <pt x="247" y="750" on="1"/>
      </contour>
      <contour>
        <pt x="153" y="750" on="1"/>
        <pt x="133" y="450" on="1"/>
        <pt x="58" y="450" on="1"/>
        <pt x="38" y="750" on="1"/>
      </contour>
    </TTGlyph>
    <TTGlyph name="quotedblbase" xMin="55" yMin="-110" xMax="402" yMax="116">
      <contour>
        <pt x="172" y="0" on="1"/>
        <pt x="80" y="-110" on="1"/>
        <pt x="55" y="-96" on="1"/>
        <pt x="88" y="-10" on="1"/>
        <pt x="55" y="0" on="1"/>
        <pt x="55" y="116" on="1"/>
        <pt x="172" y="116" on="1"/>
      </contour>
      <contour>
        <pt x="402" y="0" on="1"/>
        <pt x="310" y="-110" on="1"/>
        <pt x="285" y="-96" on="1"/>
        <pt x="318" y="-10" on="1"/>
        <pt x="285" y="0" on="1"/>
        <pt x="285" y="116" on="1"/>
        <pt x="402" y="116" on="1"/>
      </contour>
    </TTGlyph>
    <TTGlyph name="quotedblleft" xMin="43" yMin="524" xMax="370" yMax="750">
      <contour>
        <pt x="43" y="640" on="1"/>
        <pt x="135" y="750" on="1"/>
        <pt x="160" y="736" on="1"/>
        <pt x="126" y="650" on="1"/>
        <pt x="159" y="640" on="1"/>
        <pt x="159" y="524" on="1"/>
        <pt x="43" y="524" on="1"/>
      </contour>
      <contour>
        <pt x="253" y="640" on="1"/>
        <pt x="345" y="750" on="1"/>
        <pt x="370" y="736" on="1"/>
        <pt x="336" y="650" on="1"/>
        <pt x="369" y="640" on="1"/>
        <pt x="369" y="524" on="1"/>
        <pt x="253" y="524" on="1"/>
      </contour>
    </TTGlyph>
    <TTGlyph name="quotedblright" xMin="41" yMin="524" xMax="368" yMax="750">
      <contour>
        <pt x="368" y="634" on="1"/>
        <pt x="276" y="524" on="1"/>
        <pt x="251" y="538" on="1"/>
        <pt x="284" y="624" on="1"/>
        <pt x="251" y="634" on="1"/>
        <pt x="251" y="750" on="1"/>
        <pt x="368" y="750" on="1"/>
      </contour>
      <contour>
        <pt x="158" y="634" on="1"/>
        <pt x="66" y="524" on="1"/>
        <pt x="41" y="538" on="1"/>
        <pt x="74" y="624" on="1"/>
        <pt x="41" y="634" on="1"/>
        <pt x="41" y="750" on="1"/>
        <pt x="158" y="750" on="1"/>
      </contour>
    </TTGlyph>
    <TTGlyph name="quoteleft" xMin="43" yMin="524" xMax="160" yMax="750">
      <contour>
        <pt x="43" y="640" on="1"/>
        <pt x="135" y="750" on="1"/>
        <pt x="160" y="736" on="1"/>
        <pt x="126" y="650" on="1"/>
        <pt x="159" y="640" on="1"/>
        <pt x="159" y="524" on="1"/>
        <pt x="43" y="524" on="1"/>
      </contour>
    </TTGlyph>
    <TTGlyph name="quoteright" xMin="41" yMin="524" xMax="158" yMax="750">
      <contour>
        <pt x="158" y="634" on="1"/>
        <pt x="66" y="524" on="1"/>
        <pt x="41" y="538" on="1"/>
        <pt x="74" y="624" on="1"/>
        <pt x="41" y="634" on="1"/>
        <pt x="41" y="750" on="1"/>
        <pt x="158" y="750" on="1"/>
      </contour>
    </TTGlyph>
    <TTGlyph name="quotesinglbase" xMin="55" yMin="-110" xMax="172" yMax="116">
      <contour>
        <pt x="172" y="0" on="1"/>
        <pt x="80" y="-110" on="1"/>
        <pt x="55" y="-96" on="1"/>
        <pt x="88" y="-10" on="1"/>
        <pt x="55" y="0" on="1"/>
        <pt x="55" y="116" on="1"/>
        <pt x="172" y="116" on="1"/>
      </contour>
    </TTGlyph>
    <TTGlyph name="quotesingle" xMin="39" yMin="450" xMax="155" yMax="750">
      <contour>
        <pt x="155" y="750" on="1"/>
        <pt x="136" y="450" on="1"/>
        <pt x="58" y="450" on="1"/>
        <pt x="39" y="750" on="1"/>
      </contour>
    </TTGlyph>
    <TTGlyph name="r" xMin="60" yMin="0" xMax="337" yMax="508">
      <contour>
        <pt x="337" y="508" on="1"/>
        <pt x="315" y="397" on="1"/>
        <pt x="273" y="397" on="1"/>
        <pt x="243" y="397" on="0"/>
        <pt x="188" y="365" on="0"/>
        <pt x="176" y="343" on="1"/>
        <pt x="176" y="0" on="1"/>
        <pt x="60" y="0" on="1"/>
        <pt x="60" y="497" on="1"/>
        <pt x="163" y="497" on="1"/>
        <pt x="169" y="435" on="1"/>
        <pt x="235" y="508" on="0"/>
        <pt x="312" y="508" on="1"/>
      </contour>
    </TTGlyph>
    <TTGlyph name="registered" xMin="40" yMin="37" xMax="661" yMax="693">
      <contour>
        <pt x="40" y="365" on="1"/>
        <pt x="40" y="439" on="0"/>
        <pt x="87" y="560" on="0"/>
        <pt x="170" y="646" on="0"/>
        <pt x="284" y="693" on="0"/>
        <pt x="351" y="693" on="1"/>
        <pt x="418" y="693" on="0"/>
        <pt x="532" y="645" on="0"/>
        <pt x="615" y="559" on="0"/>
        <pt x="661" y="438" on="0"/>
        <pt x="661" y="365" on="1"/>
        <pt x="661" y="292" on="0"/>
        <pt x="615" y="172" on="0"/>
        <pt x="533" y="85" on="0"/>
        <pt x="419" y="37" on="0"/>
        <pt x="351" y="37" on="1"/>
        <pt x="283" y="37" on="0"/>
        <pt x="169" y="85" on="0"/>
        <pt x="86" y="172" on="0"/>
        <pt x="40" y="292" on="0"/>
      </contour>
      <contour>
        <pt x="110" y="365" on="1"/>
        <pt x="110" y="306" on="0"/>
        <pt x="141" y="209" on="0"/>
        <pt x="202" y="138" on="0"/>
        <pt x="292" y="99" on="0"/>
        <pt x="351" y="99" on="1"/>
        <pt x="409" y="99" on="0"/>
        <pt x="499" y="138" on="0"/>
        <pt x="560" y="209" on="0"/>
        <pt x="591" y="306" on="0"/>
        <pt x="591" y="365" on="1"/>
        <pt x="591" y="423" on="0"/>
        <pt x="560" y="520" on="0"/>
        <pt x="500" y="591" on="0"/>
        <pt x="410" y="630" on="0"/>
        <pt x="351" y="630" on="1"/>
        <pt x="292" y="630" on="0"/>
        <pt x="202" y="591" on="0"/>
        <pt x="141" y="521" on="0"/>
        <pt x="110" y="423" on="0"/>
      </contour>
      <contour>
        <pt x="492" y="205" on="1"/>
        <pt x="409" y="205" on="1"/>
        <pt x="346" y="319" on="1"/>
        <pt x="308" y="319" on="1"/>
        <pt x="308" y="205" on="1"/>
        <pt x="228" y="205" on="1"/>
        <pt x="228" y="536" on="1"/>
        <pt x="352" y="536" on="1"/>
        <pt x="409" y="536" on="0"/>
        <pt x="469" y="489" on="0"/>
        <pt x="469" y="429" on="1"/>
        <pt x="469" y="374" on="0"/>
        <pt x="419" y="342" on="1"/>
      </contour>
      <contour>
        <pt x="339" y="469" on="1"/>
        <pt x="308" y="469" on="1"/>
        <pt x="308" y="392" on="1"/>
        <pt x="337" y="392" on="1"/>
        <pt x="365" y="392" on="0"/>
        <pt x="386" y="412" on="0"/>
        <pt x="386" y="431" on="1"/>
        <pt x="386" y="450" on="0"/>
        <pt x="367" y="469" on="0"/>
      </contour>
    </TTGlyph>
    <TTGlyph name="ring" xMin="42" yMin="576" xMax="250" yMax="755">
      <contour>
        <pt x="42" y="665" on="1"/>
        <pt x="42" y="705" on="0"/>
        <pt x="102" y="755" on="0"/>
        <pt x="153" y="755" on="1"/>
        <pt x="176" y="755" on="0"/>
        <pt x="212" y="739" on="0"/>
        <pt x="237" y="713" on="0"/>
        <pt x="250" y="680" on="0"/>
        <pt x="250" y="663" on="1"/>
        <pt x="250" y="627" on="0"/>
        <pt x="195" y="576" on="0"/>
        <pt x="146" y="576" on="1"/>
        <pt x="98" y="576" on="0"/>
        <pt x="42" y="627" on="0"/>
      </contour>
      <contour>
        <pt x="97" y="665" on="1"/>
        <pt x="97" y="661" on="1"/>
        <pt x="97" y="640" on="0"/>
        <pt x="127" y="619" on="0"/>
        <pt x="146" y="619" on="1"/>
        <pt x="164" y="619" on="0"/>
        <pt x="195" y="640" on="0"/>
        <pt x="195" y="661" on="1"/>
        <pt x="195" y="683" on="0"/>
        <pt x="169" y="712" on="0"/>
        <pt x="146" y="712" on="1"/>
        <pt x="126" y="712" on="0"/>
        <pt x="97" y="685" on="0"/>
      </contour>
    </TTGlyph>
    <TTGlyph name="s" xMin="32" yMin="-10" xMax="394" yMax="506">
      <contour>
        <pt x="201" y="-10" on="1"/>
        <pt x="90" y="-10" on="0"/>
        <pt x="32" y="29" on="1"/>
        <pt x="43" y="129" on="1"/>
        <pt x="55" y="120" on="0"/>
        <pt x="90" y="102" on="0"/>
        <pt x="131" y="88" on="0"/>
        <pt x="176" y="79" on="0"/>
        <pt x="197" y="79" on="1"/>
        <pt x="240" y="79" on="0"/>
        <pt x="280" y="111" on="0"/>
        <pt x="280" y="136" on="1"/>
        <pt x="280" y="160" on="0"/>
        <pt x="237" y="192" on="0"/>
        <pt x="176" y="216" on="0"/>
        <pt x="110" y="237" on="0"/>
        <pt x="88" y="250" on="1"/>
        <pt x="39" y="279" on="0"/>
        <pt x="39" y="350" on="1"/>
        <pt x="39" y="380" on="0"/>
        <pt x="60" y="437" on="0"/>
        <pt x="105" y="480" on="0"/>
        <pt x="174" y="506" on="0"/>
        <pt x="222" y="506" on="1"/>
        <pt x="313" y="506" on="0"/>
        <pt x="372" y="470" on="1"/>
        <pt x="361" y="372" on="1"/>
        <pt x="305" y="422" on="0"/>
        <pt x="229" y="422" on="1"/>
        <pt x="191" y="422" on="0"/>
        <pt x="142" y="394" on="0"/>
        <pt x="142" y="364" on="1"/>
        <pt x="142" y="344" on="0"/>
        <pt x="161" y="320" on="0"/>
        <pt x="193" y="304" on="0"/>
        <pt x="234" y="294" on="0"/>
        <pt x="256" y="288" on="1"/>
        <pt x="394" y="253" on="0"/>
        <pt x="394" y="137" on="1"/>
        <pt x="394" y="113" on="0"/>
        <pt x="380" y="62" on="0"/>
        <pt x="338" y="18" on="0"/>
        <pt x="262" y="-10" on="0"/>
      </contour>
    </TTGlyph>
    <TTGlyph name="scaron" xMin="32" yMin="-10" xMax="394" yMax="747">
      <component glyphName="s" x="0" y="0" flags="0x204"/>
      <component glyphName="caron" x="-16" y="0" flags="0x4"/>
    </TTGlyph>
    <TTGlyph name="section" xMin="39" yMin="-85" xMax="421" yMax="750">
      <contour>
        <pt x="329" y="187" on="1"/>
        <pt x="356" y="165" on="0"/>
        <pt x="377" y="115" on="0"/>
        <pt x="377" y="78" on="1"/>
        <pt x="377" y="45" on="0"/>
        <pt x="358" y="-14" on="0"/>
        <pt x="316" y="-59" on="0"/>
        <pt x="252" y="-85" on="0"/>
        <pt x="207" y="-85" on="1"/>
        <pt x="188" y="-85" on="0"/>
        <pt x="145" y="-78" on="0"/>
        <pt x="106" y="-67" on="0"/>
        <pt x="73" y="-52" on="0"/>
        <pt x="64" y="-44" on="1"/>
        <pt x="75" y="48" on="1"/>
        <pt x="142" y="0" on="0"/>
        <pt x="204" y="0" on="1"/>
        <pt x="298" y="0" on="0"/>
        <pt x="298" y="66" on="1"/>
        <pt x="298" y="96" on="0"/>
        <pt x="260" y="130" on="0"/>
        <pt x="202" y="155" on="0"/>
        <pt x="135" y="179" on="0"/>
        <pt x="77" y="218" on="0"/>
        <pt x="39" y="280" on="0"/>
        <pt x="39" y="331" on="1"/>
        <pt x="39" y="444" on="0"/>
        <pt x="131" y="479" on="1"/>
        <pt x="82" y="516" on="0"/>
        <pt x="82" y="584" on="1"/>
        <pt x="82" y="618" on="0"/>
        <pt x="101" y="679" on="0"/>
        <pt x="143" y="724" on="0"/>
        <pt x="207" y="750" on="0"/>
        <pt x="252" y="750" on="1"/>
        <pt x="271" y="750" on="0"/>
        <pt x="314" y="743" on="0"/>
        <pt x="354" y="732" on="0"/>
        <pt x="387" y="717" on="0"/>
        <pt x="396" y="709" on="1"/>
        <pt x="386" y="617" on="1"/>
        <pt x="318" y="665" on="0"/>
        <pt x="256" y="665" on="1"/>
        <pt x="216" y="665" on="0"/>
        <pt x="164" y="631" on="0"/>
        <pt x="164" y="598" on="1"/>
        <pt x="164" y="569" on="0"/>
        <pt x="202" y="536" on="0"/>
        <pt x="259" y="511" on="0"/>
        <pt x="326" y="485" on="0"/>
        <pt x="383" y="445" on="0"/>
        <pt x="421" y="383" on="0"/>
        <pt x="421" y="332" on="1"/>
        <pt x="421" y="225" on="0"/>
      </contour>
      <contour>
        <pt x="200" y="417" on="1"/>
        <pt x="189" y="417" on="0"/>
        <pt x="164" y="408" on="0"/>
        <pt x="141" y="390" on="0"/>
        <pt x="126" y="365" on="0"/>
        <pt x="126" y="350" on="1"/>
        <pt x="126" y="274" on="0"/>
        <pt x="266" y="238" on="1"/>
        <pt x="278" y="239" on="0"/>
        <pt x="302" y="254" on="0"/>
        <pt x="321" y="276" on="0"/>
        <pt x="334" y="302" on="0"/>
        <pt x="334" y="315" on="1"/>
        <pt x="334" y="339" on="0"/>
        <pt x="309" y="373" on="0"/>
        <pt x="270" y="396" on="0"/>
        <pt x="223" y="411" on="0"/>
      </contour>
    </TTGlyph>
    <TTGlyph name="semicolon" xMin="57" yMin="-110" xMax="183" yMax="440">
      <contour>
        <pt x="183" y="324" on="1"/>
        <pt x="57" y="324" on="1"/>
        <pt x="57" y="440" on="1"/>
        <pt x="183" y="440" on="1"/>
      </contour>
      <contour>
        <pt x="174" y="0" on="1"/>
        <pt x="82" y="-110" on="1"/>
        <pt x="57" y="-96" on="1"/>
        <pt x="90" y="-10" on="1"/>
        <pt x="57" y="0" on="1"/>
        <pt x="57" y="116" on="1"/>
        <pt x="174" y="116" on="1"/>
      </contour>
    </TTGlyph>
    <TTGlyph name="seven" xMin="42" yMin="0" xMax="500" yMax="700">
      <contour>
        <pt x="500" y="700" on="1"/>
        <pt x="204" y="0" on="1"/>
        <pt x="81" y="0" on="1"/>
        <pt x="329" y="588" on="1"/>
        <pt x="42" y="588" on="1"/>
        <pt x="42" y="700" on="1"/>
      </contour>
    </TTGlyph>
    <TTGlyph name="six" xMin="60" yMin="-14" xMax="522" yMax="700">
      <contour>
        <pt x="278" y="-14" on="1"/>
        <pt x="229" y="-14" on="0"/>
        <pt x="148" y="17" on="0"/>
        <pt x="91" y="82" on="0"/>
        <pt x="60" y="181" on="0"/>
        <pt x="60" y="249" on="1"/>
        <pt x="60" y="313" on="0"/>
        <pt x="90" y="430" on="0"/>
        <pt x="140" y="531" on="0"/>
        <pt x="203" y="612" on="0"/>
        <pt x="270" y="669" on="0"/>
        <pt x="334" y="700" on="0"/>
        <pt x="360" y="700" on="1"/>
        <pt x="438" y="654" on="1"/>
        <pt x="407" y="648" on="0"/>
        <pt x="327" y="596" on="0"/>
        <pt x="252" y="519" on="0"/>
        <pt x="195" y="423" on="0"/>
        <pt x="187" y="374" on="1"/>
        <pt x="223" y="421" on="0"/>
        <pt x="311" y="421" on="1"/>
        <pt x="357" y="421" on="0"/>
        <pt x="434" y="394" on="0"/>
        <pt x="490" y="343" on="0"/>
        <pt x="522" y="267" on="0"/>
        <pt x="522" y="219" on="1"/>
        <pt x="522" y="171" on="0"/>
        <pt x="487" y="86" on="0"/>
        <pt x="422" y="23" on="0"/>
        <pt x="332" y="-14" on="0"/>
      </contour>
      <contour>
        <pt x="302" y="324" on="1"/>
        <pt x="248" y="324" on="0"/>
        <pt x="177" y="260" on="0"/>
        <pt x="177" y="202" on="1"/>
        <pt x="177" y="175" on="0"/>
        <pt x="196" y="134" on="0"/>
        <pt x="227" y="105" on="0"/>
        <pt x="268" y="90" on="0"/>
        <pt x="291" y="90" on="1"/>
        <pt x="319" y="90" on="0"/>
        <pt x="363" y="111" on="0"/>
        <pt x="394" y="147" on="0"/>
        <pt x="411" y="193" on="0"/>
        <pt x="411" y="219" on="1"/>
        <pt x="411" y="240" on="0"/>
        <pt x="397" y="278" on="0"/>
        <pt x="370" y="307" on="0"/>
        <pt x="329" y="324" on="0"/>
      </contour>
    </TTGlyph>
    <TTGlyph name="slash" xMin="18" yMin="-85" xMax="511" yMax="700">
      <contour>
        <pt x="511" y="700" on="1"/>
        <pt x="142" y="-85" on="1"/>
        <pt x="18" y="-85" on="1"/>
        <pt x="387" y="700" on="1"/>
      </contour>
    </TTGlyph>
    <TTGlyph name="sterling" xMin="33" yMin="0" xMax="495" yMax="708">
      <contour>
        <pt x="422" y="557" on="1"/>
        <pt x="409" y="587" on="0"/>
        <pt x="373" y="613" on="0"/>
        <pt x="343" y="613" on="1"/>
        <pt x="315" y="613" on="0"/>
        <pt x="284" y="597" on="0"/>
        <pt x="269" y="564" on="0"/>
        <pt x="266" y="515" on="0"/>
        <pt x="266" y="482" on="1"/>
        <pt x="266" y="403" on="1"/>
        <pt x="453" y="403" on="1"/>
        <pt x="432" y="305" on="1"/>
        <pt x="260" y="305" on="1"/>
        <pt x="258" y="274" on="0"/>
        <pt x="254" y="227" on="0"/>
        <pt x="245" y="185" on="0"/>
        <pt x="231" y="140" on="0"/>
        <pt x="219" y="112" on="1"/>
        <pt x="461" y="112" on="1"/>
        <pt x="461" y="0" on="1"/>
        <pt x="33" y="0" on="1"/>
        <pt x="89" y="70" on="0"/>
        <pt x="138" y="215" on="0"/>
        <pt x="146" y="305" on="1"/>
        <pt x="56" y="305" on="1"/>
        <pt x="77" y="403" on="1"/>
        <pt x="152" y="403" on="1"/>
        <pt x="152" y="503" on="1"/>
        <pt x="152" y="541" on="0"/>
        <pt x="165" y="614" on="0"/>
        <pt x="204" y="672" on="0"/>
        <pt x="275" y="708" on="0"/>
        <pt x="332" y="708" on="1"/>
        <pt x="394" y="708" on="0"/>
        <pt x="482" y="663" on="0"/>
        <pt x="495" y="617" on="1"/>
      </contour>
    </TTGlyph>
    <TTGlyph name="t" xMin="16" yMin="-10" xMax="320" yMax="622">
      <contour>
        <pt x="319" y="83" on="1"/>
        <pt x="309" y="-10" on="1"/>
        <pt x="223" y="-10" on="1"/>
        <pt x="190" y="-10" on="0"/>
        <pt x="140" y="10" on="0"/>
        <pt x="107" y="44" on="0"/>
        <pt x="91" y="90" on="0"/>
        <pt x="91" y="117" on="1"/>
        <pt x="91" y="405" on="1"/>
        <pt x="16" y="405" on="1"/>
        <pt x="26" y="497" on="1"/>
        <pt x="91" y="497" on="1"/>
        <pt x="91" y="610" on="1"/>
        <pt x="204" y="622" on="1"/>
        <pt x="204" y="497" on="1"/>
        <pt x="320" y="497" on="1"/>
        <pt x="320" y="405" on="1"/>
        <pt x="204" y="405" on="1"/>
        <pt x="204" y="169" on="1"/>
        <pt x="204" y="138" on="0"/>
        <pt x="208" y="103" on="0"/>
        <pt x="224" y="87" on="0"/>
        <pt x="258" y="83" on="0"/>
        <pt x="288" y="83" on="1"/>
      </contour>
    </TTGlyph>
    <TTGlyph name="thorn" xMin="60" yMin="-242" xMax="547" yMax="750">
      <contour>
        <pt x="301" y="-10" on="1"/>
        <pt x="223" y="-10" on="0"/>
        <pt x="173" y="34" on="1"/>
        <pt x="173" y="-242" on="1"/>
        <pt x="60" y="-242" on="1"/>
        <pt x="60" y="750" on="1"/>
        <pt x="173" y="750" on="1"/>
        <pt x="173" y="463" on="1"/>
        <pt x="228" y="506" on="0"/>
        <pt x="303" y="506" on="1"/>
        <pt x="359" y="506" on="0"/>
        <pt x="450" y="466" on="0"/>
        <pt x="513" y="396" on="0"/>
        <pt x="547" y="302" on="0"/>
        <pt x="547" y="248" on="1"/>
        <pt x="547" y="194" on="0"/>
        <pt x="514" y="100" on="0"/>
        <pt x="451" y="30" on="0"/>
        <pt x="359" y="-10" on="0"/>
      </contour>
      <contour>
        <pt x="293" y="410" on="1"/>
        <pt x="229" y="410" on="0"/>
        <pt x="167" y="323" on="0"/>
        <pt x="167" y="248" on="1"/>
        <pt x="167" y="172" on="0"/>
        <pt x="229" y="83" on="0"/>
        <pt x="293" y="83" on="1"/>
        <pt x="359" y="83" on="0"/>
        <pt x="431" y="173" on="0"/>
        <pt x="431" y="248" on="1"/>
        <pt x="431" y="323" on="0"/>
        <pt x="359" y="410" on="0"/>
      </contour>
    </TTGlyph>
    <TTGlyph name="three" xMin="38" yMin="-14" xMax="482" yMax="714">
      <contour>
        <pt x="227" y="-14" on="1"/>
        <pt x="198" y="-14" on="0"/>
        <pt x="137" y="-3" on="0"/>
        <pt x="83" y="13" on="0"/>
        <pt x="44" y="32" on="0"/>
        <pt x="38" y="40" on="1"/>
        <pt x="67" y="148" on="1"/>
        <pt x="134" y="97" on="0"/>
        <pt x="223" y="97" on="1"/>
        <pt x="283" y="97" on="0"/>
        <pt x="363" y="150" on="0"/>
        <pt x="363" y="212" on="1"/>
        <pt x="363" y="240" on="0"/>
        <pt x="349" y="286" on="0"/>
        <pt x="317" y="318" on="0"/>
        <pt x="263" y="335" on="0"/>
        <pt x="223" y="335" on="1"/>
        <pt x="138" y="335" on="1"/>
        <pt x="149" y="427" on="1"/>
        <pt x="192" y="427" on="1"/>
        <pt x="336" y="427" on="0"/>
        <pt x="336" y="526" on="1"/>
        <pt x="336" y="613" on="0"/>
        <pt x="228" y="613" on="1"/>
        <pt x="144" y="613" on="0"/>
        <pt x="101" y="577" on="1"/>
        <pt x="82" y="668" on="1"/>
        <pt x="91" y="677" on="0"/>
        <pt x="122" y="693" on="0"/>
        <pt x="164" y="706" on="0"/>
        <pt x="214" y="714" on="0"/>
        <pt x="241" y="714" on="1"/>
        <pt x="305" y="714" on="0"/>
        <pt x="389" y="680" on="0"/>
        <pt x="438" y="626" on="0"/>
        <pt x="457" y="561" on="0"/>
        <pt x="457" y="530" on="1"/>
        <pt x="457" y="441" on="0"/>
        <pt x="383" y="388" on="1"/>
        <pt x="482" y="338" on="0"/>
        <pt x="482" y="216" on="1"/>
        <pt x="482" y="161" on="0"/>
        <pt x="441" y="75" on="0"/>
        <pt x="371" y="17" on="0"/>
        <pt x="279" y="-14" on="0"/>
      </contour>
    </TTGlyph>
    <TTGlyph name="threequarters" xMin="31" yMin="-85" xMax="864" yMax="706">
      <component glyphName="uni00B3" x="13" y="0" flags="0x4"/>
      <component glyphName="slash" x="207" y="0" flags="0x4"/>
      <component glyphName="uni2074" x="547" y="-319" flags="0x4"/>
    </TTGlyph>
    <TTGlyph name="tilde" xMin="81" yMin="596" xMax="448" yMax="715">
      <contour>
        <pt x="333" y="599" on="1"/>
        <pt x="322" y="599" on="0"/>
        <pt x="284" y="613" on="0"/>
        <pt x="244" y="630" on="0"/>
        <pt x="211" y="644" on="0"/>
        <pt x="205" y="644" on="1"/>
        <pt x="164" y="644" on="0"/>
        <pt x="149" y="596" on="1"/>
        <pt x="81" y="613" on="1"/>
        <pt x="88" y="659" on="0"/>
        <pt x="157" y="711" on="0"/>
        <pt x="199" y="711" on="1"/>
        <pt x="211" y="711" on="0"/>
        <pt x="249" y="697" on="0"/>
        <pt x="286" y="681" on="0"/>
        <pt x="318" y="667" on="0"/>
        <pt x="324" y="667" on="1"/>
        <pt x="346" y="667" on="0"/>
        <pt x="378" y="695" on="0"/>
        <pt x="385" y="715" on="1"/>
        <pt x="448" y="699" on="1"/>
        <pt x="439" y="657" on="0"/>
        <pt x="378" y="599" on="0"/>
      </contour>
    </TTGlyph>
    <TTGlyph name="trademark" xMin="31" yMin="337" xMax="680" yMax="700">
      <contour>
        <pt x="497" y="431" on="1"/>
        <pt x="487" y="431" on="1"/>
        <pt x="407" y="567" on="1"/>
        <pt x="378" y="337" on="1"/>
        <pt x="305" y="337" on="1"/>
        <pt x="354" y="700" on="1"/>
        <pt x="397" y="700" on="1"/>
        <pt x="493" y="542" on="1"/>
        <pt x="587" y="700" on="1"/>
        <pt x="631" y="700" on="1"/>
        <pt x="680" y="337" on="1"/>
        <pt x="606" y="337" on="1"/>
        <pt x="578" y="566" on="1"/>
      </contour>
      <contour>
        <pt x="305" y="700" on="1"/>
        <pt x="297" y="631" on="1"/>
        <pt x="201" y="631" on="1"/>
        <pt x="201" y="337" on="1"/>
        <pt x="130" y="337" on="1"/>
        <pt x="130" y="631" on="1"/>
        <pt x="31" y="631" on="1"/>
        <pt x="31" y="700" on="1"/>
      </contour>
    </TTGlyph>
    <TTGlyph name="two" xMin="48" yMin="0" xMax="472" yMax="714">
      <contour>
        <pt x="472" y="0" on="1"/>
        <pt x="48" y="0" on="1"/>
        <pt x="138" y="130" on="0"/>
        <pt x="250" y="301" on="0"/>
        <pt x="312" y="413" on="0"/>
        <pt x="333" y="482" on="0"/>
        <pt x="333" y="509" on="1"/>
        <pt x="333" y="558" on="0"/>
        <pt x="277" y="613" on="0"/>
        <pt x="228" y="613" on="1"/>
        <pt x="137" y="613" on="0"/>
        <pt x="67" y="510" on="1"/>
        <pt x="52" y="616" on="1"/>
        <pt x="61" y="632" on="0"/>
        <pt x="98" y="667" on="0"/>
        <pt x="151" y="696" on="0"/>
        <pt x="216" y="714" on="0"/>
        <pt x="254" y="714" on="1"/>
        <pt x="304" y="714" on="0"/>
        <pt x="376" y="683" on="0"/>
        <pt x="423" y="631" on="0"/>
        <pt x="446" y="562" on="0"/>
        <pt x="446" y="525" on="1"/>
        <pt x="446" y="489" on="0"/>
        <pt x="425" y="410" on="0"/>
        <pt x="379" y="312" on="0"/>
        <pt x="305" y="190" on="0"/>
        <pt x="253" y="112" on="1"/>
        <pt x="472" y="112" on="1"/>
      </contour>
    </TTGlyph>
    <TTGlyph name="u" xMin="54" yMin="-10" xMax="484" yMax="497">
      <contour>
        <pt x="484" y="0" on="1"/>
        <pt x="380" y="0" on="1"/>
        <pt x="375" y="37" on="1"/>
        <pt x="325" y="-10" on="0"/>
        <pt x="256" y="-10" on="1"/>
        <pt x="54" y="-10" on="0"/>
        <pt x="54" y="223" on="1"/>
        <pt x="54" y="497" on="1"/>
        <pt x="167" y="497" on="1"/>
        <pt x="167" y="231" on="1"/>
        <pt x="167" y="156" on="0"/>
        <pt x="217" y="87" on="0"/>
        <pt x="271" y="87" on="1"/>
        <pt x="337" y="87" on="0"/>
        <pt x="371" y="133" on="1"/>
        <pt x="371" y="497" on="1"/>
        <pt x="484" y="497" on="1"/>
      </contour>
    </TTGlyph>
    <TTGlyph name="uacute" xMin="54" yMin="-10" xMax="484" yMax="744">
      <component glyphName="u" x="0" y="0" flags="0x204"/>
      <component glyphName="acute" x="124" y="0" flags="0x4"/>
    </TTGlyph>
    <TTGlyph name="ucircumflex" xMin="54" yMin="-10" xMax="484" yMax="748">
      <component glyphName="u" x="0" y="0" flags="0x204"/>
      <component glyphName="circumflex" x="54" y="0" flags="0x4"/>
    </TTGlyph>
    <TTGlyph name="udieresis" xMin="54" yMin="-10" xMax="484" yMax="700">
      <component glyphName="u" x="0" y="0" flags="0x204"/>
      <component glyphName="dieresis" x="66" y="0" flags="0x4"/>
    </TTGlyph>
    <TTGlyph name="ugrave" xMin="54" yMin="-10" xMax="484" yMax="744">
      <component glyphName="u" x="0" y="0" flags="0x204"/>
      <component glyphName="grave" x="124" y="0" flags="0x4"/>
    </TTGlyph>
    <TTGlyph name="underscore" xMin="1" yMin="-128" xMax="561" yMax="-36">
      <contour>
        <pt x="561" y="-128" on="1"/>
        <pt x="1" y="-128" on="1"/>
        <pt x="1" y="-36" on="1"/>
        <pt x="561" y="-36" on="1"/>
      </contour>
    </TTGlyph>
    <TTGlyph name="uni00AD" xMin="55" yMin="230" xMax="365" yMax="324">
      <contour>
        <pt x="365" y="230" on="1"/>
        <pt x="55" y="230" on="1"/>
        <pt x="55" y="324" on="1"/>
        <pt x="365" y="324" on="1"/>
      </contour>
    </TTGlyph>
    <TTGlyph name="uni00B2" xMin="20" yMin="320" xMax="276" yMax="706">
      <contour>
        <pt x="276" y="320" on="1"/>
        <pt x="20" y="320" on="1"/>
        <pt x="75" y="396" on="0"/>
        <pt x="139" y="493" on="0"/>
        <pt x="171" y="552" on="0"/>
        <pt x="179" y="582" on="0"/>
        <pt x="179" y="591" on="1"/>
        <pt x="179" y="637" on="0"/>
        <pt x="136" y="637" on="1"/>
        <pt x="81" y="637" on="0"/>
        <pt x="44" y="570" on="1"/>
        <pt x="33" y="651" on="1"/>
        <pt x="46" y="674" on="0"/>
        <pt x="107" y="706" on="0"/>
        <pt x="152" y="706" on="1"/>
        <pt x="181" y="706" on="0"/>
        <pt x="222" y="689" on="0"/>
        <pt x="249" y="662" on="0"/>
        <pt x="262" y="625" on="0"/>
        <pt x="262" y="606" on="1"/>
        <pt x="262" y="540" on="0"/>
        <pt x="174" y="410" on="1"/>
        <pt x="276" y="410" on="1"/>
      </contour>
    </TTGlyph>
    <TTGlyph name="uni00B3" xMin="18" yMin="312" xMax="276" yMax="706">
      <contour>
        <pt x="126" y="312" on="1"/>
        <pt x="109" y="312" on="0"/>
        <pt x="74" y="318" on="0"/>
        <pt x="43" y="327" on="0"/>
        <pt x="21" y="337" on="0"/>
        <pt x="18" y="342" on="1"/>
        <pt x="40" y="425" on="1"/>
        <pt x="41" y="420" on="0"/>
        <pt x="58" y="411" on="0"/>
        <pt x="82" y="405" on="0"/>
        <pt x="109" y="401" on="0"/>
        <pt x="120" y="401" on="1"/>
        <pt x="190" y="401" on="0"/>
        <pt x="190" y="433" on="1"/>
        <pt x="190" y="492" on="0"/>
        <pt x="137" y="492" on="1"/>
        <pt x="75" y="492" on="1"/>
        <pt x="82" y="559" on="1"/>
        <pt x="114" y="559" on="1"/>
        <pt x="145" y="559" on="0"/>
        <pt x="173" y="582" on="0"/>
        <pt x="173" y="595" on="1"/>
        <pt x="173" y="611" on="0"/>
        <pt x="149" y="636" on="0"/>
        <pt x="121" y="636" on="1"/>
        <pt x="75" y="636" on="0"/>
        <pt x="56" y="620" on="1"/>
        <pt x="44" y="681" on="1"/>
        <pt x="70" y="706" on="0"/>
        <pt x="133" y="706" on="1"/>
        <pt x="169" y="706" on="0"/>
        <pt x="218" y="688" on="0"/>
        <pt x="248" y="659" on="0"/>
        <pt x="261" y="621" on="0"/>
        <pt x="261" y="602" on="1"/>
        <pt x="261" y="575" on="0"/>
        <pt x="244" y="535" on="0"/>
        <pt x="235" y="530" on="1"/>
        <pt x="246" y="519" on="0"/>
        <pt x="276" y="477" on="0"/>
        <pt x="276" y="439" on="1"/>
        <pt x="276" y="409" on="0"/>
        <pt x="252" y="362" on="0"/>
        <pt x="211" y="329" on="0"/>
        <pt x="157" y="312" on="0"/>
      </contour>
    </TTGlyph>
    <TTGlyph name="uni00B5" xMin="73" yMin="-242" xMax="568" yMax="497">
      <contour>
        <pt x="568" y="83" on="1"/>
        <pt x="556" y="-10" on="1"/>
        <pt x="517" y="-10" on="1"/>
        <pt x="441" y="-10" on="0"/>
        <pt x="409" y="49" on="1"/>
        <pt x="355" y="-9" on="0"/>
        <pt x="282" y="-9" on="1"/>
        <pt x="226" y="-9" on="0"/>
        <pt x="186" y="13" on="1"/>
        <pt x="186" y="-242" on="1"/>
        <pt x="73" y="-242" on="1"/>
        <pt x="73" y="497" on="1"/>
        <pt x="186" y="497" on="1"/>
        <pt x="186" y="231" on="1"/>
        <pt x="186" y="156" on="0"/>
        <pt x="235" y="86" on="0"/>
        <pt x="292" y="86" on="1"/>
        <pt x="352" y="86" on="0"/>
        <pt x="393" y="133" on="1"/>
        <pt x="393" y="497" on="1"/>
        <pt x="506" y="497" on="1"/>
        <pt x="506" y="171" on="1"/>
        <pt x="506" y="144" on="0"/>
        <pt x="510" y="110" on="0"/>
        <pt x="520" y="90" on="0"/>
        <pt x="537" y="83" on="0"/>
        <pt x="551" y="83" on="1"/>
      </contour>
    </TTGlyph>
    <TTGlyph name="uni00B9" xMin="26" yMin="320" xMax="161" yMax="698">
      <contour>
        <pt x="161" y="320" on="1"/>
        <pt x="72" y="320" on="1"/>
        <pt x="72" y="573" on="1"/>
        <pt x="65" y="571" on="0"/>
        <pt x="43" y="570" on="0"/>
        <pt x="29" y="569" on="1"/>
        <pt x="26" y="639" on="1"/>
        <pt x="33" y="639" on="0"/>
        <pt x="53" y="651" on="0"/>
        <pt x="73" y="668" on="0"/>
        <pt x="89" y="689" on="0"/>
        <pt x="91" y="698" on="1"/>
        <pt x="161" y="698" on="1"/>
      </contour>
    </TTGlyph>
    <TTGlyph name="uni0237" xMin="-4" yMin="-240" xMax="174" yMax="497">
      <contour>
        <pt x="47" y="-240" on="1"/>
        <pt x="7" y="-240" on="1"/>
        <pt x="-4" y="-150" on="1"/>
        <pt x="17" y="-149" on="0"/>
        <pt x="43" y="-144" on="0"/>
        <pt x="56" y="-127" on="0"/>
        <pt x="60" y="-93" on="0"/>
        <pt x="60" y="-64" on="1"/>
        <pt x="60" y="497" on="1"/>
        <pt x="174" y="497" on="1"/>
        <pt x="174" y="-110" on="1"/>
        <pt x="174" y="-170" on="0"/>
        <pt x="105" y="-238" on="0"/>
      </contour>
    </TTGlyph>
    <TTGlyph name="uni2070" xMin="30" yMin="312" xMax="371" yMax="706">
      <contour>
        <pt x="197" y="312" on="1"/>
        <pt x="159" y="312" on="0"/>
        <pt x="97" y="340" on="0"/>
        <pt x="54" y="391" on="0"/>
        <pt x="30" y="462" on="0"/>
        <pt x="30" y="504" on="1"/>
        <pt x="30" y="547" on="0"/>
        <pt x="57" y="621" on="0"/>
        <pt x="103" y="675" on="0"/>
        <pt x="167" y="706" on="0"/>
        <pt x="204" y="706" on="1"/>
        <pt x="241" y="706" on="0"/>
        <pt x="302" y="677" on="0"/>
        <pt x="346" y="624" on="0"/>
        <pt x="371" y="553" on="0"/>
        <pt x="371" y="511" on="1"/>
        <pt x="371" y="468" on="0"/>
        <pt x="347" y="395" on="0"/>
        <pt x="302" y="342" on="0"/>
        <pt x="237" y="312" on="0"/>
      </contour>
      <contour>
        <pt x="118" y="504" on="1"/>
        <pt x="118" y="446" on="0"/>
        <pt x="163" y="392" on="0"/>
        <pt x="198" y="392" on="1"/>
        <pt x="284" y="392" on="0"/>
        <pt x="284" y="511" on="1"/>
        <pt x="284" y="568" on="0"/>
        <pt x="236" y="628" on="0"/>
        <pt x="203" y="628" on="1"/>
        <pt x="170" y="628" on="0"/>
        <pt x="118" y="564" on="0"/>
      </contour>
    </TTGlyph>
    <TTGlyph name="uni2074" xMin="3" yMin="320" xMax="317" yMax="698">
      <contour>
        <pt x="317" y="423" on="1"/>
        <pt x="268" y="423" on="1"/>
        <pt x="268" y="320" on="1"/>
        <pt x="178" y="320" on="1"/>
        <pt x="178" y="423" on="1"/>
        <pt x="3" y="423" on="1"/>
        <pt x="190" y="698" on="1"/>
        <pt x="268" y="698" on="1"/>
        <pt x="268" y="490" on="1"/>
        <pt x="317" y="490" on="1"/>
      </contour>
      <contour>
        <pt x="178" y="490" on="1"/>
        <pt x="178" y="576" on="1"/>
        <pt x="118" y="490" on="1"/>
      </contour>
    </TTGlyph>
    <TTGlyph name="uni2075" xMin="23" yMin="314" xMax="277" yMax="698">
      <contour>
        <pt x="137" y="314" on="1"/>
        <pt x="113" y="314" on="0"/>
        <pt x="71" y="324" on="0"/>
        <pt x="41" y="337" on="0"/>
        <pt x="23" y="350" on="0"/>
        <pt x="23" y="354" on="1"/>
        <pt x="44" y="433" on="1"/>
        <pt x="69" y="399" on="0"/>
        <pt x="152" y="399" on="1"/>
        <pt x="195" y="399" on="0"/>
        <pt x="195" y="440" on="1"/>
        <pt x="195" y="446" on="0"/>
        <pt x="192" y="461" on="0"/>
        <pt x="177" y="475" on="0"/>
        <pt x="146" y="485" on="0"/>
        <pt x="117" y="485" on="1"/>
        <pt x="44" y="485" on="1"/>
        <pt x="70" y="698" on="1"/>
        <pt x="258" y="698" on="1"/>
        <pt x="248" y="608" on="1"/>
        <pt x="136" y="608" on="1"/>
        <pt x="128" y="556" on="1"/>
        <pt x="204" y="555" on="0"/>
        <pt x="277" y="502" on="0"/>
        <pt x="277" y="442" on="1"/>
        <pt x="277" y="409" on="0"/>
        <pt x="255" y="361" on="0"/>
        <pt x="218" y="329" on="0"/>
        <pt x="167" y="314" on="0"/>
      </contour>
    </TTGlyph>
    <TTGlyph name="uni2076" xMin="30" yMin="312" xMax="298" yMax="698">
      <contour>
        <pt x="156" y="312" on="1"/>
        <pt x="99" y="312" on="0"/>
        <pt x="30" y="387" on="0"/>
        <pt x="30" y="465" on="1"/>
        <pt x="30" y="512" on="0"/>
        <pt x="67" y="596" on="0"/>
        <pt x="121" y="659" on="0"/>
        <pt x="181" y="697" on="0"/>
        <pt x="204" y="698" on="1"/>
        <pt x="263" y="664" on="1"/>
        <pt x="249" y="664" on="0"/>
        <pt x="203" y="632" on="0"/>
        <pt x="157" y="589" on="0"/>
        <pt x="123" y="546" on="0"/>
        <pt x="122" y="536" on="1"/>
        <pt x="135" y="548" on="0"/>
        <pt x="179" y="548" on="1"/>
        <pt x="231" y="548" on="0"/>
        <pt x="298" y="490" on="0"/>
        <pt x="298" y="439" on="1"/>
        <pt x="298" y="415" on="0"/>
        <pt x="278" y="369" on="0"/>
        <pt x="241" y="334" on="0"/>
        <pt x="188" y="312" on="0"/>
      </contour>
      <contour>
        <pt x="172" y="478" on="1"/>
        <pt x="115" y="478" on="0"/>
        <pt x="115" y="431" on="1"/>
        <pt x="115" y="415" on="0"/>
        <pt x="148" y="393" on="0"/>
        <pt x="164" y="393" on="1"/>
        <pt x="186" y="393" on="0"/>
        <pt x="218" y="422" on="0"/>
        <pt x="218" y="443" on="1"/>
        <pt x="218" y="457" on="0"/>
        <pt x="191" y="478" on="0"/>
      </contour>
    </TTGlyph>
    <TTGlyph name="uni2077" xMin="27" yMin="320" xMax="297" yMax="698">
      <contour>
        <pt x="297" y="698" on="1"/>
        <pt x="134" y="320" on="1"/>
        <pt x="38" y="320" on="1"/>
        <pt x="164" y="608" on="1"/>
        <pt x="27" y="608" on="1"/>
        <pt x="27" y="698" on="1"/>
      </contour>
    </TTGlyph>
    <TTGlyph name="uni2078" xMin="29" yMin="312" xMax="313" yMax="706">
      <contour>
        <pt x="164" y="312" on="1"/>
        <pt x="98" y="312" on="0"/>
        <pt x="29" y="370" on="0"/>
        <pt x="29" y="418" on="1"/>
        <pt x="29" y="475" on="0"/>
        <pt x="78" y="524" on="1"/>
        <pt x="65" y="532" on="0"/>
        <pt x="51" y="583" on="0"/>
        <pt x="51" y="608" on="1"/>
        <pt x="51" y="706" on="0"/>
        <pt x="173" y="706" on="1"/>
        <pt x="292" y="706" on="0"/>
        <pt x="292" y="617" on="1"/>
        <pt x="292" y="593" on="0"/>
        <pt x="270" y="540" on="0"/>
        <pt x="258" y="528" on="1"/>
        <pt x="268" y="522" on="0"/>
        <pt x="288" y="500" on="0"/>
        <pt x="303" y="475" on="0"/>
        <pt x="313" y="447" on="0"/>
        <pt x="313" y="434" on="1"/>
        <pt x="313" y="410" on="0"/>
        <pt x="294" y="366" on="0"/>
        <pt x="256" y="332" on="0"/>
        <pt x="200" y="312" on="0"/>
      </contour>
      <contour>
        <pt x="171" y="643" on="1"/>
        <pt x="147" y="643" on="0"/>
        <pt x="129" y="616" on="0"/>
        <pt x="129" y="589" on="1"/>
        <pt x="129" y="573" on="0"/>
        <pt x="142" y="554" on="0"/>
        <pt x="168" y="552" on="1"/>
        <pt x="211" y="552" on="0"/>
        <pt x="211" y="597" on="1"/>
        <pt x="211" y="643" on="0"/>
      </contour>
      <contour>
        <pt x="174" y="496" on="1"/>
        <pt x="163" y="496" on="0"/>
        <pt x="140" y="486" on="0"/>
        <pt x="122" y="468" on="0"/>
        <pt x="110" y="444" on="0"/>
        <pt x="110" y="429" on="1"/>
        <pt x="110" y="406" on="0"/>
        <pt x="141" y="377" on="0"/>
        <pt x="167" y="377" on="1"/>
        <pt x="226" y="377" on="0"/>
        <pt x="226" y="429" on="1"/>
        <pt x="226" y="459" on="0"/>
        <pt x="195" y="495" on="0"/>
      </contour>
    </TTGlyph>
    <TTGlyph name="uni2079" xMin="21" yMin="320" xMax="290" yMax="706">
      <contour>
        <pt x="163" y="706" on="1"/>
        <pt x="223" y="706" on="0"/>
        <pt x="290" y="628" on="0"/>
        <pt x="290" y="553" on="1"/>
        <pt x="290" y="512" on="0"/>
        <pt x="258" y="429" on="0"/>
        <pt x="207" y="362" on="0"/>
        <pt x="142" y="320" on="0"/>
        <pt x="110" y="320" on="1"/>
        <pt x="59" y="354" on="1"/>
        <pt x="75" y="354" on="0"/>
        <pt x="125" y="380" on="0"/>
        <pt x="171" y="420" on="0"/>
        <pt x="205" y="465" on="0"/>
        <pt x="206" y="485" on="1"/>
        <pt x="186" y="471" on="0"/>
        <pt x="144" y="471" on="1"/>
        <pt x="122" y="471" on="0"/>
        <pt x="78" y="486" on="0"/>
        <pt x="43" y="513" on="0"/>
        <pt x="21" y="552" on="0"/>
        <pt x="21" y="577" on="1"/>
        <pt x="21" y="604" on="0"/>
        <pt x="43" y="651" on="0"/>
        <pt x="81" y="686" on="0"/>
        <pt x="133" y="706" on="0"/>
      </contour>
      <contour>
        <pt x="151" y="540" on="1"/>
        <pt x="209" y="540" on="0"/>
        <pt x="209" y="585" on="1"/>
        <pt x="209" y="628" on="0"/>
        <pt x="161" y="628" on="1"/>
        <pt x="138" y="628" on="0"/>
        <pt x="109" y="597" on="0"/>
        <pt x="109" y="579" on="1"/>
        <pt x="109" y="561" on="0"/>
        <pt x="132" y="540" on="0"/>
      </contour>
    </TTGlyph>
    <TTGlyph name="uni2080" xMin="43" yMin="-7" xMax="384" yMax="387">
      <component glyphName="uni2070" x="13" y="-319" flags="0x4"/>
    </TTGlyph>
    <TTGlyph name="uni2081" xMin="40" yMin="1" xMax="175" yMax="379">
      <component glyphName="uni00B9" x="14" y="-319" flags="0x4"/>
    </TTGlyph>
    <TTGlyph name="uni2082" xMin="31" yMin="1" xMax="287" yMax="387">
      <component glyphName="uni00B2" x="11" y="-319" flags="0x4"/>
    </TTGlyph>
    <TTGlyph name="uni2083" xMin="31" yMin="-7" xMax="289" yMax="387">
      <component glyphName="uni00B3" x="13" y="-319" flags="0x4"/>
    </TTGlyph>
    <TTGlyph name="uni2084" xMin="15" yMin="1" xMax="329" yMax="379">
      <component glyphName="uni2074" x="12" y="-319" flags="0x4"/>
    </TTGlyph>
    <TTGlyph name="uni2085" xMin="36" yMin="-5" xMax="290" yMax="379">
      <component glyphName="uni2075" x="13" y="-319" flags="0x4"/>
    </TTGlyph>
    <TTGlyph name="uni2086" xMin="44" yMin="-7" xMax="312" yMax="379">
      <component glyphName="uni2076" x="14" y="-319" flags="0x4"/>
    </TTGlyph>
    <TTGlyph name="uni2087" xMin="43" yMin="1" xMax="313" yMax="379">
      <component glyphName="uni2077" x="16" y="-319" flags="0x4"/>
    </TTGlyph>
    <TTGlyph name="uni2088" xMin="43" yMin="-7" xMax="327" yMax="387">
      <component glyphName="uni2078" x="14" y="-319" flags="0x4"/>
    </TTGlyph>
    <TTGlyph name="uni2089" xMin="32" yMin="1" xMax="301" yMax="387">
      <component glyphName="uni2079" x="11" y="-319" flags="0x4"/>
    </TTGlyph>
    <TTGlyph name="v" xMin="6" yMin="0" xMax="491" yMax="497">
      <contour>
        <pt x="491" y="497" on="1"/>
        <pt x="301" y="0" on="1"/>
        <pt x="196" y="0" on="1"/>
        <pt x="6" y="497" on="1"/>
        <pt x="121" y="497" on="1"/>
        <pt x="248" y="137" on="1"/>
        <pt x="375" y="497" on="1"/>
      </contour>
    </TTGlyph>
    <TTGlyph name="w" xMin="10" yMin="0" xMax="715" yMax="497">
      <contour>
        <pt x="715" y="497" on="1"/>
        <pt x="568" y="0" on="1"/>
        <pt x="465" y="0" on="1"/>
        <pt x="363" y="337" on="1"/>
        <pt x="260" y="0" on="1"/>
        <pt x="157" y="0" on="1"/>
        <pt x="10" y="497" on="1"/>
        <pt x="127" y="497" on="1"/>
        <pt x="215" y="135" on="1"/>
        <pt x="312" y="485" on="1"/>
        <pt x="413" y="485" on="1"/>
        <pt x="509" y="135" on="1"/>
        <pt x="599" y="497" on="1"/>
      </contour>
    </TTGlyph>
    <TTGlyph name="x" xMin="10" yMin="0" xMax="476" yMax="497">
      <contour>
        <pt x="476" y="0" on="1"/>
        <pt x="342" y="0" on="1"/>
        <pt x="241" y="157" on="1"/>
        <pt x="144" y="0" on="1"/>
        <pt x="10" y="0" on="1"/>
        <pt x="175" y="248" on="1"/>
        <pt x="12" y="497" on="1"/>
        <pt x="145" y="497" on="1"/>
        <pt x="246" y="339" on="1"/>
        <pt x="339" y="497" on="1"/>
        <pt x="474" y="497" on="1"/>
        <pt x="312" y="251" on="1"/>
      </contour>
    </TTGlyph>
    <TTGlyph name="y" xMin="4" yMin="-242" xMax="525" yMax="497">
      <contour>
        <pt x="525" y="497" on="1"/>
        <pt x="216" y="-242" on="1"/>
        <pt x="99" y="-242" on="1"/>
        <pt x="211" y="30" on="1"/>
        <pt x="4" y="497" on="1"/>
        <pt x="130" y="497" on="1"/>
        <pt x="266" y="162" on="1"/>
        <pt x="399" y="497" on="1"/>
      </contour>
    </TTGlyph>
    <TTGlyph name="yacute" xMin="4" yMin="-242" xMax="525" yMax="744">
      <component glyphName="y" x="0" y="0" flags="0x204"/>
      <component glyphName="acute" x="113" y="0" flags="0x4"/>
    </TTGlyph>
    <TTGlyph name="ydieresis" xMin="4" yMin="-242" xMax="525" yMax="700">
      <component glyphName="y" x="0" y="0" flags="0x204"/>
      <component glyphName="dieresis" x="53" y="0" flags="0x4"/>
    </TTGlyph>
    <TTGlyph name="yen" xMin="28" yMin="0" xMax="668" yMax="700">
      <contour>
        <pt x="420" y="330" on="1"/>
        <pt x="577" y="330" on="1"/>
        <pt x="552" y="266" on="1"/>
        <pt x="407" y="266" on="1"/>
        <pt x="407" y="205" on="1"/>
        <pt x="577" y="205" on="1"/>
        <pt x="552" y="140" on="1"/>
        <pt x="407" y="140" on="1"/>
        <pt x="407" y="0" on="1"/>
        <pt x="289" y="0" on="1"/>
        <pt x="289" y="140" on="1"/>
        <pt x="120" y="140" on="1"/>
        <pt x="144" y="205" on="1"/>
        <pt x="289" y="205" on="1"/>
        <pt x="289" y="266" on="1"/>
        <pt x="120" y="266" on="1"/>
        <pt x="143" y="330" on="1"/>
        <pt x="276" y="330" on="1"/>
        <pt x="28" y="700" on="1"/>
        <pt x="148" y="700" on="1"/>
        <pt x="348" y="414" on="1"/>
        <pt x="548" y="700" on="1"/>
        <pt x="668" y="700" on="1"/>
      </contour>
    </TTGlyph>
    <TTGlyph name="z" xMin="23" yMin="0" xMax="452" yMax="497">
      <contour>
        <pt x="452" y="497" on="1"/>
        <pt x="218" y="98" on="1"/>
        <pt x="443" y="98" on="1"/>
        <pt x="443" y="0" on="1"/>
        <pt x="23" y="0" on="1"/>
        <pt x="256" y="399" on="1"/>
        <pt x="33" y="399" on="1"/>
        <pt x="33" y="497" on="1"/>
      </contour>
    </TTGlyph>
    <TTGlyph name="zcaron" xMin="23" yMin="0" xMax="452" yMax="747">
      <component glyphName="z" x="0" y="0" flags="0x204"/>
      <component glyphName="caron" x="15" y="0" flags="0x4"/>
    </TTGlyph>
</ttFont>
